<mxfile host="65bd71144e">
    <diagram id="T1vzRdKU-yj8iIRACiGz" name="Page-1">
        <mxGraphModel dx="832" dy="475" grid="1" gridSize="10" guides="1" tooltips="1" connect="1" arrows="1" fold="1" page="1" pageScale="1" pageWidth="850" pageHeight="1100" math="0" shadow="0">
            <root>
                <mxCell id="0"/>
                <mxCell id="1" parent="0"/>
                <mxCell id="2" value="Javascript&amp;nbsp;" style="text;html=1;align=center;verticalAlign=middle;resizable=0;points=[];autosize=1;strokeColor=#B20000;fillColor=#e51400;fontSize=20;fontFamily=Architects Daughter;sketch=1;hachureGap=4;jiggle=2;curveFitting=1;fontSource=https%3A%2F%2Ffonts.googleapis.com%2Fcss%3Ffamily%3DArchitects%2BDaughter;fontColor=#ffffff;" vertex="1" parent="1">
                    <mxGeometry x="330" y="20" width="130" height="40" as="geometry"/>
                </mxCell>
                <mxCell id="3" value="" style="edgeStyle=segmentEdgeStyle;endArrow=classic;html=1;curved=0;rounded=0;endSize=8;startSize=8;sourcePerimeterSpacing=0;targetPerimeterSpacing=0;sketch=1;hachureGap=4;jiggle=2;curveFitting=1;fontFamily=Architects Daughter;fontSource=https%3A%2F%2Ffonts.googleapis.com%2Fcss%3Ffamily%3DArchitects%2BDaughter;fontSize=16;" edge="1" parent="1">
                    <mxGeometry width="100" relative="1" as="geometry">
                        <mxPoint x="470" y="40" as="sourcePoint"/>
                        <mxPoint x="570" y="80" as="targetPoint"/>
                        <Array as="points">
                            <mxPoint x="520" y="80"/>
                        </Array>
                    </mxGeometry>
                </mxCell>
                <mxCell id="4" value="" style="edgeStyle=segmentEdgeStyle;endArrow=classic;html=1;curved=0;rounded=0;endSize=8;startSize=8;sourcePerimeterSpacing=0;targetPerimeterSpacing=0;sketch=1;hachureGap=4;jiggle=2;curveFitting=1;fontFamily=Architects Daughter;fontSource=https%3A%2F%2Ffonts.googleapis.com%2Fcss%3Ffamily%3DArchitects%2BDaughter;fontSize=16;" edge="1" parent="1">
                    <mxGeometry width="100" relative="1" as="geometry">
                        <mxPoint x="330" y="40" as="sourcePoint"/>
                        <mxPoint x="190" y="90" as="targetPoint"/>
                        <Array as="points">
                            <mxPoint x="260" y="40"/>
                            <mxPoint x="260" y="90"/>
                        </Array>
                    </mxGeometry>
                </mxCell>
                <mxCell id="5" value="synchronous" style="text;html=1;align=center;verticalAlign=middle;resizable=0;points=[];autosize=1;strokeColor=none;fillColor=none;fontSize=20;fontFamily=Architects Daughter;sketch=1;hachureGap=4;jiggle=2;curveFitting=1;fontSource=https%3A%2F%2Ffonts.googleapis.com%2Fcss%3Ffamily%3DArchitects%2BDaughter;" vertex="1" parent="1">
                    <mxGeometry x="45" y="70" width="140" height="40" as="geometry"/>
                </mxCell>
                <mxCell id="6" value="Single Threaded" style="text;html=1;align=center;verticalAlign=middle;resizable=0;points=[];autosize=1;strokeColor=none;fillColor=none;fontSize=20;fontFamily=Architects Daughter;sketch=1;hachureGap=4;jiggle=2;curveFitting=1;fontSource=https%3A%2F%2Ffonts.googleapis.com%2Fcss%3Ffamily%3DArchitects%2BDaughter;" vertex="1" parent="1">
                    <mxGeometry x="570" y="60" width="170" height="40" as="geometry"/>
                </mxCell>
                <mxCell id="7" value="code excutes one by one" style="shape=note;whiteSpace=wrap;html=1;backgroundOutline=1;fontColor=#000000;darkOpacity=0.05;fillColor=#FFF9B2;strokeColor=none;fillStyle=solid;direction=west;gradientDirection=north;gradientColor=#FFF2A1;shadow=1;size=20;pointerEvents=1;sketch=1;hachureGap=4;jiggle=2;curveFitting=1;fontFamily=Architects Daughter;fontSource=https%3A%2F%2Ffonts.googleapis.com%2Fcss%3Ffamily%3DArchitects%2BDaughter;fontSize=20;" vertex="1" parent="1">
                    <mxGeometry x="50" y="120" width="200" height="50" as="geometry"/>
                </mxCell>
                <mxCell id="8" value="Default JS" style="text;html=1;align=center;verticalAlign=middle;resizable=0;points=[];autosize=1;strokeColor=#B20000;fillColor=#e51400;fontSize=20;fontFamily=Architects Daughter;sketch=1;hachureGap=4;jiggle=2;curveFitting=1;fontSource=https%3A%2F%2Ffonts.googleapis.com%2Fcss%3Ffamily%3DArchitects%2BDaughter;fontColor=#ffffff;" vertex="1" parent="1">
                    <mxGeometry x="340" y="100" width="120" height="40" as="geometry"/>
                </mxCell>
                <mxCell id="9" value="" style="edgeStyle=none;orthogonalLoop=1;jettySize=auto;html=1;sketch=1;hachureGap=4;jiggle=2;curveFitting=1;fontFamily=Architects Daughter;fontSource=https%3A%2F%2Ffonts.googleapis.com%2Fcss%3Ffamily%3DArchitects%2BDaughter;fontSize=16;entryX=-0.018;entryY=0.925;entryDx=0;entryDy=0;entryPerimeter=0;" edge="1" parent="1" target="6">
                    <mxGeometry width="100" relative="1" as="geometry">
                        <mxPoint x="470" y="119.5" as="sourcePoint"/>
                        <mxPoint x="570" y="119.5" as="targetPoint"/>
                        <Array as="points"/>
                    </mxGeometry>
                </mxCell>
                <mxCell id="10" value="" style="edgeStyle=none;orthogonalLoop=1;jettySize=auto;html=1;sketch=1;hachureGap=4;jiggle=2;curveFitting=1;fontFamily=Architects Daughter;fontSource=https%3A%2F%2Ffonts.googleapis.com%2Fcss%3Ffamily%3DArchitects%2BDaughter;fontSize=16;exitX=-0.033;exitY=0.725;exitDx=0;exitDy=0;exitPerimeter=0;" edge="1" parent="1" source="8">
                    <mxGeometry width="100" relative="1" as="geometry">
                        <mxPoint x="460" y="160" as="sourcePoint"/>
                        <mxPoint x="210" y="100" as="targetPoint"/>
                        <Array as="points"/>
                    </mxGeometry>
                </mxCell>
                <mxCell id="12" value="" style="edgeStyle=none;orthogonalLoop=1;jettySize=auto;html=1;sketch=1;hachureGap=4;jiggle=2;curveFitting=1;fontFamily=Architects Daughter;fontSource=https%3A%2F%2Ffonts.googleapis.com%2Fcss%3Ffamily%3DArchitects%2BDaughter;fontSize=16;shape=link;width=14;" edge="1" parent="1">
                    <mxGeometry width="80" relative="1" as="geometry">
                        <mxPoint x="45" y="230" as="sourcePoint"/>
                        <mxPoint x="800" y="230" as="targetPoint"/>
                        <Array as="points"/>
                    </mxGeometry>
                </mxCell>
                <mxCell id="13" value="Execution Context&lt;br&gt;" style="text;html=1;align=center;verticalAlign=middle;resizable=0;points=[];autosize=1;strokeColor=#B20000;fillColor=#e51400;fontSize=20;fontFamily=Architects Daughter;sketch=1;hachureGap=4;jiggle=2;curveFitting=1;fontSource=https%3A%2F%2Ffonts.googleapis.com%2Fcss%3Ffamily%3DArchitects%2BDaughter;fontColor=#ffffff;" vertex="1" parent="1">
                    <mxGeometry x="310" y="260" width="190" height="40" as="geometry"/>
                </mxCell>
                <mxCell id="14" value="each code from the program executes line by line" style="text;html=1;align=center;verticalAlign=middle;resizable=0;points=[];autosize=1;strokeColor=none;fillColor=none;fontSize=20;fontFamily=Architects Daughter;sketch=1;hachureGap=4;jiggle=2;curveFitting=1;fontSource=https%3A%2F%2Ffonts.googleapis.com%2Fcss%3Ffamily%3DArchitects%2BDaughter;" vertex="1" parent="1">
                    <mxGeometry x="150" y="310" width="490" height="40" as="geometry"/>
                </mxCell>
                <mxCell id="15" value="1. console.log(&amp;nbsp; )" style="text;html=1;align=center;verticalAlign=middle;resizable=0;points=[];autosize=1;strokeColor=none;fillColor=none;fontSize=20;fontFamily=Architects Daughter;sketch=1;hachureGap=4;jiggle=2;curveFitting=1;fontSource=https%3A%2F%2Ffonts.googleapis.com%2Fcss%3Ffamily%3DArchitects%2BDaughter;" vertex="1" parent="1">
                    <mxGeometry x="150" y="360" width="160" height="40" as="geometry"/>
                </mxCell>
                <mxCell id="16" value="2. console.log(&amp;nbsp; )" style="text;html=1;align=center;verticalAlign=middle;resizable=0;points=[];autosize=1;strokeColor=none;fillColor=none;fontSize=20;fontFamily=Architects Daughter;sketch=1;hachureGap=4;jiggle=2;curveFitting=1;fontSource=https%3A%2F%2Ffonts.googleapis.com%2Fcss%3Ffamily%3DArchitects%2BDaughter;" vertex="1" parent="1">
                    <mxGeometry x="145" y="420" width="170" height="40" as="geometry"/>
                </mxCell>
                <mxCell id="17" value="" style="edgeStyle=none;orthogonalLoop=1;jettySize=auto;html=1;sketch=1;hachureGap=4;jiggle=2;curveFitting=1;fontFamily=Architects Daughter;fontSource=https%3A%2F%2Ffonts.googleapis.com%2Fcss%3Ffamily%3DArchitects%2BDaughter;fontSize=16;" edge="1" parent="1">
                    <mxGeometry width="80" relative="1" as="geometry">
                        <mxPoint x="140" y="370" as="sourcePoint"/>
                        <mxPoint x="140" y="550" as="targetPoint"/>
                        <Array as="points"/>
                    </mxGeometry>
                </mxCell>
                <mxCell id="28" value="" style="shape=table;childLayout=tableLayout;startSize=0;fillColor=#151d1e;collapsible=0;recursiveResize=0;expand=0;sketch=1;hachureGap=4;jiggle=2;curveFitting=1;fontFamily=Architects Daughter;fontSource=https%3A%2F%2Ffonts.googleapis.com%2Fcss%3Ffamily%3DArchitects%2BDaughter;fontSize=20;" vertex="1" parent="1">
                    <mxGeometry x="180" y="500" width="80" height="90" as="geometry"/>
                </mxCell>
                <mxCell id="31" value="" style="shape=tableRow;horizontal=0;swimlaneHead=0;swimlaneBody=0;top=0;left=0;bottom=0;right=0;dropTarget=0;fontStyle=0;fillColor=none;points=[[0,0.5],[1,0.5]];portConstraint=eastwest;startSize=80;collapsible=0;recursiveResize=0;expand=0;sketch=1;hachureGap=4;jiggle=2;curveFitting=1;fontFamily=Architects Daughter;fontSource=https%3A%2F%2Ffonts.googleapis.com%2Fcss%3Ffamily%3DArchitects%2BDaughter;fontSize=20;swimlaneFillColor=default;" vertex="1" parent="28">
                    <mxGeometry width="80" height="45" as="geometry"/>
                </mxCell>
                <mxCell id="32" value="" style="swimlane;swimlaneHead=0;swimlaneBody=0;fontStyle=0;connectable=0;fillColor=none;startSize=0;collapsible=0;recursiveResize=0;expand=0;sketch=1;hachureGap=4;jiggle=2;curveFitting=1;fontFamily=Architects Daughter;fontSource=https%3A%2F%2Ffonts.googleapis.com%2Fcss%3Ffamily%3DArchitects%2BDaughter;fontSize=20;" vertex="1" parent="31">
                    <mxGeometry x="80" width="NaN" height="45" as="geometry">
                        <mxRectangle width="NaN" height="45" as="alternateBounds"/>
                    </mxGeometry>
                </mxCell>
                <mxCell id="33" value="" style="shape=tableRow;horizontal=0;swimlaneHead=0;swimlaneBody=0;top=0;left=0;bottom=0;right=0;dropTarget=0;fontStyle=0;fillColor=none;points=[[0,0.5],[1,0.5]];portConstraint=eastwest;startSize=80;collapsible=0;recursiveResize=0;expand=0;sketch=1;hachureGap=4;jiggle=2;curveFitting=1;fontFamily=Architects Daughter;fontSource=https%3A%2F%2Ffonts.googleapis.com%2Fcss%3Ffamily%3DArchitects%2BDaughter;fontSize=20;" vertex="1" parent="28">
                    <mxGeometry y="45" width="80" height="45" as="geometry"/>
                </mxCell>
                <mxCell id="34" value="" style="swimlane;swimlaneHead=0;swimlaneBody=0;fontStyle=0;connectable=0;fillColor=none;startSize=0;collapsible=0;recursiveResize=0;expand=0;sketch=1;hachureGap=4;jiggle=2;curveFitting=1;fontFamily=Architects Daughter;fontSource=https%3A%2F%2Ffonts.googleapis.com%2Fcss%3Ffamily%3DArchitects%2BDaughter;fontSize=20;" vertex="1" parent="33">
                    <mxGeometry x="80" width="NaN" height="45" as="geometry">
                        <mxRectangle width="NaN" height="45" as="alternateBounds"/>
                    </mxGeometry>
                </mxCell>
                <mxCell id="36" value="" style="edgeStyle=none;orthogonalLoop=1;jettySize=auto;html=1;sketch=1;hachureGap=4;jiggle=2;curveFitting=1;fontFamily=Architects Daughter;fontSource=https%3A%2F%2Ffonts.googleapis.com%2Fcss%3Ffamily%3DArchitects%2BDaughter;fontSize=16;entryX=0.938;entryY=0.978;entryDx=0;entryDy=0;entryPerimeter=0;" edge="1" parent="1" target="31">
                    <mxGeometry width="100" relative="1" as="geometry">
                        <mxPoint x="180" y="544.5" as="sourcePoint"/>
                        <mxPoint x="280" y="544.5" as="targetPoint"/>
                        <Array as="points"/>
                    </mxGeometry>
                </mxCell>
                <mxCell id="37" value="Call Stack" style="text;html=1;align=center;verticalAlign=middle;resizable=0;points=[];autosize=1;strokeColor=none;fillColor=none;fontSize=20;fontFamily=Architects Daughter;sketch=1;hachureGap=4;jiggle=2;curveFitting=1;fontSource=https%3A%2F%2Ffonts.googleapis.com%2Fcss%3Ffamily%3DArchitects%2BDaughter;" vertex="1" parent="1">
                    <mxGeometry x="160" y="600" width="120" height="40" as="geometry"/>
                </mxCell>
                <mxCell id="38" value="" style="whiteSpace=wrap;html=1;sketch=1;hachureGap=4;jiggle=2;curveFitting=1;fontFamily=Architects Daughter;fontSource=https%3A%2F%2Ffonts.googleapis.com%2Fcss%3Ffamily%3DArchitects%2BDaughter;fontSize=20;fillColor=#151d1e;" vertex="1" parent="1">
                    <mxGeometry x="470" y="500" width="140" height="90" as="geometry"/>
                </mxCell>
                <mxCell id="39" value="Heap" style="text;html=1;align=center;verticalAlign=middle;resizable=0;points=[];autosize=1;strokeColor=none;fillColor=none;fontSize=20;fontFamily=Architects Daughter;sketch=1;hachureGap=4;jiggle=2;curveFitting=1;fontSource=https%3A%2F%2Ffonts.googleapis.com%2Fcss%3Ffamily%3DArchitects%2BDaughter;" vertex="1" parent="1">
                    <mxGeometry x="505" y="600" width="70" height="40" as="geometry"/>
                </mxCell>
                <mxCell id="41" value="each operation wait for last one to complete before executing" style="shape=note;whiteSpace=wrap;html=1;backgroundOutline=1;fontColor=#000000;darkOpacity=0.05;fillColor=#FFF9B2;strokeColor=none;fillStyle=solid;direction=west;gradientDirection=north;gradientColor=#FFF2A1;shadow=1;size=20;pointerEvents=1;sketch=1;hachureGap=4;jiggle=2;curveFitting=1;fontFamily=Architects Daughter;fontSource=https%3A%2F%2Ffonts.googleapis.com%2Fcss%3Ffamily%3DArchitects%2BDaughter;fontSize=20;" vertex="1" parent="1">
                    <mxGeometry x="425" y="370" width="280" height="80" as="geometry"/>
                </mxCell>
                <mxCell id="42" value="&lt;font style=&quot;font-size: 15px;&quot;&gt;JavaScript is a single-threaded language, which means it can only do one thing at a time.&amp;nbsp;&lt;/font&gt;" style="shape=note;whiteSpace=wrap;html=1;backgroundOutline=1;fontColor=#000000;darkOpacity=0.05;fillColor=#FFF9B2;strokeColor=none;fillStyle=solid;direction=west;gradientDirection=north;gradientColor=#FFF2A1;shadow=1;size=20;pointerEvents=1;sketch=1;hachureGap=4;jiggle=2;curveFitting=1;fontFamily=Architects Daughter;fontSource=https%3A%2F%2Ffonts.googleapis.com%2Fcss%3Ffamily%3DArchitects%2BDaughter;fontSize=20;" vertex="1" parent="1">
                    <mxGeometry x="560" y="100" width="240" height="90" as="geometry"/>
                </mxCell>
                <mxCell id="43" value="" style="edgeStyle=none;orthogonalLoop=1;jettySize=auto;html=1;sketch=1;hachureGap=4;jiggle=2;curveFitting=1;fontFamily=Architects Daughter;fontSource=https%3A%2F%2Ffonts.googleapis.com%2Fcss%3Ffamily%3DArchitects%2BDaughter;fontSize=16;shape=link;width=14;" edge="1" parent="1">
                    <mxGeometry width="80" relative="1" as="geometry">
                        <mxPoint x="50" y="670" as="sourcePoint"/>
                        <mxPoint x="805" y="670" as="targetPoint"/>
                        <Array as="points"/>
                    </mxGeometry>
                </mxCell>
                <mxCell id="44" value="SYnchronous" style="text;html=1;align=center;verticalAlign=middle;resizable=0;points=[];autosize=1;strokeColor=none;fillColor=none;fontSize=20;fontFamily=Architects Daughter;sketch=1;hachureGap=4;jiggle=2;curveFitting=1;fontSource=https%3A%2F%2Ffonts.googleapis.com%2Fcss%3Ffamily%3DArchitects%2BDaughter;" vertex="1" parent="1">
                    <mxGeometry x="180" y="725" width="140" height="40" as="geometry"/>
                </mxCell>
                <mxCell id="45" value="ASYnchronous" style="text;html=1;align=center;verticalAlign=middle;resizable=0;points=[];autosize=1;strokeColor=none;fillColor=none;fontSize=20;fontFamily=Architects Daughter;sketch=1;hachureGap=4;jiggle=2;curveFitting=1;fontSource=https%3A%2F%2Ffonts.googleapis.com%2Fcss%3Ffamily%3DArchitects%2BDaughter;" vertex="1" parent="1">
                    <mxGeometry x="410" y="725" width="160" height="40" as="geometry"/>
                </mxCell>
                <mxCell id="46" value="VS" style="text;html=1;align=center;verticalAlign=middle;resizable=0;points=[];autosize=1;strokeColor=#B20000;fillColor=#e51400;fontSize=15;fontFamily=Architects Daughter;sketch=1;hachureGap=4;jiggle=2;curveFitting=1;fontSource=https%3A%2F%2Ffonts.googleapis.com%2Fcss%3Ffamily%3DArchitects%2BDaughter;fontColor=#ffffff;" vertex="1" parent="1">
                    <mxGeometry x="345" y="725" width="40" height="30" as="geometry"/>
                </mxCell>
                <mxCell id="47" value="Block the flow of program" style="text;html=1;align=center;verticalAlign=middle;resizable=0;points=[];autosize=1;strokeColor=none;fillColor=none;fontSize=20;fontFamily=Architects Daughter;sketch=1;hachureGap=4;jiggle=2;curveFitting=1;fontSource=https%3A%2F%2Ffonts.googleapis.com%2Fcss%3Ffamily%3DArchitects%2BDaughter;" vertex="1" parent="1">
                    <mxGeometry x="45" y="790" width="280" height="40" as="geometry"/>
                </mxCell>
                <mxCell id="48" value="allows the flow of program" style="text;html=1;align=center;verticalAlign=middle;resizable=0;points=[];autosize=1;strokeColor=none;fillColor=none;fontSize=20;fontFamily=Architects Daughter;sketch=1;hachureGap=4;jiggle=2;curveFitting=1;fontSource=https%3A%2F%2Ffonts.googleapis.com%2Fcss%3Ffamily%3DArchitects%2BDaughter;" vertex="1" parent="1">
                    <mxGeometry x="420" y="790" width="280" height="40" as="geometry"/>
                </mxCell>
                <mxCell id="49" value="Read file sync" style="text;html=1;align=center;verticalAlign=middle;resizable=0;points=[];autosize=1;strokeColor=none;fillColor=none;fontSize=20;fontFamily=Architects Daughter;sketch=1;hachureGap=4;jiggle=2;curveFitting=1;fontSource=https%3A%2F%2Ffonts.googleapis.com%2Fcss%3Ffamily%3DArchitects%2BDaughter;" vertex="1" parent="1">
                    <mxGeometry x="155" y="860" width="160" height="40" as="geometry"/>
                </mxCell>
                <mxCell id="50" value="Read file Async" style="text;html=1;align=center;verticalAlign=middle;resizable=0;points=[];autosize=1;strokeColor=none;fillColor=none;fontSize=20;fontFamily=Architects Daughter;sketch=1;hachureGap=4;jiggle=2;curveFitting=1;fontSource=https%3A%2F%2Ffonts.googleapis.com%2Fcss%3Ffamily%3DArchitects%2BDaughter;" vertex="1" parent="1">
                    <mxGeometry x="420" y="860" width="170" height="40" as="geometry"/>
                </mxCell>
                <mxCell id="51" value="" style="edgeStyle=none;orthogonalLoop=1;jettySize=auto;html=1;sketch=1;hachureGap=4;jiggle=2;curveFitting=1;fontFamily=Architects Daughter;fontSource=https%3A%2F%2Ffonts.googleapis.com%2Fcss%3Ffamily%3DArchitects%2BDaughter;fontSize=15;" edge="1" parent="1">
                    <mxGeometry width="100" relative="1" as="geometry">
                        <mxPoint x="279" y="765" as="sourcePoint"/>
                        <mxPoint x="279" y="800" as="targetPoint"/>
                        <Array as="points"/>
                    </mxGeometry>
                </mxCell>
                <mxCell id="52" value="" style="edgeStyle=none;orthogonalLoop=1;jettySize=auto;html=1;sketch=1;hachureGap=4;jiggle=2;curveFitting=1;fontFamily=Architects Daughter;fontSource=https%3A%2F%2Ffonts.googleapis.com%2Fcss%3Ffamily%3DArchitects%2BDaughter;fontSize=15;" edge="1" parent="1">
                    <mxGeometry width="100" relative="1" as="geometry">
                        <mxPoint x="280" y="830" as="sourcePoint"/>
                        <mxPoint x="280" y="865" as="targetPoint"/>
                        <Array as="points"/>
                    </mxGeometry>
                </mxCell>
                <mxCell id="54" value="" style="edgeStyle=none;orthogonalLoop=1;jettySize=auto;html=1;sketch=1;hachureGap=4;jiggle=2;curveFitting=1;fontFamily=Architects Daughter;fontSource=https%3A%2F%2Ffonts.googleapis.com%2Fcss%3Ffamily%3DArchitects%2BDaughter;fontSize=15;" edge="1" parent="1">
                    <mxGeometry width="100" relative="1" as="geometry">
                        <mxPoint x="460" y="765" as="sourcePoint"/>
                        <mxPoint x="460" y="800" as="targetPoint"/>
                        <Array as="points"/>
                    </mxGeometry>
                </mxCell>
                <mxCell id="55" value="" style="edgeStyle=none;orthogonalLoop=1;jettySize=auto;html=1;sketch=1;hachureGap=4;jiggle=2;curveFitting=1;fontFamily=Architects Daughter;fontSource=https%3A%2F%2Ffonts.googleapis.com%2Fcss%3Ffamily%3DArchitects%2BDaughter;fontSize=15;" edge="1" parent="1">
                    <mxGeometry width="100" relative="1" as="geometry">
                        <mxPoint x="460" y="825" as="sourcePoint"/>
                        <mxPoint x="460" y="860" as="targetPoint"/>
                        <Array as="points"/>
                    </mxGeometry>
                </mxCell>
                <mxCell id="56" value="" style="shape=image;imageAspect=0;aspect=fixed;verticalLabelPosition=bottom;verticalAlign=top;sketch=1;hachureGap=4;jiggle=2;curveFitting=1;fontFamily=Architects Daughter;fontSource=https%3A%2F%2Ffonts.googleapis.com%2Fcss%3Ffamily%3DArchitects%2BDaughter;fontSize=15;fillColor=#151d1e;image=data:image/jpeg,/9j/4AAQSkZJRgABAQEAYABgAAD/2wBDAAMCAgMCAgMDAwMEAwMEBQgFBQQEBQoHBwYIDAoMDAsKCwsNDhIQDQ4RDgsLEBYQERMUFRUVDA8XGBYUGBIUFRT/2wBDAQMEBAUEBQkFBQkUDQsNFBQUFBQUFBQUFBQUFBQUFBQUFBQUFBQUFBQUFBQUFBQUFBQUFBQUFBQUFBQUFBQUFBT/wAARCAIbA1EDASIAAhEBAxEB/8QAHwAAAQUBAQEBAQEAAAAAAAAAAAECAwQFBgcICQoL/8QAtRAAAgEDAwIEAwUFBAQAAAF9AQIDAAQRBRIhMUEGE1FhByJxFDKBkaEII0KxwRVS0fAkM2JyggkKFhcYGRolJicoKSo0NTY3ODk6Q0RFRkdISUpTVFVWV1hZWmNkZWZnaGlqc3R1dnd4eXqDhIWGh4iJipKTlJWWl5iZmqKjpKWmp6ipqrKztLW2t7i5usLDxMXGx8jJytLT1NXW19jZ2uHi4+Tl5ufo6erx8vP09fb3+Pn6/8QAHwEAAwEBAQEBAQEBAQAAAAAAAAECAwQFBgcICQoL/8QAtREAAgECBAQDBAcFBAQAAQJ3AAECAxEEBSExBhJBUQdhcRMiMoEIFEKRobHBCSMzUvAVYnLRChYkNOEl8RcYGRomJygpKjU2Nzg5OkNERUZHSElKU1RVVldYWVpjZGVmZ2hpanN0dXZ3eHl6goOEhYaHiImKkpOUlZaXmJmaoqOkpaanqKmqsrO0tba3uLm6wsPExcbHyMnK0tPU1dbX2Nna4uPk5ebn6Onq8vP09fb3+Pn6/9oADAMBAAIRAxEAPwD4/oooqywooooAKKKKACiiigAooooAKKKKACiiigAooooAKKKKACiiigAooooAKKKKACiiigAooooAKKKKACiiigAooooAKKKKACiiigAooooAKKKKACiiigAooooAKKKKACiiigAooooAKKKKACiiigAooooAKKKKACiiigAooooAKKKKACiiigAooooAKKKKACiiigAooooAKKKKACiiigAooooAKKKKACiiigAooooAKKKKACiiigAooooAKKKKACiiigAooooAKKKKACiiigAooooAKKKKACiiigAooooAKKKKACiiigAooooAKKKKACiiigAooooAKKKKACiiigAooooAKKKKACiiigAooooAKKKKACiiigAooooAKKKKACiiigAooooAKKKKACiiigAooooAKKKKACiiigAooooAKKKKACiiigAooooAKKKKACiiigAooooAKKKKACiiigAooooAKKKKACiiigAooooAKKKKACiiigAooooAKKKKACiiigAooooAKKKKACiiigAooooAKKKKACiiigAooooAKKKKACiiigAooooAKKKKACiiigAooooAKKKKACiiigAooooAKKKKACiiigAooooAKKTIpaACiiigAooooAKKKKACiiigAooooAKKKKACiiigAooooAKKKKACiiigAooooAKKKKACiiigAooooAKKKKACiiigAooooAKKKKACiiigAooooAKKKKACiiigAooooAKKKsafYy6pqVnYwFRPdzx20Zk+6Hdgqk+2TSbUVdi8yvRVrVtNl0XWNQ024aN7ixuJLWVoTlC6MVJU9xkUkem3cul3WpJbu2nWsscE1yMbUkcEop9yAaz9rBxU76MzVSDipp6MrUUqqWZVVSzsQqqBkkk4A/Opb6zuNNvrmxvIHtb21kMU8Egw0bjqp9xmr5le19TS6TtfUhoorU8M+GdS8X6xFpmlWrXNy/Lt0jgTvJI38KDuamc404uc3ZImc404uc3ZIy6K0PE2g3nhDXL3SNQ8qS5tthEtqxeKdXAKPGepVgeO9bnij4Zar4S0SXUbq8sLiS1eGPUdPt3ZrjTmmGYhLxg56fLnB4rmeNw6UJc6tPbzOZ4ygowlzq09vM5OipobO6uIzJFZXcsX/PSO3dl+uQMVArBlyOldSnGTai72OmMoy0i7i0UUVZYUUUUAFFFFABRRRQAUUUUAFFFFABRRRQAUUUUAFFFFABRRRQAUUUUAFFFFABRRRQAUUUUAFFFFABRRRQAUVa32X/PK4/7+L/hRvsv+eVx/38X/AAoAq0Va32X/ADyuP+/i/wCFG+y/55XH/fxf8KAKtFWt9l/zyuP+/i/4Ub7L/nlcf9/F/wAKAKtFWt9l/wA8rj/v4v8AhRvsv+eVx/38X/CgCrRVrfZf88rj/v4v+FG+y/55XH/fxf8ACgCrRVrfZf8APK4/7+L/AIUb7L/nlcf9/F/woAq0Va32X/PK4/7+L/hRvsv+eVx/38X/AAoAq0qjdVnfZf8APK4/7+L/AIVJH9kIO2G4B/vGRePfpWFWp7KLkehgMJLG4iFCPVlNomX1pvpXvP7RXhDQvBlv8PrC2sre11L/AIRi1fVoLN18wXZ3FjNjOHIIPrgivEWNjuOIJ/8Avsf4VzYXEOunzLY9nO8qhlrg6bbUl1+4qUVZ32P/ADxn/wC+x/hS7rE/8sZ/++x/hXefLFWire6y/wCeE/8A32v+FBksl6wz/wDfY/woAqUV3PhP4U67400tdU0zSHTTJJDFFeX19DaxTOONsZfG859K5/xBozeFdcvdH1awurPUrN/KngaVTtbAPUDBGCDketclPGYerVdCE05rpfUpwklzNaGNRVnzrH/njcf9/F/wo86x/wCeNx/38X/CuwkrUVY86x/543H/AH8X/CjzrH/njcf9/F/woAr0VZ8yy/543H/fa/4UeZZ/88bj/vtf8KAK1FWfMs/+eNx/32v+FHmWf/PG4/77X/CgCtRVnzLP/njcf99r/hR5ln/zxuP++1/woArUVZ8yz/543H/fa/4UeZZ/88bj/vtf8KAK1FWfMs/+eNx/32v+FHmWf/PG4/77X/CgCtRVnzLP/njcf99r/hR5ln/zxuP++1/woArUVZ8yz/543H/fa/4UeZZ/88bj/vtf8KAK1FWfMs/+eNx/32v+FHmWf/PG4/77X/CgCtRVnzLP/njcf99r/hR5ln/zxuP++1/woArUVZ8yz/543H/fa/4UeZZ/88bj/vtf8KAK1FWfMs/+eNx/32v+FHmWf/PG4/77X/CgCtRVnzLP/njcf99r/hR5ln/zxuP++1/woArUVZ8yz/543H/fa/4UeZZ/88bj/vtf8KAK1FWfMs/+eNx/32v+FHmWf/PG4/77X/CgCtRVnzLP/njcf99r/hR5ln/zxuP++1/woArUVZ8yz/543H/fa/4UeZZ/88bj/vtf8KAK1FWfMs/+eNx/32v+FHmWf/PG4/77X/CgCtRVnzLP/njcf99r/hSeZZ/88bj/AL7X/CgCvXT/AAtsP7W+KHhG0IzG2pxSyeyxkyE/T5KwPMs/+eFz/wB9r/hXd/BO70W1+I1rPfXR0mJLK8IvLqVRHGxhK+nXDEj3FcOOk6eGqSXZnHiqjp4epJdEzhtSvZta1TVNZaOQQ3+oXEgmKnZuaRm2humQD0rsL3S77/hWvgnw1pttLd6n4k1C41t7eBfnkSM+Vb/hgM2TwK6+1/sb4qfDufwzpLx6BoPh7VbeSKS6mWORbLy3Et4+fvMzFjtHOSoq54S8WS6pe+MfFXg3RZtQ1PTLey0XRNMaMSPDp+WBkVOuTtyfrzXyE8wqSoRh7Kzp2dn6e7d9LvXyPlZY6cqEYqnZws7P/wAlv6s4D4f+B728+M2j+GtTtpLa6s70XF9b7gWRIgJSMg45+QZ/2hWX8RNM1jTfHOrya9AsGo6jO+pZjkEiMkjsVww4OMbfbbXrngzw5e+FZfF2sJqa6v8AE2805o5dKkuolktpJmGCXJC+YFAJUcKABXm/xM/s+x1bw7pTTteXuj6HBZXskNwros5d3ZNwGGYbuSK3wmPq4rM4bWUbP13bXl0v1NcLjquJzKK0so2fru2vLzOJPFeueBPBWuxfB/xBqWki3gv/ABNts/PurpbZbfTUYiSTcxwPMc7RXlU32KSF0CzqWGMiVeP0re8XeLLTxre2P2i1uNN0yzsYNMhsbW4DpHCmMnBADEn5sHuBXvZpQr4mEKNGyTd23roulvM9rMaNbERjRpWs3dt66LpbzPTbHwZ9o+KnwastTNvLLHoym7a3mE0U32RpDHhxww4X8qxPifrWpW2i+NB4nlt18Q+LLq3jtNJjKmWzsYJWdZJtv3WYEAA/Mck1W0X4maDp/wAStH1WK1vNN8O6FpkumabEcO6x+U4V2Ufxu7ZPOBXnOn/2Y1xA18L5UkkVrq4VlklAJ+dwCPmIGeM187hsur1K8ZV9IxXb+9ey7Hh0MvrTrRlW0jFdvO9l2PSbz4meKrH4MaKY9evIp9S1ae0WSEiMxWltCqiJQBwCTknqe9eWRxiNQq9BwK9V1uT4X3nhnw5okfi/Wng0t7mdZ10di7mZgWDDgAjFed3baSl7cJZ/bbizVyIZp9qPInZmUD5T7Zr1splScqrjTcZOTfwtadD08slTvUag4ycm9radChRVrzLL/njP/wB/F/wo82y/54z/APfxf8K+lsfQFWirPm2X/PGf/v4v+FHm2X/PGf8A7+L/AIUhFairXm2X/PGf/v4v+FHm2X/PGf8A7+L/AIU7DKtFWfNsv+eM/wD38X/CjzbL/njP/wB/F/wpCK1FWvNsv+eM/wD38X/CjzbL/njP/wB/F/wp2GVaKs+bZf8APGf/AL+L/hR5tl/zxn/7+L/hSEVqKtebZf8APGf/AL+L/hR5tl/zxn/7+L/hTsMq0VZ82y/54z/9/F/wo82y/wCeM/8A38X/AApCK1FWvNsv+eM//fxf8KPNsv8AnjP/AN/F/wAKdhlWirPm2X/PGf8A7+L/AIUebZf88Z/+/i/4UhFairXm2X/PGf8A7+L/AIUebZf88Z/+/i/4U7DKtFWvNsv+eM//AH8X/CjzbL/njP8A9/F/wpCKtFWvMsv+eM//AH8X/CjzLL/njP8A9/F/woGVaKtb7L/nlcf99r/hRvsv+eVx/wB9r/hQBVoq1vsv+eVx/wB9r/hRvsv+eVx/32v+FAFWirW+y/55XH/fa/4UUAVaKKKACiiigAooooAKKKKBXCiiinYYUUmRRkUWAWikyKMiiwDlr0f4C+C4/HXxU8PaZcYXTxcfar6Rvupbwgyyk89NqEfjXnUYDHFe5fCFP+EP+D/xP8XbvKu5raHw3YSHtJcnfMfr5Sccd/evIx0uVJH3nC+FdSrKsumi9W7I5fxV4/0TxR8SPEvibxJo93r1tqVw8tvb2979l8sbsIGYLllEYVQOOlbH2z4bf8Kxu/FcPw18y6g1qPSRZ3WtXDIQ0Jl8wsv0xjFcV4N8VaH4V1K+vNa8Mw+Kc23k2tncylIEcuC7tjknYGC46Eg12viS08Iab8EfEq+GfEEN7Y6jrtjfWWk3LYv7JlRllikX+IKMYccECvksZTUZU1JTXNKOqb5Xd6rTZ+ZWf4r6xipRTTUVZLtY5Xwl4d0n4geK9W1S5s08KeDtJtf7Q1SGxkaTyYlwqxRs5JLytwM+pNYXje58NXmsW9x4TsrzTNOltUaexvZTK1vcZIdVc8uuApz6k12HwltPE7aRq+nWvw5uvGvhvxAYhPl5LWPfAxKsLlSAoUk5ycVkfGLQvDnh7xVaWXhzy4itkjanZwXpvIbS7JO6KOc/fAGMnsa9ilVUczWH5pNJe6k7rbXm1vf1Pi2v3N0tev8AwDiMnHWtPwvDpNz4p0aHX7lrPQZLyFdQnBxsg3DefYY4J9DWZXrHwS8O6ZeaVretD+w9R8V2M8cWlaV4gvUt7ZFYZa6ZWOJSpOFU8Z5NezmGJjhMLOrL0+/QypQdSaidH8QJvF/gfXtS8Za14Vs9Q04Kln4Q1CNo7jSdJiLfu2iiBwzlANpYfeyea8V1hdd1Rn8Q6tDqFwNSmMjardQsEuJD1IkxtJ44APbivSfGXhvU9Su4bv4h/ErRrqQ3EIGl2l812xQyLvVViHlxKF3c9sV2XjDx9D46174w2lvfxz/DrTfDvl6fCj/uIpYjGttJAvZmkLDI6ivh8Dip4RRnCEZytrJXSUb7Jvdu9/M7qkFUbV7LseTab8Jdb1TwNP4pFxY2tosEt1BZXE+26vIIiBLLEndVJxkkZ5xXO6PPpk+n6nYzWVxe63efZ49KeGTAhkMmH3rn5twIUDsa+jtZttXX9m/WbXxi/hrTL2x0uysbO2hiYXsR3CSOOZxkLI6AkRrxzluteSNqOnaR8NvhdcK0H25PEtzqt6FAM0cMcsSqr9wNoLAHr2r0cLm9fFKspRvaXKuXppff8yalCMOWz3VzmvG/gXXvhzq0emeI9ObT7yWJZ4lDCRZEJx8rLkEhvlI6g1Y8Q/DHxd4R0K21rW/Dt7pWlXTiOG5ulVQzEZA253AkAnkCvcPCvxI8KeNviHewahcrcX2n+Ib/AFXwjc3yFLeYTRMUhlZvuAShWUN1JFcF4x8J/GL4hahfah43ttQtIbGN55rnWZFttPt8DlYudpJ6DbknNVRzjGe1hRxCjTtrJyurp7cq79yZUKfK5Rbfb/gnktFJG4ZFIBGRnBp3HpX2y1V0cAlFLx6UcelMBKKXj0o49KAEopePSjj0oASil49KOPSgBKKXj0o49KAEopePSjj0oASiiikAUUUUwCiiigAooooAKKKKACiiigAooooAKKKKACiiigAooooAK7DwTpOgzeGvGGt67p9zqkejQ2rQ21vdm3LNLKUOWAPtXH12Xhn/AJJV8T/+uOmf+lJrzswbWGlyu223qcGPbjhpuLs9PzK58QeBz/zTzUv/AAom/wDiKQ694HPB+HmpEeh8Rv8A/EVy+4+tG41l/ZtP+ef/AIEzJYCnb45f+BM6eTXPAsrAt8OtRYjp/wAVE3/xFSxeJvBtvN5sPgPWIJcbd8PiaRGx6ZCVye4+tS2drd6lci3srS6v7jGfKtIWlYD1IUHArOeW0Em5zlbr7zFPAULPnlK3+Jm+2reAnOW+HOos2S25vETE5PU52VJHrvgaJQifDvUkUdAviJgP/QK5y9t7nTbr7Le21xYXONwhu4Wicj1AYDI96i3GinluHkuaE5fKTFHA0GrwnL5SZ1P/AAkHgj/on2qf+FG//wARR/wkHgj/AKJ7qf8A4Ub/APxFctuNNWdXztcHBwcGtP7Op/zz/wDAmUsDTT+OX/gTOr/4SDwOP+ae6l/4Ub//ABFH/CQeCP8Aonup/wDhRv8A/EVyiyCRcqwYdMg5p2TR/Z1P+ef/AIEx/UKf88v/AAJnVf8ACQ+CP+ie6n/4Ub//ABFJ/wAJB4H/AOieal/4UTf/ABFco8yxjLHHOB7nsB71oX2h6rpd7a2d5pN9aXl4Fa2tp4Ckk4Y4XYp5OTgVDwNCL5XVkm/7zIeDop2lUlf/ABM2/wDhIvBH/RPtS/8ACif/AOIo/wCEi8Ef9E+1L/won/8AiKyvE/hfV/BeoJYa3ZNp91JEJ0VpFcMmSCQykg4III7GslZFk+66sfQMCaKeEoVYqcKsmn/eYoYShUjzwqSa/wATOs/4SLwP/wBE+1P/AMKJv/iKX/hIvA//AET7U/8Awom/+IrlN1GTWn9nU/55/wDgTNPqFP8Anl/4Ezqf+Ei8Ef8ARPtS/wDCif8A+Io/4SLwR/0T7Uv/AAon/wDiK5XJozVf2fT/AJ5/+BMPqFP+eX/gTOr/AOEi8D/9E+1P/wAKJv8A4il/4SLwP/0T7U//AAom/wDiK5TJoyan+zqf88//AAJh9Qp/zy/8CZ1P/CReCP8Aon2pf+FE/wD8RR/wkXgj/on2pf8AhRP/APEVyuTRmq/s+n/PP/wJh9Qp/wA8v/AmdX/wkXgf/on2p/8AhRN/8RS/8JF4H/6J9qf/AIUTf/EVymTRk1P9nU/55/8AgTD6hT/nl/4Ezqf+Ei8Ef9E+1L/won/+Io/4SLwR/wBE+1L/AMKJ/wD4iuVyaM1X9n0/55/+BMPqFP8Anl/4Ezq/+Ei8D/8ARPtT/wDCib/4il/4SLwP/wBE+1P/AMKJv/iK5TJoyan+zqf88/8AwJh9Qp/zy/8AAmdT/wAJF4I/6J9qX/hRP/8AEUf8JF4I/wCifal/4UT/APxFcrk0Zqv7Pp/zz/8AAmH1Cn/PL/wJnV/8JF4H/wCifan/AOFE3/xFL/wkXgf/AKJ9qf8A4UTf/EVymTRk1P8AZ1P+ef8A4Ew+oU/55f8AgTOp/wCEi8Ef9E+1L/won/8AiKP+Ei8Ef9E+1L/won/+IrlcmjNV/Z9P+ef/AIEw+oU/55f+BM6n/hIvBH/RPtT/APCif/4imyeJfA8cbOfh9qeFGePETf8AxFcxUd1/x6zf7h/lU/2dT/5+T/8AAmH9n0/55f8AgTOq+JWhaf4c8XLa6TDNbafPp9pepBcTGVozLHuK7z15rma7X4w/8jpY/wDYC03/ANECuKqstlKWFi5O7139Qy2UpYWLk7vXf1CiiivTPTCiiigAooooAKKn+wXX/PrN/wB8Gj7Bdf8APrN/3waAIKKn+wXX/PrN/wB8Gj7Bdf8APrN/3waAIKKn+wXX/PrN/wB8Gj7Bdf8APrN/3waAOp+H3g3R/E9j4p1LXtXvNH0vQLOG7lksbZZ5ZPMl8sKFYjuavHRfhRz/AMVf4ux/2A4v/i6l8Bafdf8ACtfi8v2aXL6NZBRsPJ+2KcVwp066yf8ARpf+/Z/wr5xUa2MxVZe2lFRaSSt29DovGEY+7e52v9j/AAo/6HDxb/4JIf8A4uj+x/hR/wBDh4t/8EkP/wAXXE/Ybv8A59Zv++DR9hu/+fWb/vg1t/ZtX/oJn+H+RHtF/KjuP7F+E/8A0OHi3/wRxf8AxdH9ifCb/ob/ABb/AOCOL/4uuH+xXX/PrP8A9+z/AIUfYrr/AJ9Z/wDv2f8ACl/ZtX/oJn+H+RXtF/KjuP7E+E3/AEN/i3/wRxf/ABdH9i/Cb/ocPFv/AII4v/i64f7Fdf8APrP/AN+z/hR9iuv+fWf/AL9n/Cj+zav/AEEz/D/IXtF/Kjt20r4WRrmDxZ4qlk7LJo0Sj899eo3UOiW/7LOhobi7h0m88a3LS3iW6mYqlrtRmXPBwRxmvnhLO7Df8es3/fs17T8JviNo2k+C9b8H+N/Dt9rvh27f7fZLbZSWzvghQSKcj5WU4YV5+JwVWmm3VlK6trbT7kfpvCeKp/Akrpp27/e+l7/I5KbRPhbvPm+K/FUZ7hNGjP8A7PUX9h/CZW3Dxd4sz0z/AGHFn/0OuSvrO58z5baYj/rmf8KqfYrv/n1n/wC/Z/wrqoZfVlTTWImvu/yPkM6lCGNqRST13PQ0X4cRae9hH8QfHUVi/LWsemqsRz1ygkx+lVF0T4TIoVfF3iwL6DQ4R/7PXD/Yrr/n1n/79n/Cj7Fdf8+s/wD37P8AhWkcplCTlHESTf8Ah/yPC9r3ivxO5/sb4Tf9Dh4t/wDBHF/8XTJNA+EcwxJ4s8VuPRtChP8A7PXE/Y7v/n1n/wC/Z/wo+x3f/PrP/wB+z/hWjy2q9HiZ/h/kP2sf5Edsmg/CSJdqeLfFiL6LocIH/odO/sT4TqVK+MPFwIZW40SLqDkfx1w/2K6/59Z/+/Z/wo+xXf8Az6z/APfs/wCFS8rqOPK8RO3y/wAg9rH+VHv/AMVviV8KviRYrapq3iTSEm1BtWvGt9KWQ3NyYliUnc/AVV4A/vGvNf7F+Ew5/wCEv8XA9z/YcP8A8XXFGyuj/wAus/8A37P+FJ9huv8An1n/AO/Zrlw2RrB0/Z0MRNL5f5FVMR7R80oo7ZtE+EsilW8XeLWU9QdDh/8Ai6nuLP4Y3dukFx488cXNvGcpDNpiui+mFMhArg/sN1/z6z/9+z/hR9iuv+fWf/v2f8K6J5TKo054iTt/h/yEq0V9lHbf2P8ACb/ocPFw/wC4HD/8XR/Y/wAJ/wDocPF3/gjh/wDi64j7Ddf8+s//AH7NH2G6/wCfWf8A79mtP7Nrf9BU/wAP8iPaR/kR2/8AY/wn/wChw8Xf+COH/wCLo/sf4T/9Dh4u/wDBHD/8XXEfYbr/AJ9Z/wDv2aX+z7r/AJ9Z/wDv2aP7Nrf9BU/w/wAg9pH+RHbf2P8ACf8A6HDxb/4I4f8A4uj+x/hP/wBDh4u/8EcP/wAXXEf2fdf8+03/AH7NH9n3X/PtN/37NH9m1v8AoKn+H+Qe0j/Ijt/7H+E//Q4eLf8AwRxf/F0f2P8ACf8A6HDxb/4I4v8A4uuI/s+6/wCfab/v2aP7Puv+fab/AL9mj+za3/QVP8P8g9pH+RHb/wBj/Cf/AKHDxb/4I4v/AIuj+x/hP/0OHi3/AMEcX/xdcR/Z91/z7Tf9+zR/Z91/z7Tf9+zR/Ztb/oKn+H+Qe0j/ACI7f+x/hP8A9Dh4t/8ABHF/8XR/Y/wn/wChw8W/+COL/wCLriP7Puv+fab/AL9mj+z7r/n2m/79mj+za3/QVP8AD/IPaR/kR2/9j/Cf/ocPFv8A4I4v/i6P7H+E/wD0OHi3/wAEcX/xdcR/Z91/z7Tf9+zR/Z91/wA+03/fs0f2bW/6Cp/h/kHtI/yI7j+x/hR/0N/iz/wRxf8AxdA0f4UN08X+LP8AwSRf/F1xH9n3X/PtN/37NKtjdKw/0ab/AL9n/Cn/AGbV/wCgmf4f5B7SP8iOq+IHg3RPDmj+FtY8Paze6xpmvRXLo2oWqwSxtDKIyNqk9ST+VcZXonjLT7n/AIVD8J1+zy7li1bcNhyM3YIrg/7Puv8An2l/74Na5XKc8LepLmalJXe+jFWSU7JdivRVj+z7r/n2m/79mj+z7r/n2m/79mvWMivRVj+z7r/n2m/79mj+z7r/AJ9pv+/ZoAr0VY/s+6/59pv+/Zo/s+6/59pv+/ZoAr0VY/s+6/59pv8Av2aP7Puv+fab/v2aAK9FWP7Puv8An2m/79mj+z7r/n2m/wC/ZoAr0VY/s+6/59pv+/Zo/s+6/wCfab/v2aAK9FWP7Puv+fab/v2aP7Puv+fab/v2aAK9FWP7Puv+fab/AL9mj+z7r/n2m/79mgCvXZeGf+SVfE//AK46Z/6UmuV/s+6/59pv+/ZrsPDdjcr8K/iaDbygtFpgUbDyftJ6V5uYf7u/Vfmjz8w/3aXy/M4g9aSrB0+6/wCfab/v2f8ACj+z7r/n2m/79mvRO9bFevSfgvrUs19D4RhnvLEarrEOoXN7ZS+U32WCFzNCzAhsMFB49TXn39n3X/PtN/37NehfBXwprV14g1PUrbSbuVLfRtQjt5vLKxtcNEEWMMeN2HP4c15eaez+qTdXZa/M8zM1T+qzdTZajPBfjC4+J3iQeFdeZ9Q0HXbuVNP+0uZbjSZG3NC8MrfNtGAGUkggmsez8B6bp/h6y1Hxb4sg8Nz3xb7HaR2T3MjxK7IbiQKfkjLKcd8c1etNOX4Q6aY7Vxq3j57Y20c9opktdEVk2uwbGJLggkZHC5NW9c/4RDxYdD1HVtS1iAWOkW2nXOhW2mu087RKQwSc/IquSfm6jNfOqc6VpYS8aTsm0r3aW6XS+1zwlKVPllhbqm7JtK93bdL8LnPW/wAPbw/EnTfBd9NGZry7t4Tc2b7ke3lG8Sxn3jyRnpXZa9qXgf4katPb3d1aeD7bw9evbwyRrtTUtLQhSgI6zhlOD1Ieszwx4zNz8Y4PGOtWb6XZwxuIII4nkW3WO2aK2iGBk/wgn1Jrz/SLKe2ksJbrTZrqOK4juJrdgR5gDh2TOOM8jPvXfLD4nGOLqycZRhdNfzP8NjtnQxGKlH2knGUY3TX83/DHZfHBNOt/ilqFtpVhDplnBZ2iG1gUKqOY9xyB/FhlB+lcPWz4kvNQ8U+J9Z1uezmim1K7e6aPaTszwFzjnAAH4VmtYXe04tZs/wDXM17OX0ZYfC06VR3aWt9z1sDSnQw0KdR3aWtz1r4O+Dr/AEnwbrPxDttJl1fV40ez0CyiiMpMp+VrgrjseB/un1rf8PaH4iuNf8FXGqW11f8AibQvCl/qjRXg3TteyTOsKtnvlsj6VwHjDxleXfgbwV4W0GW+gtNL04G/MKvEXuiT8pIwSF5ORwd3etiPx9D/AGPrdqgvo5B4Li0a1uLiNxLcXgkLSc8nq3DE8ha+GxFDMa0p4txXvNpKzuorRffufG1qGPrTnipJatpLqktPxKWr6tD4Vj8E+HtU0TSfFmvWNhJb36X0rSpZzXF0HCnadruFY5Bzj1rI+MGrQXHjbV9EstI0nStN0S/ktbcafaLDI4AAO9h97nNUvhr/AGF4e8R2954m0PUtQsLdRLDHYgqyXCsGV2GRuHHTPXmrvjDxeniy41eaPwBpun3eoTvMdT2zPdgls7s52hiOvGOtetRws8Li6cVTc0lq1pG7fRX6HqUcLLDYqnBQcklq9o3flfocVRU40+6/59pv+/Z/wpf7Puv+fab/AL9mvsj6wr0VY/s+6/59pv8Av2aP7Puv+fab/v2aAK9FWP7Puv8An2m/79mj+z7r/n2m/wC/ZoAr0VY/s+6/59pv+/Zo/s+6/wCfab/v2aAK9FWP7Ou/+fab/v2aP7Puv+fab/vg0AV6Ksf2fdf8+03/AHwaP7Puv+fab/vg0AV6Kn/s+6/59pv++DR9guv+fab/AL4NAEFFT/YLr/n2m/74NH2C6/59pv8Avg0AQUVP/Z93/wA+03/fBo/s+7/59pv++DQBBRVj+z7r/n2m/wC+DR/Z91/z7Tf98GgCvUd1/wAes3+4f5Vb/s+7/wCfab/vg1Hdafd/ZZsWsxOw/wDLM+lAHY/GL/kdLD/sBab/AOiBXF13XxfsbmTxlY7beVsaFpoOEJwfIGRXG/2bd/8APrN/37P+FeVlf+6R+f5nlZX/ALrH1f5leirH9n3X/PtN/wB+zR/Z91/z7Tf9+zXqnqleirH9n3X/AD7Tf9+zR/Z91/z7Tf8Afs0AV6Ksf2fdf8+03/fs0UARedJ/z1k/77NHnSf89ZP++zTKKAH+dJ/z1k/77NHnSf8APWT/AL7NMooAf50n/PWT/vs0edJ/z1k/77NMooA77wHNJ/wrL4v/ALx+NGssfMeP9MWuE86T/nrJ/wB9mu48B/8AJMvjB/2BrL/0sWuErxsD/vWJ9V+RrU2h6D/Ok/56yf8AfZo86T/nrJ/32aZRXsmQ7zZP+ej/APfRo82T/no//fRptFADvNk/56P/AN9GjzZP+ej/APfRptFAD/Nk/wCej/8AfRpftEv/AD0f/vo1HRUtXNITlD4XYl86Q/8ALR/++jTfNk/56P8A99Gm5pKZMpOWrHebJ/z0f/vo0ebJ/wA9H/76NNopkjvNk/56P/30aPNk/wCej/8AfRptFADvNk/56P8A99GjzZP+ej/99Gm0UAO82T/no/8A30aPNk/56P8A99Gm0UAO82T/AJ6P/wB9GjzZP+ej/wDfRptFADvNk/56P/30aPNk/wCej/8AfRptFADvNk/56P8A99Gl86T/AJ6P/wB9GmUUAP8AOk/56P8A99GjzpP+ej/99GmUUAP86T/no/8A30aPOk/56P8A99GmUUAP86T/AJ6P/wB9GjzpP+ej/wDfRplFAD/Ok/56P/30aPOk/wCej/8AfRplFAD/ADpP+ej/APfRo86T/no//fRplFAD/Ok/56P/AN9GjzpP+ej/APfRplFAHoHjKeT/AIVD8JSZGyYdWydxyf8ASxXBedJ/z1k/77Ndz4y/5I/8JP8Arhq3/pWK4OvIyr/dv+3pfma1v4nyQ/z5f+ej/wDfRo8+X/no/wD30aZRXrmQ/wA+X/no/wD30aPPl/56P/30aZRQA/z5f+ej/wDfRo8+X/no/wD30aZRQA/z5f8Ano//AH0aPPl/56P/AN9GmUUAP8+X/no//fRo8+X/AJ6P/wB9GmUUAP8APl/56P8A99Gjz5f+ej/99GmUUAP8+X/no/8A30aPPl/56P8A99GmUUAP8+X/AJ6P/wB9Gjz5f+ej/wDfRplFAD/Pl/56P/30a7HwxNI3wt+J+ZHO2LTMZY8f6Sa4uux8L/8AJLfij/1x0v8A9KTXm5h/u79V+aPPzD/dpfL8zkfOl/56yf8AfZo86TvLIf8AgRplFeijvWw7zZP+ej/99GrCaxqcNjLYw6pfQWMx3SWsVy6xucYyVBwaq1NZ2dzqV1FaWVtNe3cpxHb20Zkkc+ygZrOpGE42qJW8yKkYSjaolbzIY8wqFRmVfQMRTvMcf8tH/wC+jT7yzudNvJbS8tp7K7i4kt7mIxyJ9VPNRU6fLJJw2HFpq8dh/nSf89H/AO+jR50n/PV/++jUasrZ2kHBwcUtaFjvNk/56P8A99GjzJP+ej/99Gni1nNmbsQyG1WUQm42HyxIRkJu6bsc461FUqSewk09h3mSf89H/wC+jS+dJ/z0f/vo0yimMd5j/wB9v++jR5r/AN9v++jTaKAHeY/99/8Avo0eY/8Aff8A76NCwyNDLMsUrww7fNkWMlY9xwu4gYXJ6Z602ldN2QrrYd5j/wB9/wDvo0eY/wDff/vo02iqGO8x/wC+/wD30aPMf++//fRptFADvMf++/8A30aPMf8Avv8A99Gm0UAP86T/AJ6P/wB9GjzpP+ej/wDfRplFAD/Ok/56P/30aPOk/wCej/8AfRplFADvMk/56P8A99GjzH/56P8A99Gm0UAO8x/+ej/99GjzH/56P/30abRQA/zpP+ej/wDfRo86T/no/wD30aZRQA/zpP8Ano//AH0aPOk/56P/AN9GmUUAP86T/no//fRqK6ml+yy/vZPuN/EfSnVFdf8AHrN/uH+RpAd38Y5nHjSxAdh/xIdN6Mf+eAri/Ok/56P/AN9Gux+Mf/I62H/YB03/ANECuMrysr/3SHz/ADPLyz/dY/P8x/nSf89H/wC+jR50n/PR/wDvo0yivWPUH+dJ/wA9H/76NHnSf89H/wC+jTKKAH+dJ/z0f/vo0UyigAooooAKKKKACiiigDu/Af8AyTL4wf8AYGsv/Sxa4Su78B/8ky+MH/YFsv8A0sWuErxsF/vWJ9V+RrV2h6BUltGk95awyO8cc08cTPGhkZQzhSVUcsRnhR1OB3qOvQv2efBq/ED47eBtEmJWzbU4728fOAltbnz5WJ7DbH+teyZHqvgv9jWeP9o7UfA3jXUZrXwho8EF9da5bIYDdw3DLHaRxhslJJJG2kclSje1eBeOtBh8KePPE2hW0jy22l6rd2MTykb2SKZ0Ut74UV9kaF+1Of2kvid8IvCcdvNA6eLJ9Z1q7ZFVbu0tXnnsYww5ZUX5iD0IFch4p8LfCjx94b8C6lo3iXwbaaxfa3/aviK61K7lbVdRuJrs77EW6j5I/n+8xC4A9SaAPknz4uMSIcnA+Ycn0okmSNdzuqLnG5jgV+hfjbxF8CPFGifFXw7Y+DPD2jajoNhqFle6rY2SxCyhS7SG2eJsAM7M7OWQ5GzHSus8N/s//Cjwl8dtG1bw7Y2DWlj4ekgvfDtsy6lJfxzzRwQ6ht3HaoXc7sOcHOKAPzK3DbuzlfXtQrBlBByPWvqr4P8Aw18P+Lv2mfiFpXjrwBZ6Poug3Uayf2XdfY9P0FobhViJ3H96LgBFxyW3MQOa8k/aihgtf2lPidDbRxwwR67MqRxKFVflXgAdOc0AeY0UUUAFFFFABRRRQAUUUUAFFFFABRRRQAUUV33w9+BPjj4o+HNb8QeHtGE2iaRFJJcahdTpbxOY0LvHEWP7xwoJIXpjk0AcDRWj4V8N6v461e10rw5pd3req3aM8FjYx75pFVdzELnsOa6n4tfBLxb8ENX0fTPFlrbwX2rWQvreGzm88hS5Qxtgf6xWGCozyeCaAOFopGYRtsb5XyRtbhsjqMdcj0paACiprOyudRvLezs7aa8vLiRYoba3jMksrtwqqo5JJ7CtDxT4R1/wJq/9k+J9Dv8Aw9q2xZfsWoQmOQo3CsAeoJ4yO4xQBk0V67pH7I/xi1rSxqa+BrrTdPIBW41m6hsFYHoQJXB54xkCqnwx/Zn8efFrSrvVNHtbGy0uGWa2ivNUvFhjvbmIMXt7fGTJINjdscdaAPLaKSPdJbrOIpRCzbBIYyE3AZK7sY3DPIzmrF5p95pq2pvLSezF1Ctzb+fGU86FiQsiZ+8pwcMOOKAIKKKKACiiigDvPGf/ACR/4Sf9cNX/APSsVwdd54y/5I/8JP8Arjq3/pWK4OvIyr/dv+3pfma1v4nyQUUUV65kFFFFABRRRQAUUUUAFFFFABRRRQAUUUUAFFFFABXY+F/+SXfFH/rlpf8A6UmuOrsPDbLH8K/iiXOB5Ol/+lJrzcw/3d+q/NHn5h/u0vl+Zx24MxAOSOvtS19bfsxfCrw98SPh/eaV8Ufhhc6P4dsoprvTviLETpcuTlvIkdyPOyeEbaw6LjvXi37QXwk0/wCDnjDTNM0zVbu+t9S02PU/sOqRLHqGm7ydsFyqHbuIwwPBI6gV6J3rY8y7iu3ur+fwD8PdFi0id7PXPFlvJe3mpQkrNFZLIY44Im/g3MpZiOT0riGYR4LEDnjPFdp4T1qz8WR6L4J1zTbrUU84waXqGln/AE6w8xskbeksO45IPQZ5ry8xT9nGTV4p3ku6PNx6fs4tq8U7teRheKvFN34w1KyvLuJYpLXT4NP3by7SiIEeYzHks2ah0fwvrHiqQW2kadd3jvIkLTQQM6QlyAGdgMKBnPPYV6B4T8E+D/Ctp4h1r4hahBdabZ30+lafDDI6i+kh/wBZKgU5J5UAZwDknpVD4F6zqWneK5FS6vLTTrOzvtYl08SFFkaO3byi443YBX2OBXmrMIRo1aeBj8Cum/h16L0PPjjYRo1KeCj8Cum9tei9DG+KEdja+PtT07TbRbOw0lItMjAj2NMYkw8zjuzsScnqMVyxYIMsQo9TwKal7c6p/p15cTXl5cASSzzsWdyR1JPtgfhW94IvJLPxZp62+iWniC8uybK0sr5d0QnkIVJSCCDsOWwRgjPSvWo8+GwilP3pJXfn16np0ebD4VSl7zSu/PqaWrN/Znwc8MWBb97rmr3Ws7d2QIYVEEZx/tHJ98Vhw6K99aae2nXA1bUrtpPM0uxt5JJrZVPDOcYO7k4HQDmvTfF/iQfEX4lWvgiy0nR7jTIb+DTLXUI7URzRLEwa5eMqcCM7ZflxgA10Hwh1bwx4Rh8eePC66XpcmujSLHaCwitt4bCgcndkH6Cvlv7Tq4PCyruk+eT5rLW93ZLyPnP7Sq4TCyruk+eT5rLW93ZI+fvNU4zlc5ILjGccHrT2Vl27lZdyhhuUjIPQj1HvXvvgyR/jZous6r4psJJNH0XWheaVb2cA3vAqMZLSMDlwQIyw9TXm3x08Rap4k8bTX2paJceHkWySPTrC6jEcv2cFtrso6EnPHYDFehgs5qYjErC1KVpJXlrotLpLu/yO3C5vUxGIWGnTtJfFrtpsu7OHW4idsLIrEHB2nPPp9aXeDwOTXv8A8Xb210nwLcaVeQaElh/ZlpDosNgsZnuL8hDLdKV5SNV3L83X3rlr3R/Dd18OvBms6/qstvo+naK1oLfSXjN9LfvcMWBQ9Qq4Y7vzq6WdqcFOdNpc3L3/AKfkaU835oe0qU2lzW7kmj2/hvSfgDqCXXiC4s38T6ggdv7OZystsgLQKM/Mu7H7zp8xryZWLKpYbWPUeld58Uhp+naP8PdF0i4mu9Lt9Jk1SOe6jEcsjXMpO90BO0kL0rhK3yim3GpiXJv2km7PpbQ0yqm2qmJ5m+eTdn0toMNxEr7DKgfpt3DNPro7T4ganZeH10ZLDQ5rRYWgEtxpcb3AU558zqWGeG61zQQrFtU8hcAnmvXpzqylJVIWS21vc9anKpJyU42XTXccxC9SB9TS8fWutg8c6NpsEUFh8PtClRI1D3GrSy3M8zgfMxOQFBPQAcVjQ6ppR1+41C/8Nw3GnygldG0+8ktoo2wMFZOW2ggnHfNYU8RWk5KVFpLrda/IyjXqybvSaS9NTKord17XvD+qWLRab4KXQbzcpS8i1aWcKARkGNhhsjIz2qtoc3h2D7Q3iCw1rUGypt00m7it1xg7hIXBJycYx71UcTN03OVOSa6aX/Mca8nTc5U2rdOpmY6Ulbmtax4aurGS30bwjdaTcM6ldQu9YkuXCg5I8vAXkce1V9Cm8Pwy3EniG01a9jUKba10qZIfMbJ3eY7A7VxjG0c5NOOIk6TqOm1bp1Y4126bqODXl1Muirus3OmXeoGTSNLm0ax2hRbXF410+4Zy5cgdeOOgxWrpNr4IbTYZtZ1fxGmoDJmsNNsoTGeTgJKx4yMckcGnPEKnSVWUXr0tdjlW5KaqSi9elrs52ipIfIkvI/NM0Fg0wDMoDzRw7uTjozhfwJrR1bTdObUHh8M3eoeIbSO3a4mnlsDA8YB+YlMn5VBGW6c1o60YtRkmr/1qaOrGLUX1MqigdAe1FdBsFFFFABRRRQAVFdf8es3+4f5Gpaiuv+PWb/cb+RpAdz8Y/wDkdbD/ALAOm/8AogVxddn8ZP8AkdrH/sA6b/6IFcZXlZX/ALnH5/meVlr/ANlj8/zCiiivWPVCiiigAooooAs7rP8AuXH/AH0v+FG6z/uXH/fS/wCFVqKBFrdZf3Lj/vpf8KN1l/cuP++l/wAKq0UDLO6y/uXH/fS/4UbrL+5cf99L/hVaigR6L4D+x/8ACtfi58lxt/saz3cr0+2Dp71wf+h/3bj/AL7X/Cuy8Bsf+FZ/F/8A7Atl/wClgrhD1rxcF/vWJ9Y/kb1fhh6FnNn/AHbj/vtf8K3PCXje88DXGqT6JPNZXGpabPpM821HcW8wAlVCR8jEDG4cgE+tc1UdwzLA5RS74+VV6k9h+eK9o59TrPD99rPwyv8Aw74r0pNU0C4dJLjR9T2R7ZUXMUjR7gQ6jLIcjFc7/oMhc7JyWJLH5QSScnt719v+LvgP4JT4lfA3wZ448V4NhommaNZeD9FhMt7c3LuZp5Lh87IIi5Oc/MwTjrXmvxm+E/iP41T+OfjNFe6BpukT662h+H9FjIjuNWWGb7JGsCjgPkDgjJwTwAKA1PmeZ7CCAs0dxsjHRWWut8ReGdV+Bfj6XTWuLvRfE2mpDN9q0e92vEJolkULIuD911yOma9X+LH7GupfDePwCLXXD4lufEOvQ+HrqzjsmhMN3kGbyWJ/ewqA678dVJru/wDgoxpOgx+IPDOuWehJoXiC81DUbC6dhtl1G1thFHDcuO4JDBW9BQGpS/Zx0G8+Lnw5nt0uL6/vbj4naPqXiO+nl8yZ7OG2abzZ3PVA0R696+dviZ4usPH/AMTPGHiZFuFj1bWLu8j2lcFGlbYR/wABArM8PeOPEPg+z1i00HXL7RrbWbb7JqMVnJsW6h5+R/bk8jBwSM8msRcKoCrtUdAO1AalvdZf3bj/AL6X/CjdZf3bj/vpf8Kq7qN1Ay1usv7tx/30v+FG6y/u3H/fS/4VVyKMigWpa3WX924/76X/AAo3WX924/76X/CquRRkUDLW6y/u3H/fS/4UbrL+7cf99L/hVXIoyKALW6y/u3H/AH0v+FG6y/u3H/fS/wCFVcijIoAtbrL+7cf99L/hRusv7tx/30v+FVqt6XpF/r2oQWGl2NzqeoTkiK0sojLNIQMnaq8nAyfwoA6z4R/D23+LHxO8OeEI57ixj1O5K3N3lT5FuimSaTp1CI2PcitP4yfFu2+JHiC1s9Ihu9F8FaKG03w3odnJtSK3BK7yo5eWUfM5OSd2KvfDHwz8WvhR480vxXpXwy8RXd5Y+YhtbvRrgw3EUkbRyxPhcgMrEZHI4Nd7Z6p4u8DiW6+Gf7M2oeBPEMyFP7fuLe91W5tARgm1WZdsTejYJHFAzvP2N/DGkfDn4XeKPiVfeK9I8E+JNftLrS/C994gcbYoIcG5uI4xgu27gKOT5YHfFat14V0C3+Ln7N5l8YJ4ph8NeFJvEt9etDKjzWsDy3Qu3Mg+7I5AAPzZBJr5W174ZfFzxPZ6baax4L8aanb6bE8FnFc6VO4to3cu6p8vGXJYnrk16F4T8SfHvwj44j8Vr8OtZ1jUo9BXw0sGp+GpXtRYqqhI/LUAHG0H3Oc9aCdTOs7fTX+A/wAX/HXiLRJItY1/xBYWNi+oRbJrRp3kvJZYSwBXKFRnuK8aD2JXIW4wehDL/hX0RpPj747wQayniD4S3fjuTUtTXWRJ4m8Mz3AtLxY/KWSFBhQqphVQjaAK8iuPg78TLy6uLmb4deKvNuJWmk2aJMi7mYscKFwoyeAOB0oEbv7OvxA8K/Dj4sRatruqzeH420q/srTWXQTDTLqaEpFclF+YhcnkdM5qp8afh/qnwx8Q6PZ+IvEMvi032lxalp2sQ3sk4mtGY7GBlG9PmDEKfXIrrfAd18ZPhvoKaZpPwbjuykrzx6hq/gc3l4jMc8SuOg7AjiuT8XeA/jH4+8SXuveIvBnjPV9YvGDTXc+jzZIAwqqoUBVA4CqABQB3nj7VdV8Wfsx/CfT7zU9U1i98XeKdQuJru/u/N3zRvHa28crseQgbcAeg5r6Q8KWfwut/iRpHhvQte8RXS/BnSJ7cxxW8cWjR6hKDBJNJK3Ms0sk20BeBtPvXw9J8HfihJZx2j+AvGT2cTtLHbtpVwY0dgAzKuMKxAGSBk4FaVl8P/jJp/hi48OWvhDxrbaFcXseozWMOkzKklxGAI5GIXJK4GATgEZ60FHe/tRarqug3UXwd0jSb/TfAfhu7i0/T42sgi6pqYH72781ky7tJMwwrYwBXtP7UfhvQtN8HSWvhvwRoPjy78L+H7bw1r2sx3zT6n4daGMbStsCPLVSxYyjdycHgV886iv7RGteIND1rV9I+IGu6joVwt3pr6tpk1zHbSrjDiNk2k8DqOcDNYkfgX4z2/iLVNeg8J+OLfWdU88X19Bpc6SXKzkmZXIXlXycjpzQM8/VrHaOLg8ddy80ubL+7c/mv+FdOnwR+IyKqL8OfFiqBgD+xZgB+lc/r3hrWfCd8tjr2j6hod6yeattqVs8EjJnG4KwBIyCM0CIM2X925/Nf8KM2X924/wC+l/wqrRQB6J4yay/4VF8JvluNvk6tt5XP/H2M54rg91meiz/mtdn4y/5JD8JP+uOr/wDpYK4MCvIyr/dn/il+ZtW/ifJFrNl/duP++l/wozZf3bj/AL6X/Cq1FeuYlnNl/duP++l/wozZf3bj/vpf8KrUUAWc2X924/76X/CjNl/duP8Avpf8KrUUAWc2X924/wC+l/wozZf3bj/vpf8ACq1FAFnNl/duP++l/wAKM2X924/76X/Cq1FAFnNl/duP++l/wozZf3bj/vpf8KrUUAWc2X924/76X/CjNl/duP8Avpf8KpyTJCFLsF3HAz3PoPf2r1Twr+zh4t1rRU8Q+IXsfhz4QYbv7e8WSG2WRf8AphB/rZj6BVAPrQB5wTZDqtwPqy/4VteDPAutfEi+Fn4S8N634luM4K6bB5qr/vPjav4kV37eK/g98NCo8LeFrr4p64n/ADHfGIa101GH8UVgh3OM9PNNYPjL9on4j+PNPGmah4om03QwNq6JoES6bZKv93y4QNwx/eJoGdVN8BfC3w+US/Fbx7a+Gbrr/wAI14fZNV1Zv9ltn7qE/wC8xxXTeGPjd4Y8E/Dnx3P8MfAkfhyfT0sca5r0q6nqNyWmKB3Vx5SEckBQcE18zxQxwKVjRUGcnaMZ9zXa+GP+SUfE4f8ATLTP/Slq8/HtrDtruvzPPxzccNJry/M9F8G/Gi3jt/EXxG8Y+IL/AMb/ABG0yeC18M6Tr915sFu8oJfUFhxsbycYVQAASD6V41qmrHXtUvNU1W7vtS1S9la4ury4kDSTSMcszH1/l0FZx+99KSu9Hetjp/BfinR/CV9f3F54dTxFHdWjWohu5Qnk7j8zKQDgkcZ6jsRWhc/ExoNNk07w7pVt4Mspk8uc6QoNzMvQq1w+XwR1xjNcRUlvb3F6ZBa2l1dmIZk+zQPLsz03bQcfjXnVsHh51PbVvxbt92x59XB4epU9tV/F6fdsdV4b+Idz4U0GPSLK0srq0t5nuLX+0rKK5e2kfG9kLDjOB1qnb+NL+38SXHiBr66utauopIZ7q5WN/MR08tlK4xjbwABxgelc4rBuQeKWtY4PDRlKcYq8tzSOEoRbnGKu9yxElhDGqKtxtUYHzL/hV/Rdcbw3qaajpc1xaX6I8aXA2MyB1KsVyODgnB6jtWNHIsihkZXU9CpyKdXU4RlDka0Olwi48jWhraHrR8MzST6XLc21zJbS2jT/ACM4jkGH2kjhiP4uvJqrHcRR6WumJPfDTVlFwLTzF8rzQu0Ptx97HGap0VHsad78vb8NiPYwve39LYu290lnNFNa3epWssRLRtb3JjKE9SNuME9/Wo3a2mneaaW9uJnO5pZ5vMdj7lsk1WyN2O/XFFP2VPm5+VX7leygpc9lckjt9OhYskcys3BIKgn9KU2+nMzN5c25hgsCoP54qKiq5Y2skXyrsbGua6mvTWElykgNjYQabCse0DyogQufU8nJ96z91n/cuP8Avpf8Kr0UoQjSjyxVkTGCprlhoixus/7tx/30v+FLus/7tx/30v8AhVaitCtSzus/7tx/30v+FGbP+7cf99L/AIVWooKLO6z/ALtx/wB9L/hRus/7tx/30v8AhVaigWpZ3Wf924/76X/CjNn/AHbn/vpf8KrUUDLH+hf3bn/vpf8ACj/Qv7tz/wB9L/hVeigCxmz/ALtx/wB9L/hWz4Z1KbT11+LS7C6vHvNIntLtkwTb2rFTJLxjGNo5PrXPVqaHqmo6NZ+ILiytPOtbzT20m9uGUlLdJmGDkdGYpgZ681zYlc1Jq179zlxEb02rXKatZbFwtwRjj5l/wozZ/wB24/Nf8Krj5QBRXSdJYzZ/3bj81/wozZ/3bj81/wAKr0UC1LGbP+7cfmv+FGbP+7cfmv8AhVeigZYzZ/3bj81/wqO5Nl9nmytxjY38S+n0qOo7r/j1m/3D/KkB33xga0/4TSy8xZif7D07G1lHHkDHauO3WX9y4/76X/Cuq+Mn/I7WP/YC03/0QK4yvKyv/c4/P8zy8tX+yx+f5lndZf3bj/vpf8KN1l/duP8Avpf8KrUV6x6pZ3WX924/76X/AAo3WX924/76X/Cq1FBOpZ3WX924/wC+l/woqtRQMKKKKBhRRRQAUUUUAd14D/5Jp8X/APsC2X/pYK4Wu68B/wDJNPi//wBgWy/9LBXC142C/wB6xPrH8jWptD0AnCknoOa96+FX7N3j+x1zwX42u/Cek6xoG+31q30++8RWli19EPniJDtuVSwVuRyBjvXgUv8Aq2+h/lXsP7Ulnb3Wp/CYzQxy4+HGjY3qDj/W17JkemeB/hH8YPDnx+t/inrGieH9c1Iapcarc2//AAllhH5skiOqgN5hwE3DHHRcU+9+D/xUn+Hfw60iz8O6HpvijwTqt5qVlrsXjDT2jYzzGcnyS3+sDlfmzjCkY5r5I/smx/584P8Av2P8KT+ybL/nzg/79j/CgD6zb4a/tC6l8XdB+JHiCbQ/EniLR7yG6hF14qsYocRtuESokgEaHJztGeT1rm/Hn7Onxt+JHi/U/EmvnRtR1K+meQtceLbKQQoWLLEmZPlRc4AHYV84f2TZf8+cH/fsf4Uf2TZf8+cH/fsf4UAe4/8ADHvxT/6B/h3/AMKiw/8AjlH/AAx78U/+gf4d/wDCosP/AI5Xh39k2X/PnB/37H+FH9k2X/PnB/37H+FAHuP/AAx78U/+gf4d/wDCosP/AI5WZ4p/Zg+I/g3wtq3iTVNL0s6NpMQnvZrHW7W7eGMsFDFI3LEZIHFeQ/2TZf8APnB/37H+Fes/BS1htfhr+0CsMSRBvBURIRQM/wDEwioA8xooooAKKKKACiiigAooooAK9n/Y2kkh/aR8NyRSNFJHp+rMrocFSLCYgj3zXjFey/sd/wDJxnh7/sHat/6QTUAcFZfGT4hSWcLN4/8AE5JUE/8AE3n9P96pv+Fw/EH/AKH7xN/4N5//AIquK0//AI8bf/cH8qnoA67/AIXD8Qf+h+8T/wDg3n/+Ko/4XD8Qf+h+8T/+Def/AOKrkaKAOu/4XD8Qf+h+8T/+Def/AOKo/wCFw/EH/ofvE/8A4N5//iq5GigDrv8AhcPxB/6H7xP/AODef/4qj/hcPxB/6H7xP/4N5/8A4quRooA67/hcPxB/6H7xP/4N5/8A4qj/AIXF8Qf+h+8T/wDg3n/+KrkaKAOv/wCFxfEH/ofvE/8A4N5//iqP+FxfEH/ofvE//g3n/wDiq5CigDr/APhcXxByP+K+8T9f+gvP/wDFV337S+qXut+GvgNf6leXGoX0/gSN5rq6kMksjfapPmZjyT7mvEv4h9a9j/aE/wCRK+AH/YhR/wDpVLQB45RRRQB3fjL/AJJD8JP+uOr/APpYK4Su78Zf8kh+En/XHV//AEsFcJXkZV/uz/xS/M1rfxPkgooor1zIKKKTcBnPGPWgCO7n+y2s023d5aF9vrgZxXvkf7OWm6V8TPF3hXUdbm1FdI8CyeK4Z7RRC3n/AGaOZIpAc5UbznHUY6V8+6kwbS73GQfIY4YEHBXIPPYivtbVGDftQfE6HI3y/CJkRe5P9mQHH5CgD4yjYtGrHqQCadUds263iPqgP6VJQAUVveCfAPif4lan/Z3hLw/qHiO8Bw62EW5IveSQ4RAPViK9Kb4TfD74XyN/ws/xr/bOtxjJ8HeBZFuZlP8AduL0/uovcJkigDxuytbjU9Qg0+xtp7/UJ22w2dpE0s0h9FRQSa9fX9nePwTbQ6j8XPFVr8OLSRfMh0ONBfa9cjH8NshxF/vSEfSmXn7TGsaHZS6X8NNA0r4UaRICjyaMvn6pOv8A01vpAZM+uzbXkM8sl1dTXVxLJc3U7b5bidzJJI3qzMSSfqaAPZo/jz4e+HP7r4SeBLTQrpPlHirxTt1PV3/2o1YeVbk+ig4ryrxR4o1rxxrUmseJNZvvEGqydbzUp2lcey54UeygCs3NJQAo/n7UHFJRQAV2Phj/AJJX8Tv+uOmf+lRrjq7Lwz/ySn4nf9cdM/8ASo15uYf7u/Vfmjzsf/u0vl+ZxzfeNJSt1pK9E9BbEdzIYraV1GWVSRXqXjLxZqfwz8UaX4V0G/utK0rQltJbz7C/lPqE7hJZpJCPvZB2hTwAK85s9JvdbF1FZWFxqAt4TNciCMsIoscsx7CvR5NAvPG3gKfWfFNjP4d1LR7NVsfEd8BBHqsSj5LaWNiGaQDhZFH1rwMyqUVOn7VpxT1XXXZ26ni5hUpKUHVacU9V67Ox5/4o1m21zxdrmpwRfZbfUb+a6gt3IDIrMSFwOMj2q54J8Pt4o8ZeH9KMUjW15qEMMzqhKBN25wTjA+VWrvtBPhLwb8KtLn1qC11LWfEdncX39mtZGa7dCCluEk/5YopUuWByTWR8B/E2q+HdU1UxarLFZWmiXmpXNvuHkzyxxBY3ZSOoLDn2rn+vP6tXjhoP92rJvZ9NDnWPvh60aEfg0TfX0OP8UaxD4h8Xa/qVukcVtcX8xhjhQIiRqxRFCjgDaorNHUVNfavf+ILx9T1ScXOo3IUzSCNYwcAADaoAGB7VVumK28hXO/bhcdc9v1r3cLF06EFPdI9rDRlGhBT3SNzxD4eTQNH8L3326O5fWrF72SFcf6LiQqFJz1IGecVixzRzKWSRXUdSpBr3fT/Avh9PHniOW9sLFbXwb4YtWuLYp+4l1DyWcvIv8WCeQep61wOpeJF1z4b2PjTUdC0ttW0fXYbWSG0tFtoL63eLzRDIicfKy4yBnBrwqGbXbhyuVmrva3NsjxaOaK7jZy116WvsjP1yxsdJ+GHhGXyYTq+tXt5em6OPM+yx4ijQH+6W3Nj1Fcx3x3617b461XUvGXxG0T4cpFpulabNZ2kd6sNhH5lruiNxMsL4ym1RgY71h+JvEHwkj0C8ttF0FdUv5EK2U1n9oi8g4wrzSyN8zA4JCrg81zYXNKtOKVWjJym29NbK9lfsc2HzOpSSjVpSlKbb01sr217HlrOqsqlgGboD3oVlbIDAkHB5716P8FPCcHjZfFOg6irpZXdnal9TiCiSCVJgyRoW/il+ZRj0pi6HbfFWx199D0RND1bSr2ysbOwtyf3di8jQsZR/FIHwzOee3QV6tTNqVKvOjNfDZt9kz06mZ0qNaVKa+Gzb7JnnxjkWCOcxSCCRiiSlCEZh1AboSPSuk+GegWnij4gaLpuoK0mnSPJNdqjFSYY42d/mHToOfeu6k0H/AIWN42v9FhkvP+Fe+DfLsbaxsOXuJQTGNn/TSV95aQ9FFQ6jpOmeBfGPxUn0G3ktbDQdAXT4kmlLsLu52I3zHk9T+VcE84jNSopWm1dW6LZX89TiqZvGSlRStNq68lsr+Z5Bbzi4j81RtRyWQHspJ2j8sVLTYoVgjSNfuqNop1fUQi4xSZ9HBOMUn2CiiirLCiiigAooooAKKKKACtGy1XUbHw3r1jbxE6Vqht4r2VoiVRkcvEA3RWJz16jNZ1alvqGow+CdZ09LQto17qNrJPe4OIp4lYpGD0yyknHoK5MTrBKyeq3ObEfBayeq3MuigMHG5SCPUHNFdZ0hRRRQAUUUUAFR3X/HrP8A7h/lUlRXX/HrN/uN/KkB3Pxk/wCR2sf+wFpv/ogVxddp8ZP+R2sf+wFpv/ogVxdeVlf+6R+f5nl5b/usfn+YUUUV6x6gUUUUAFFFFAE32O4/595f+/Z/wo+x3H/PvL/37P8AhTftE3/PaT/vs0faJv8AntJ/32aAHfY7j/n3l/79n/Cj7Hcf8+8v/fs/4U37RN/z2k/77NH2ib/ntJ/32aAHfY7j/n3l/wC/Z/wo+x3H/PvL/wB+z/hTftE3/PaT/vs0faJv+e0n/fZoA73wHY3P/CtPi9/o8o3aNZAfIef9MFcL9iuP+feX/vg13PgO4m/4Vl8Xj50mV0ayI+c8f6YtcGbiUE/vZP8Avs142C/3rE+sfyNam0PQJbG58tv9Hl6H+A+leyftN2s76j8KCkMjAfDnRgSqE8/veK8ZkuJvLb97J0P8Z9K9l/abldb/AOE4Ejgf8K50c8Mf+mteyZHj32O5/wCfeb/v2f8ACj7Hcf8APvN/37P+FN+0Sj/lrJ/32aPtEv8Az2k/77NADvsVx/z7zf8Afs/4UfY7j/n3m/79n/Cm/aJv+e0n/fZo+0Tf89pP++zQA77Hcf8APvN/37P+FH2O4/595v8Av2f8Kb9om/57Sf8AfZo+0Tf89pP++zQA77Hcf8+83/fs/wCFeqfBnT7lvhv8fcW8vzeC41A2HJP2+I4/KvKftE3/AD2k/wC+zXqnwZupl+HHx/xNJ8vgqNh8x4P26LmgDy37Dc/8+8v/AHwaPsNz/wA+8v8A3wab9om/57Sf99mj7RN/z2k/77NADvsNz/z7y/8AfBo+w3P/AD7y/wDfBpv2ib/ntJ/32aPtE3/PaT/vs0AO+w3P/PvL/wB8Gj7Dc/8APvL/AN8Gm/aJv+e0n/fZo+0Tf89pP++zQA77Dc/8+8v/AHwaPsNz/wA+8v8A3wab9om/57Sf99mj7RN/z2k/77NADvsNz/z7y/8AfBr2T9j2znT9orw+zQSKo07VskoQP+PCavGftE3/AD2k/wC+zXsX7HtxK37RegK0rsp07VsgsSP+PCagDxfT7K4+wwf6PN9wf8sz6fSrH2O4/wCfeb/v2f8ACqun3MxsbfM0n3F/jPpVj7RN/wA9pP8Avs0AO+x3H/PvN/37P+FH2O4/595v+/Z/wpv2ib/ntJ/32aPtE3/PaT/vs0AO+x3H/PvN/wB+z/hR9juP+feb/v2f8Kb9om/57Sf99mj7RN/z2k/77NADvsdx/wA+83/fs/4UfY7j/n3m/wC/Z/wpv2ib/ntJ/wB9mj7RN/z2k/77NADvsdx/z7zf9+z/AIUfY7j/AJ95v+/Z/wAKb9om/wCe0n/fZo+0Tf8APaT/AL7NADvsdx/z7zf9+z/hR9juP+feb/v2f8Kb9om/57Sf99mj7RN/z2k/77NADvsVxuH+jy9f7hr2H9oG3mk8F/AHZDI2PAUYO1Ccf6VLwa8c+0TZH76T/vs17D8fppF8E/ADEjrnwDGThiM/6VLQB5B9juP+feb/AL9n/Cj7Hcf8+83/AH7P+FN+0Tf89pP++zR9om/57Sf99n/GgDvfGVncf8Kh+Eo8iTKw6tkbDxm7GK4T7Dcf8+8v/fBrufGVxL/wp/4TsZZMmLVsncecXYxXCfaJv+e0n/fZryMq/wB2f+KX5mtb+J8kO+xXH/PvN/37P+FH2O4/595v+/Z/wpv2ib/ntJ/32aQ3E2DiaTPb5zXrmR6z8Hfhnokmi6n8Q/iHBenwJotwlpFplmCtzrt8RuFpGeqoo+aR+w4z1rZ8C+AfDHxp/akuY9C8O3Wk/DSG4k1iTS1ifeun20Su8WOTmSQbQoJ+/itnXNG8L/ED4TfCaA/F7w34R8PeHtEdNT0+7aebUhqcszPcuLZBmRiAgU56D0rh7n4sab8Ldftbv4J3/iXQ7uK1ks77xHrEkbz6ojlTlbYgpbqCuRj5umaAPcP20/h7rXj7wH4c8VXa+G7fxTo1jdW/iiwsrmGC5so5XSSytfJBzK8UThMLzw1eV+Ivj4bf42eH/iRoGjTzXQ8O2+k6xpOpRMsMzram1niVl5MbIFYNwQe3FcB4C+Gfjj406rdT+HdMvtck8xpb7WrqXy7WFicu811IQoOck859q7dtD+Fnwjdv+Em12b4veKIjxoXhud7fRYH9Li9PzTY7rEMGgDz74d/CTxf8T9Q/szwl4cu9TaEfvZwvlWtqmess7kIgA9Tnjoa9Gm8I/DD4O7k8RTSfF/xfERu0XQ5JLbQ7Vv7s13jfcEd1jABrkfiJ8evGfxMsIdJvr2HRPC9vj7N4Z0CL7Hp0IHQFF5kP+05NcCLiVQAJZAP980AekeN/jv8AEDx1ow0Ezr4X8KLxH4a8MWv2CxVR0DBBvlPqXY59K83XTZo0CJaSIv8AdWIgfypftE3/AD2k/wC+zR9om/57Sf8AfZoAd9juf+feb/v2f8KPsdx/z7zf9+z/AIU37RN/z2k/77NH2ib/AJ7Sf99mgB32O4/595v+/Z/wo+x3H/PvN/37P+FN+0Tf89pP++zR9om/57Sf99mgB32O4/595v8Av2f8KPsdx/z7zf8Afs/4U37RN/z2k/77NH2ib/ntJ/32aAHfY7j/AJ95v+/Z/wAK7Hwzazj4V/EwGCQZi0wDKHn/AEk1xn2ib/ntJ/32a7HwzNIfhR8TyZZCVi0zGXPH+knpXm5h/u79V+aPNx6/2aXy/M5D7Hc7v+PebH/XM/4UfY7j/n3m/wC/Z/wpn2ib/ntJ/wB9ml+0Tf8APWTP++f8a9FHorojq/D/AMSPGnhPQTo2hXn9k2TStM8kNipndm65kYHIHbjiud1aXVdfvvturz6hq15kkTXjPIRn0zwv4CgWupYGI7j/AL6P+NH2XU/+eVx/32f8ayjldONR140fee7tqbxySrGbqxwz5n15Wbdr4+8ZafoMOjWt/Jb2EMDWseyxj89IDnMIlK7ghyeM96zPDWpaj4TuriW0sVuY7qxm06e3uomKSQygBgccgjAIPqKr/ZtSzjy5s+m//wCvR9k1P/nlP/32f8aay2KUlGlbm303F/YdaKklhpLm391lWGwuY41QwzHaMZ8s/wCFX9Fll0fW9N1F9MbUEs7hLg2kqsqTbTkKxAzjIB/Covsmp/8APKf/AL7P+NH2TU/+eU//AH2f8a6Xhako8ri7HR/ZmLceX2MrejLlxr3iK6k8SO9xcKPEbl9URYuJ/n3gZxwAfTHHFLrGsX+saDouhjThY6Tpauwt4I2/0m4f79xKSOXI4x0AHFU/smp/88p/++z/AI0n2TU/+eU//fZ/xrmWWRja1Lby7bGCyOurWw8tP7rLek61rWh+JrTxBbmeXVraTzFmukaXf8mwq+eWUodv06VNr2rLrMKQ2fg7SfDkYl81n0yKYyOcEYLOTheegHpWd9l1I/8ALO4/77/+vR9l1L/nncf99f8A16cst5pqo6buvUJZJiJTVR0JXXk0bXhTxp4l8Dw30WirDEt5JFLJ9qsfPKSRghJEzwrDJ55+lS+BfHGueAfFl54igtX1G9vIZ4rlbgMolaQ7t5wOCH+bp7cVzH2mYZBlkBHbef8AGk+0zf8APWT/AL7P+NclXAYaq5ucFeej8zzqmCoTlNzhrLR+Ze0XVPEPh+C7i06/1HTxeD/SmtS0fnck5P4kn8avyeJtXuPD/iTTruC4vbzX721u7vUpQfMIgBwhAXBySDn2rC+0zf8APWT/AL7P+NL9pm/56yf99n/Gh4HDt35FfTXroKWDoSabgr6a9dNhxs7gn/j3m/79n/Ck+x3H/PvN/wB+z/hTftEv/PWT/vs/40faJf8AnrJ/32f8a7zsHfY7j/n3m/79n/Cj7Hcf8+83/fs/4U37RL/z1k/77P8AjR9ol/56yf8AfZ/xoAd9juP+feb/AL9n/Cj7Hcf8+83/AH7P+FN+0S/89ZP++z/jS/aJTgebJ/32f8aAF+x3H/PvN/37P+FH2O4/595v+/Z/wrq4fCemW/hPRdd1vxtJoaas0629qumS3Tfun2MSyOO/tVf+zfB3/RTbj/wnrr/4uvMlmFCMnHV200i3+hwPG0YycddNNm/0Oc+x3H/PvN/37P8AhR9juP8An3m/79n/AAro/wCzvBv/AEU24/8ACeuv/i6P7O8G/wDRTbj/AMJ66/8Ai6X9o0O0v/AZf5B9eo+f/gMv8jE06zhGoWx1OG+TTRIDdNZw7phH32A8FvrXq+ofDvT/AAJ4ZW68Qavdav4bTVDqGl6FbwhTq5aFfJkZx8yjBIfPA2nGM1wX9n+Du3xNuT/3Lt1/8XSSaf4RlaNpPifeSGJPLj3+H7ohF/url+B7CvJx1aOKcFTlKKW/uS1XlpozzMZUWJceScorr7r/AA03MXUGvtW1K8v57IQTXczTtDbQFIo9xzsRR0UdPwqD7Dc/8+8v/fBrof7O8If9FMuf/Cduv/i6P7P8If8ARTLn/wAJ26/+Lr045hh4RUUpWX92X+R6McXQjFRXNZf3Zf5HPfYbn/n3l/74NH2G5/595f8Avg10P9n+D/8Aoptz/wCE7df/ABdH9n+D/wDoptz/AOE7df8AxdV/aVDtL/wGX+Q/r1Hz/wDAZf5HPfYbn/n3l/74NH2G5/595f8Avg10X9n+Dv8Aoptz/wCE7df/ABdL/Z3g7/oplz/4Tt1/8XT/ALRodpf+Ay/yD69R/vf+Ay/yOc+w3P8Az7y/98Gorqxufssv+jzfcP8AyzPp9K7Kz8JaLrNnq8mi+PpNTvNN0+bUns5NHnt/MjjA3AOz4HUdj1ripbyaSzd/NkUNGWHzn0+tb0MXSxLkoXvHe6a/M2oYmliHJU27re6a/M7v4w2s8njay2wSsP7C00fKhP8AywHtXGfYrn/n2m/79t/hXY/GOeRfGtiBI4H9haaeGP8AzwFcX50v/PWT/vs1zZX/ALpD5/mcuW/7rH5/mP8Asdx/z7zf9+z/AIUfY7j/AJ95v+/Z/wAKb9ol/wCe0n/fZo+0Tf8APaT/AL7NeseoO+x3H/PvN/37P+FH2O4/595v+/Z/wpv2ib/ntJ/32aPtE3/PaT/vs0AO+x3H/PvN/wB+z/hRTftE3/PaT/vs0UAR0UUUAFFFFABRRRQB3ngT/kmPxg/7A1l/6WLXCN9413fgP/kmPxg/7A1l/wCli1wjfeNeNgv96xPqvyNam0PQZJ/q2+h/lXs/7Tn/ACEPhP8A9k50f/2rXjEn+rb6H+Vez/tOf8hD4T/9k50f/wBq17JkeNUUUUAFFFFABRRRQAV6p8G/+ScftA/9iTH/AOl8VeV16p8G/wDknH7QP/Ykx/8ApfFQB5XRRRQAUUUUAFFFFABRRRQAV7H+x3/ycd4f/wCwdq3/AKQTV45Xsf7Hf/Jx3h//ALB2rf8ApBNQB4pp/wDx42//AFzX+VWKr6f/AMeNv/1zX+VWKACiiigAooooAKKKKACiiigAooooAO4r2L9oD/kSf2fv+xAj/wDSqSvHe4r2L9oD/kSf2fv+xAj/APSqSgDx2iiigDu/GX/JHfhN/wBctX/9LBXCV3fjL/kjvwm/65av/wClgrhK8jKv92f+KX5m1b+J8kFFdD4C+Hfif4paw+l+EdCu9fvIxmb7Ko8q3X+9NKxCRr7sRXos3gP4YfCNyfHfiNviL4mhPPhLwZNtsonH8F1qB4PusQzXrmJ558Pfhn4o+KmsPp/hHQrjWrqLm4liwkFsvdppmISNR6sfwr0b+wfhR8GWI8RX8fxh8Yx9dE0SZ4dCtH9Li6HzXBB6rGNp71zXxC+O3ifx7o6eHYUs/CPgqL/U+FfDkf2ayHvKR887erSE59K86VQihVAVRwAowKAO5+I/xs8X/FS1h07WNRjsvDtvxa+GtGiWz0y2Xsqwp97H95yxrhlUKMAYHSlooAKKKKACiiigAooooAKKKKACiiigArsvDP8AySb4of8AXLTP/Sk1xtdj4Z/5JR8UB/0y0v8A9KTXm5h/u79V+aPOzB/7NL5fmcdQPvL/ALw/nRQPvL/vD+denDdHr4f+LD1X5l/U7yZdSuFEjABuBk+gqvHPfXM0Vvah7i7ndYYIVJJeRjtUfmRTtV/5Clz/AL39BXU/C2SHSNQ1vxXOFkh8Mae95EpwQ13J+6t1/BmLf8Bq8yxU8N7SpzbbevQ7M3zLE4etXmqktG7av5I6z43WNj4J8KeBvDNj5bX1ubqW7vFA3zsAqu5PUqZNwH+7Xk7X0ygkykAck5qx4k8WXfiO8s7zV5ofPt7OOyRoxtBVMnPXqSSSfU1teDfhzdePrO5uItS03TdOiuoLKSa+dv3kkvKxoFBySoOM4FfP4GpVy3BOeMqvmu29X16HzuCxuLy/B82Mry5rtv3n16GBJcXcLKsomiZlDhZFZSVPIbnsex71HJqEyIWMpCqMk56CvTPin4R8S+LPjLqlrZaf9tM0WdOWG4jaNbKACPJbOIwG4w2Dk4rgvDOgyeJPFuj6EYm8671CO1kjXlgA/wC86eiq35V2YbNFiKCrc/TmtfodeHzmtXo+19s72vbmewurafrOgPZrqdrPYNeW4urdZiAZIj0fAOQD74NVI5r24WdoRNKsEfmzMikiNM43MewyRya674zaXf2/xE1XWbsw3FhrFzI+n3lrMs0LRR4QRhh0ZAoyvahb2Xwb8JUityE1LxpNIZ3IG5NNgOwL7CSQk59qxp5pVqYWnWg7ym7JXf8AWiM6ed4uphqdaNRuUnZK7/rRHG/bps8ytn61Z0y7mbULcGRiC/qa6P4f2emeMI5PB1zptrBql8k0ml64m4XC3SrvSGTnaYmClemcn1rk9EkM17asVKNvwyt1UjIIP4ivVwuMnUxLoyumrdd13PXy/NMTUx0aMqkk011eqvuNuP8Aj4l/32/majqS4/4+Jf8Afb+ZqOtqv8SXqLHf71V/xP8AMKKKKyOEKKKKBhRRRQAUozuGKSlH3higDsPF3/JL/hl/3Ff/AEoWuN/iNdl4u/5Jf8Mv+4r/AOlC1xv8RrzsD8M/8UvzODCf8vP8TOi8N+BtS8SafPqfn2ej6Hbv5c2r6pN5VuH7ov8AFIw9FH40/WvB9rZ+HZNd0fxPY+JtOt7uOxuvsttLA0EjglDh/vKcdR7V2Om6pc3X7P6ada6LPfaveajcaHpnlp5nnLMyzTOq9FK7du4+vWsjVNFmsdPsPhroyrq3iW/1FL7WDZsGijnRNsdsrdCI1yzv0BFeE8wxE8RJc/KoytbTZbts8aWOryryXNZRla3l1bZwe4qeDije396utb4WeI18byeFporW3v4oFu57t5x9kgt26TPJxhc8dM54xXOaxpcvhzX59M1MNE1rdCGaSMcPFvAMsZP3gVyynoa+ghjsNVfLTqJtq+nY9yGNw9V2pzTdr6dirvb+9SNLtVmZ8KBkmtTUtE/07X5NDFxrXh/S5udWjiIQQk/I78fKTnp7Z6VnW+j6hrw+zafYXd5JMyw5t4HdVLEKNxAwOuea2WIp8rnzaLfyNlXpuLlzbb+XqWNW0y/0HUGsNRtprK8VFkaGbhtrAMjfQgg1U3t/eP512Pxv1JJ/ixr5eRljs/I05Xm+Uv5MSoW57FgcGuLjkWaNpY8yRqNzMgJCjOMkjoM+tZYXEOvQjVlo2Y4at7ajGrLS5Jvb+8aN7f3jTEkWRQyMrL2KnIpa7bnWdb8NWP2rxlz/AMynqP8A7JXE9dLH/XD/ANlrtvhr/wAfXjL/ALFPUP5JXE/8wsf9cf8A2WvJw+uMr+kTzcP/AL5X/wC3fyO8+MX/ACOlh/2AdN/9ECuMrs/jF/yOlh/2AdN/9ECuMoyv/dIfP8xZb/usfn+YUUUV6x6gUUUUAFFFFABRVr/QfS5/NaP9B9Ln81oAq0Va/wBB9Ln81o/0H0ufzWgCrRVr/QfS5/NaP9B9Ln81oA7LwH/yTH4wf9gay/8AS1a4RvvGvRPAZsv+FafFwD7Tj+x7Lfnb0+2L0981wn+hf9PH/jteNgv96xPrH8jWptD0Kcn+rb6H+VezftOf8hD4T/8AZOdH/wDateRyfYfLb/j56H+76V7J+0z9k/tD4UiT7Rn/AIV1o2Nu3GMS9fevZMjxOirX+hf9PP8A47Sf6F/08/8AjtAFairX+g+lz+a0f6D6XP5rQBVoq1/oPpc/mtH+g+lz+a0AVa9U+Df/ACTj9oH/ALEmP/0virzX/QfS5/Na9U+DH2H/AIVz8fiftG3/AIQuPf8Adzj7dF096APIaKtf6F/08/8AjtJ/oX/Tz/47QBWoq1/oPpc/mtH+g+lz+a0AVaKtf6D6XP5rR/oPpc/mtAFWirX+g+lz+a0f6D6XP5rQBVr2P9jz/k43w/8A9g7Vv/SCavJv9B9Ln81r2L9j82f/AA0NoJT7R5n9natjdtx/x4Tf0zQB4Xp//Hjb/wDXNf5VYp+n/YPsMHF0fkH930qfNj6XP5rQBVoq1mx9Ln81ozY+lz+a0AVaKtZsfS5/NaM2Ppc/mtAFWirWbH0ufzWjNj6XP5rQBVoq1mx9Ln81ozY+lz+a0AVaKtZsfS5/NaM2Ppc/mtAFXuK9i/aA/wCRJ/Z+/wCxAj/9KpK8oX7BuGRcj8Vr2D4+fZP+EJ+AO/z/APkQo9u3H3ftUnX3oA8Uo9K2vD/h+fxbr1rouh6ZqWs6xdttt7CyjV5ZD7DsB3JwB3NesX3w2+GfwbmQfEbWLnxf4qj5fwP4Wul8u3b+7eXy/Kp9UjyfegDIT4d+KfiV8M/hHpnhTQL7X7wx6tvWzjykQ+1j5pJDhY192Iq+3w6+G3wjkZ/iL4kHjfxHFz/whng24zBGw/hu7/7o56rFk+9bvxm+Nl/4l+Dvw80zR4W8EeEtRj1Df4a8ON5FqyxThFEjZ3ScZzk4JJJFeALDp8K7US5RB0VdgFeTlaSw7s/tS/M2rfH8kd74++PHifxxoq+HbQWngzwVHxF4V8Mp9ls8eszD5529Wc8+lecRxpEgRFCIOAqjAFXP9B9Lr81o/wBB9Lr81r1jEq0Va/0H0uvzWj/QfS6/NaAKtFWv9B9Lr81o/wBB9Lr81oAq0Va/0H0uvzWj/QfS6/NaAKtFWv8AQfS6/NaP9B9Lr81oAq0Va/0H0uvzWj/QfS6/NaAKtFWv9B9Lr81o/wBB9Lr81oAq0Va/0H0uvzWj/QfS6/NaAKtdj4Z/5JT8UP8Arlpf/pSa5j/QfS6/Na6/w39j/wCFWfEzb9o2+Vpm/O3P/HycYrzcw/3d+q/NHnY9f7NL5fmcNQPvL/vD+dW/9A9Lr80oT7B5iZF1jcO6+tepDdHr4f8Aiw9V+Y66mS28QieW3S8hinWSS1kJVJ1GCUYjkA9MivVNS+JQsfhZb31h4S8OWEOt63NarpzWQeH7PAgKh+m9gzfe7V5xqFjG99K3kXbEnJKhdp4HSllM1xptnp0n297Czllmt7fCYjeTHmMDjPOB1rkzjK/r1dNxdk132HnmR1sdjJt0pNKV9nt8j0Twt4p8PfDnQYfE174bjfV/E8sk9lp+nqhhtLOFhHtHmhtqyOGJIGccCua+EU0mrfF7Tpiv2LT2vptZubKBiIUWFJJVGOhCEgD0qPV9e0zW/C2j6XdeGtSbU9JsTYWmqR3oWNY/ML5aHHzNzjrXOLZ+UxaKPUImwV3RuFO0jBGR2I6jvXjYbKaklWlOElOV1rqrdLHiYfI8X+9nOjNSlpqm1bpY6LR7LVZ/g+1xpmn3V9q/jfXpUuvsMTO5t4cuIuOgaR8npkCtLwTJb/Bjx8LvX72yN/Bo14yWdm5na0umULHDKyjaJCM9CQMnJrmtL1fV9D06bT9N1PXtNsJiTLa2k/lxuSMEkD29MVmRaXbwxlUtrwA9flXnPXPrWsMnxNp0ZaU5dk7vy8ioZDjrTpSptQl2i7+nkbd1b3Gh/AvT7PUCyX+s6y2rWFswO5bdITHJLjssjnj+9jNavxe0W6t5PC+oW1uz+GU0OysrG9Rg0TOIy0icHIbcWzn0rlJrUXDI066lO0aCJGlYMUQdEXPRR2A4FQrpVujErb34zzt4xn1x0rop5TWpuEo7qTe3dWOilkmMpuDVN6Sb+F7NWOh+DtnPefFDw3JAhaPT7tL+7lx8lvBHlnkduijHr1JrnLW4iu/Ek1xAc2897LLEfVGkcqfyIrdk169/4RNfDcEM1lpTOZLtbWFElvmJyPPfq6r0C9OBWfp9jEt9AVt7xSGGCwXaOvXjpXoYfC4iWM9vUjZLRel73Z6mByzGvMYV6lKSSaS0e192V2vooXdWtI5G3N8zdT8xo/tK3/58Is/U025+w/aJP+Pr7zZ+761F/oPpc/mtepUxVSM5Jd+yPdxWcYyliKkItWTf2Y9/QmbVLdVJ+wRZAz3purRxrcK0cYjDRo20dASOahkNjsbi5xj/AGa0NU+x7otwuN3lR/dK4xg4qlVlVoz5+luhcMdWx2DxKr2fKote6lbXyRj0Va/0H0ufzWj/AEH0ufzWvOPlSrRVr/QfS5/NaP8AQfS5/NaAKtO53DFWP9B9Ln81oBssji5/NaAOo8Xf8kv+GX/cV/8ASha4qRiqOyjcwGQPftXe+MPsf/Csvhp/r9n/ABNNuNuf+Phc5rjf9C/6ef8Ax2vNwV+Wf+KRwYPap/iZ67r3xIvPhHfaN4V0y5s9V8NWWkRJqVtaOPMnmkDNORMvMcnzZXB9M1c0P4e6t4F0PVNU8AOmqX2sPBHpepTvHG+n6ZJH5ryy7zhXJIUt/s5rxaOLTolwiToOpChQKjmtNNmjkBW6YsuMbhg8cD6V49TI1y2pSScvjuvi9TyZ5PpalJJy+K6+L1PoL4c+B9Z0nUUvh4lsPE2k6ohn8QS36LKLwQE7RbmTl1DHZvOFyeBXBeAdfXxh448V+M/Fliup6fZ6PdTvHOAYrXOEtolXGCeSij1yat/Ebx14c1DwZpGkaHO8z6hYWcN+kKgfY4bdMLa8jjdIS7Aeg9a86iuraGCSGKbUIYZGjeSOOQKrshyhIHUqeRnpXmZdl1bERq1qnut+7HSzST3/AEXkedl+X1ayq1qnuy+GOlrJP+rHp2uadq2j/ALT5NJ1OPRdAaw8rWNL1K1eG71C7lcGTaWUbyMKqkfwqaxfg74g1Twuusa8NVvbXwxoMT3VxYwyssF7fSL5dvEyj7xJwSPRRXIatqx8QXgvNW1DVtVuh92W9nEhX6Z6fhT7nWjd6HZ6NLd3h0mzle4hs1Eap5j9XbAyx7AtnHavVp5XVjQqUajUud66bL9WelSy2oqM6c2m5vX0/Vnqfwj1m/8A7Du/E6w6f4u8bXd41rdtq+pR2stnbBQYzEZP4SxYcDOABR4Wgn1KH4teO/Eel2d5YmE6fc6Rp0vyTSRNHIwVl48vAXLdWyTXjU1vpdxtMsNxLt+6XCHH6VraT4in8P2V/Z6XqOo2NpqERgu7eJo/LmQjBBUjrg4yOcVhicicvaSw8knKyW+iW6Wtl8kc+KyVz53Qdm7Jb6JdF/wxn6rq02v6rd6ncw21tNdv5hgs4hHDEMABUUdAAAPfrVSrUa6eiqoW7AAwOUpf9A54u/8AxyvqqcVTgoLZH1UIKEFFdDovhr/x9eMv+xT1D+SVxP8AzCx/1x/9lrv/AIbmx+0eMNv2nP8AwiuoZ3bfu4TP41xmNP8A7Lz/AKXt8n/Y/u152H/3yv6RPOw3++V/+3fyOw+MX/I6WH/YB03/ANECuMrvfi/9j/4TOx8z7Ru/sLTsbdvTyBj8a4z/AED/AKev/HKMr/3SPz/MWW/7rH5/mVaKtf6D6XX5rR/oPpdfmterc9Qq0Va/0H0uvzWj/QfS6/NaLgVaKtf6D6XX5rRRcCrRRRTAKKKKACiiigDu/AX/ACTP4wf9gWy/9LVrhK7vwH/yTP4v/wDYFsv/AEtWuErxsF/vWJ9Y/ka1NoegyX/Vn6H+VezftPf8hL4T/wDZONG/lLXjMv8Aqz9D/KvZv2nv+Ql8J/8AsnGjfylr2TI8cooooAKKKKACiiigAr1T4M/8k1/aC/7EqL/0viryuvVPgz/yTX9oL/sSov8A0vioA8r/AMTRR/iaKACiiigAooooAKKKKACvY/2Pf+TitA/7B2r/APpvnrxyvY/2Pf8Ak4rQP+wdq/8A6b56APFNP/48bf8A3F/lU7MF6nFQaf8A8eNv/uL/ACr2f9ntNGsdC+LniTV/C+j+LZfDnhqK/sLHXITLbCZrtYyxUEH7rY60AeP7l/vD86Ny/wB5fzr1/wD4aG03/oiPws/8FE3/AMer2b9k3WvC3x3+I17YeIvhJ8MtK8K6XbJLf3lnpkiy+bLIsVvEu6QqCzsevZfegD458xf7y/mKPMX+8v519B+IPiotnqHi2bS/gF8Ob3w3oGqzadPq40SdoYsTNHF5kgl2hmwOPf3rm/8AhobT/wDoiXws/wDBVN/8doA8g8xf7w/OjzF/vD869g/4aG07/oiPwr/8FM3/AMdo/wCGhtO/6Ij8K/8AwUzf/HaAPH/MX+8Pzo8xf7w/OvYP+GhtO/6Ij8K//BTN/wDHaP8AhobTv+iI/Cv/AMFM3/x2gDyAMD0OaWvbfilLoPjv9n/wr490vwboHg3VoPEt3oGqQeHoGhgmBgWa3YqxJzgN3715v4B+Gfiv4pawdM8J6Dda3cp808kQ2W9sv9+aZsJGo/2jQBzLOsY3MwVR1JNfVvxK+DVtq3wy+BfiDxp4tsPAHhrT/BcdncfbI2m1O4l895PKtrQfMzbWHzNhRkVwsF54F/ZzYy2U+l/FH4oxHC3Cp5ugaC/95Sf+PudT0P3FIp/7VHiTVPGWl/BDXtcvZNT1q/8AA6zXN7NjfLI13JljjgdOg4oAydd+Odl4Z0G78K/CTSbjwXoN0DFf67dSB9d1hen72Yf6iM/88o/zrx6GNYQqooVeTx9etLilXqMUAd54y5+D/wAJP+uWr/8ApWK4RuprufGRP/Cn/hL/ANctX/8ASsVwp615GV/7s/8AFL8zat/E+SCiiivXMQooooAKKKKACiiigAooooAKKKKACiiigAooooAK7Dwz/wAkq+J//XHTP/Sk1x9dh4Y/5JV8UP8Arjpf/pSa83MP93fqvzR52P8A92l8vzOP7UUUV6R6KLK6hdAACZsfU0f2ldf89m/M1Worb21T+ZnoLMMYtFWl97LP9pXX/PZvzNH9pXX/AD2b8zVaij29X+Zj/tLG/wDP6X3ss/2ldf8APZvzo/tK6/57N+dVqKft6v8AM/vF/aOM/wCf0vvZZ/tK6/57N+dH9pXX/PZvzqtRR7er/M/vH/aOM/5/S+9ln+0rr/ns350f2ldf89m/Oq1FL21X+Zh/aOM/5/S+9i7icknJPWkoorE89tyd2Nk/1bfStDVs+bFn/nhH/Ks+T/Vt9K0dVz5sX/XCP+VdVL+BU+R7WB/3TF+kfzKFFFFcp4gUUUUAFFFFAHYeMP8Akl/wy/7iv/pQtcZk7lAVmZiFVVGSxJwAB3JPauz8Yf8AJL/hj/3Ff/Shau/CXSr0R+JvEel6a2sa5olrF/ZdjHH5hE8zFftGz+LylBI9zXiQxCwuHq1X0k/zPGjiFhaVWo+kmYvjD4e614CtNIm1pbaJ9SD7LeKYPLAyBSUlA+62GHH4VD4R8F6n401J7axRYrW3HmX2ozECCxiwSZJDnphWwB1IxWXrWjap4fvnGu2l/aajOGun/tBGEs2WOZMHk5Oa9FsfFGn/AAw8Cr4e/si08Ua34kSK+1KOa6KW9upI+zW7lfvHb8zAEAFuayr4rE0cInC06knpbb8+i8zOricTSwqlG06ktrbf0kc9480Xwzpvhnw7rHhefULm0vbq8spZtQYbrloAp81EA+QMWIA9Md6zfHXhkeCdcg0kTyXl+tlby3kO0DybqVdxgXHXAKj1ya7nWr7QF+JngLw9df2fZ+H/AA7OsmomzcmzW6lfzZgjEkmNSEXOT3rPv9S8N+G/Hllrl/qTeL9cbXP7V1ObTnzZwQhiywpn/WyZ2HPQBcVwYfGYiCpxnzNvmfdvsmcWGxVeMaamm2+Z92+y8jlPGXhs+DfFmoaE94l9LZCNZpo02gSsgZ48ZP3CcZ71ofDTwXD478US6feX7adYWtlNqF1PGBvMceMqmeMnPU9AKreMtQ8O6heSyaFDq091c3ct7eatqzqrzM5J8tYVyFUE53E5OK6z4J2F+8fjTUtK0yPWtVtdLjtrWwmK7JPPlAk3ZIwuxTk56Gu+tiq0ctlVd4zt101/rudtXEVY5fKq7xnbrpqc/wCJ/Dejr4U8O+IPDkOsWy6xeyWMGnazIkktyBjbNEVA+QsQvPGTwa9Pb4JafZabf+EYLS31bxc+lNdXGqMZB9ju9yeVEmfkEeCe5JwSa5/xX4k0i1+MngfWdWmtkm02GJtattNlNzaWLxsxjigx6DaWVcgGpdI/aGvbfS/El5q81xrt9q+oGKLRxI0EVnY7WBdHwQHbKjHJ4zXyeIlmuIw9NYa/fV9b2Sv1S36I+YxFTNMRh4LD3fV/fZK/Xuc1D4W8Ma74+8JeFvDMt9qt0b77PrGo3B2292qENI0C5yqALIM+mKo/EzS/Cei+ILiy8MX91qE8d5N9qBULaWqZOyCMkbmZehYnFN0rx1aeGLrWLnwxoDaFcXmm/wBn2sz3zTy2TFsyTKxXlmUBcDGMZ9azvE3i678XfZZb+x0xNQiOZtSs7UQ3F4duAZiDtY9+AMmvocPQx31mnObl7NLW7V233XZeR9BhqON9vTlNvkS1u1dt/ovI0vhqMXPjH1/4RPUf/ZK4vP8AxKf+2H/stdp8Nf8Aj48Y9v8Aik9R/wDZK4r/AJhP/bH/ANlr1sP/AL5X9I/kejh/98r/APbv5He/GT/kdrH/ALAOm/8AogVxddp8ZP8AkdrH/sA6b/6IFcXSyv8A3SPz/MWW/wC6x+f5hRRRXrHqBRRRQAUUUUAFFS/ZZ/8AnjJ/3waPss//ADxk/wC+DQBFRUv2Wf8A54yf98Gj7LP/AM8ZP++DQBFRUv2Wf/njJ/3waPss/wDzxk/74NAHbeA/+SZ/F/8A7Atl/wClq1wleg+A7Of/AIVn8Xv3EvzaNZAfIeT9sU1wn2O4/wCeEv8A3wa8bBf71ifWP5GtTaHoVpf9Wfof5V7N+09/yEvhP/2TjRv5S14/JZ3Bjb9xL0P8B9K9k/act5pNS+FBWGRgPhzowOEJ5/e8V7JkeMUVL9juP+eEv/fB/wAKPsc//PCX/vg/4UARUVL9jn/54S/98H/Cj7HP/wA8Jf8Avg/4UARUVL9jn/54S/8AfB/wo+xz/wDPCX/vg/4UARV6p8Gf+Sa/tBf9iVF/6XxV5h9jn/54S/8AfB/wr1T4MWdx/wAK3+P6+RLlvBUYUbDyft8XSgDyb/E0VJ9ln5zBJ1P8Bpfss/8Azxk/74NAEVFS/ZZ/+eMn/fBo+yz/APPGT/vg0ARUVL9ln/54yf8AfBo+yz/88ZP++DQBFRUv2Wf/AJ4yf98Gj7LP/wA8ZP8Avg0ARV7H+x7/AMnFaB/2DtX/APTfPXkP2Wf/AJ4yf98GvY/2PrWZf2iNAYwyKv8AZ2rclSB/yD56APD9P/48bf8A3F/lXt/7PWhan4n8B/HvStG0+51XVLjwfAsFnZxmSWU/bozhVHJOAa8W0+zuPsMH7iX7g/gPp9K6rwDo/jjUNfNt4Htdfl1qSJi0egmRJzECM52EZUEjrxkigC4/wN+JsiMv/CtvF65GMro82f5V9L6H8YvjB4Q+CZ8LeFfgnqnhHxNDPZxR6hp/hQyw3NvGG82WcSKS0zNtxkEDk5BryP8A4QH9pjoNF+KB/wC21z/8XR/wgH7TH/QG+J4/7b3I/wDalAHtvh+68Y+NPhRrvwzuvAHirQLbVPCN/dajqV9ojQRXviNrgXHmYjXo4QInTHAxXytH8EPihJGrN8M/FyswyVOjzZHt92u7/wCFf/tMf9Ab4nf+BFz/APHKX/hAP2mP+gN8Tv8AwIuf/jlAHB/8KO+J/wD0TTxd/wCCeb/Cj/hR3xP/AOiaeLv/AATzf4V3n/CAftMf9Ab4nf8Af+4/+OUf8IB+0x/0Bvid/wB/7j/45QBwf/Cjvif/ANE08Xf+Ceb/AAo/4Ud8T/8Aomni7/wTzf4V3n/CAftMf9Ab4nf9/wC4/wDjlJ/wgH7TH/QG+J3/AH/uf/jlAGloPw48XaX+yn8X7PxF4W1nw9FpupaP4gtZdVsngVmV2gmCbh12MM+1eQyfETxTJ4Hh8FnxBfReE4ZXlXR4JBFA7scsZdoBkyezkgdq3/iDZ/Fvw5bxab46PjPT7a+UslnrlxOYrkKRn5WYhgDj9K4P7LP/AM8ZP++DQBCqiNQqgKoGAo6CvY/2gv8AkSfgB/2ISf8ApVLXkX2Sf/njJ/3wa9h/aAt5m8E/AHEUhx4DQHCnj/SpeKAPGaUZ3DFSfZZ/+eMn/fBo+yz5H7mT/vg0LcDtPGX/ACR/4S/9ctX/APSsVw1d/wCMrOf/AIVD8J18iQssWrEjYeM3YxXDfY7j/n3l/wC/Z/wryMq/3Z/4pfmbVv4nyRDRUv2Sf/njJ/3waPss/wDzxk/74NeuYkVFS/ZZ/wDnjJ/3waPss/8Azxk/74NAEVFS/ZZ/+eMn/fBo+yz/APPGT/vg0ARUVL9ln/54yf8AfBo+yz/88ZP++DQBFRUv2Wf/AJ4yf98Gj7LP/wA8ZP8Avg0ARUVL9ln/AOeMn/fBo+yz/wDPGT/vg0ARUVL9ln/54yf98Gj7LP8A88ZP++DQBFRUv2Wf/njJ/wB8Gj7LP/zxk/74NAEVdh4Y/wCSVfFH/rjpf/pSa5T7LP8A88ZP++DXYeGbWZfhX8TgYZAWi0wD5Dz/AKSelebmH+7v1X5o87HL/ZpfL8ziqKl+yz/88Jf++DR9ln/54yf98GvSPQWxFRUv2Wf/AJ4yf98Gj7LP/wA8ZP8Avg0DIqKl+yz/APPGT/vg0fZZ/wDnjJ/3waAIqKl+yz/88ZP++DR9ln/54yf98GgCKipfss//ADxk/wC+DR9ln/54yf8AfBoAioqX7LP/AM8ZP++DR9ln/wCeMn/fBoAioqX7LP8A88ZP++DR9ln/AOeMn/fBoAgk/wBW30rR1XPmxf8AXCP+VU5LWfy2/cS9P7hrQ1S1naSIiGQr5MYyFJ7V1U/4FT5Ht4H/AHTFekf/AEozKKlNpP18iX/vg0fZJ/8AnhL/AN8GuU8QioqX7LP/AM8ZP++DR9ln/wCeMn/fBoAipeBipPss/wDzxk/74NH2Wf8A54yf98GgDqvGkiw/Cv4ZSPkJnVF3bSRk3AriodUS1uUnt7ya0nTgS27tGw/Fea6zR/HnjXw3psWnaTrd/YafEWaO2jhjZVLHLEbkJ5Jz1q3/AMLY+Iv/AEM2o/8AgLD/APG68WNPFU+eCpxlFtvV9/Kx5Cp4mm5xjCMott6vv8jibnWBezGW6vp7uY8GS4d5G+mWyahW8tV4V1A6kBDz+ld5/wALY+Iv/Qzaj/4Cw/8Axuj/AIWz8Rf+hm1H/wABYf8A43WkZY2CUY0opf4v/tS4vFxSUaUUvX/gHCLeWsahVkCrjGFUgfypy31sowJAB7Kf8K7r/hbXxF/6GbUf/AWH/wCN0f8AC2viL/0M2o/+AsP/AMbrT2mO/wCfcf8AwJ//ACJXPjP+fcf/AAL/AIBwn2+3/wCev/jppJLq2kBBnYAjadu5cj0OOo9q7v8A4Wx8Rf8AoZtR/wDAWH/43S/8La+Iv/Qzaj/4Cw//ABupc8bJWlSjb/E//kQ58Y1Z04/f/wAA4KO6tIUCI4RF4CqhA/lTvt9t/wA9f/HT/hXdf8LZ+I3/AEMupf8AgLD/APG6v6D48+KPibVrfTLDxHfyXk4dkWSCBFwiF2JYx4HCmpdbGwV3Tikv73/AE6mLhG7pxSX97/gHm3262/56/wDjp/wo+323/PX/AMdNdzH8WviJNGrjxNqQDDP/AB6w/wDxunf8LX+In/Qz6l/4Cw//ABumquOeqpx/8Cf+RSqYx6qEf/Av+AVvhjMk1x4z2EsF8J6jk7Tj+CuN/wCYT/2x/wDZa7TUfiP481bT7iyvvEOoXNlcxmKaFreJRIhHKkrGDg/WuUurOdbKYCCXHlkD5D6UYSlWjVq1qyS5rbO+3yQYWnWjWqVayS5rbO+x2nxk/wCR2sf+wDpv/ogVxddz8YrWZ/GtiVhkYf2Fpo4Qn/lgK4v7JP8A88Jf+/Z/wpZX/ukPn+ZGW/7rH5/mRUVL9kn/AOeEv/fBo+yT/wDPCX/vg16x6hFRUv2Wf/njJ/3waPss/wDzxk/74NAEVFS/ZZ/+eMn/AHwaKAD7Zcf8/E3/AH2aPtlx/wA/E3/fZqKigCX7Zcf8/E3/AH2aPtlx/wA/E3/fZqKigCX7Zcf8/E3/AH2aPtlx/wA/E3/fZqKigD0DwHeXH/Cr/i8fPlyuj2RB3nj/AExRXCm8uMn9/L/32a7XwF/yS/4wf9gay/8AS1a4VvvGvGwX+9Yn1j+RrU2h6DpLy48tv38vQ/xmvZf2mriWPUPhQFmkUH4daOThyOf3vNeKyf6tvof5V7L+07/yEPhP/wBk50f/ANq17JkeRfbJ/wDnvL/32f8AGk+2T/8APeX/AL7P+NRUUAS/bJ/+e8v/AH2f8aPtk/8Az3l/77P+NRUUAS/bJ/8AnvL/AN9n/Gj7ZP8A895f++z/AI1FRQBL9sn/AOe8v/fZ/wAa9U+DN5cf8K4+P58+XK+Coyp3ng/bouleTV6n8Gf+Sb/tBf8AYlR/+l8VAHmH2qfP+vk/77NL9qn/AOe0n/fZqH/GloAl+1T/APPaT/vs0fap/wDntJ/32aiooAl+1T/89pP++zR9qn/57Sf99moqKAJftU//AD2k/wC+zR9qn/57Sf8AfZqKigCX7VP/AM9pP++zXsn7HdxM/wC0ToCtLIynTtW4LEj/AI8Jq8Wr2X9jv/k43w+P+odq3/pBNQB4vp95cfYoMzy/cH8Z9PrXt/7LeqXtrrXxPmhvLiKaP4eay6SJKwZGAiIYEHgg9xXhen/8eNv/ALi/yr2v9mH/AJCfxT/7JzrX8oqAOG8Hah428beJNA8OaV4m11tT1i7hsLfdqtwQHkYLuPz9ACSfpXqX7WnhmT4I/Fq08MeGPFvia50z+wrO8a5uNbuZDPK5kV5Ad/AOwHA4FXf2E9O8FyfFzTNU13XNRtvE+nR3VxpWjWdiJI7hEspGeZ5ScKyjdtTqSB26V/BLeBvFq/ELxtrL+JPiD4N+Hfh61fQdN8SyLBNcPLMyrbz+V1hEjZA3ZwTknpQB4t/wmniX/oaNf/8ABtcf/F0f8Jp4l/6GjXv/AAbXH/xddn+0V4J0fwR8Sk/4Rq3+yeF9d0qy8QaVbhy6ww3EQLRKx5KpIrgZ7cdq80oA2P8AhNPEv/Q0a9/4Nrj/AOLo/wCE08S/9DRr3/g2uP8A4useigDY/wCE08S/9DRr3/g2uP8A4uj/AITTxL/0NGv/APg2uP8A4useigD2n4oa3qWp/sz/AANuLzUby8uWu9eVp7i4eSRgJ0ABYkk4rxr7VP8A8/E3/fxv8a9Y+IX/ACa/8C/+v3X/AP0eleR0ASrdT/8APeX/AL+H/GvYf2griZPBfwA2yyLu8BIThjyftUnNeM17F+0J/wAiX+z9/wBiCn/pVJQB5F9qn/57Sf8AfZo+1T/895P++zUVFC3A7/xndz/8Kh+FDefJuaHVsnecnF2MVwv2y4/5+Jf+/h/xrtvGX/JH/hP/ANctX/8ASwVwleRlf+7v/FP8zat8fyRL9qn/AOe0n/fZo+1T/wDPaT/vs1FRXrmJL9rn/wCe8v8A32aPtk//AD3l/wC+z/jUVFAEv2yf/nvL/wB9n/Gj7ZP/AM95f++z/jUVFAEv2yf/AJ7y/wDfZ/xo+2T/APPeX/vs/wCNRUUAS/bJ/wDnvL/32f8AGj7ZP/z3l/77P+NRUUAS/bJ/+e8v/fZ/xo+2T/8APeX/AL7P+NRUUAS/bJ/+e8v/AH2f8aPtk/8Az3l/77P+NRUUAS/bJ/8AnvL/AN9n/Gj7ZP8A895f++z/AI1FRQBL9sn/AOe8v/fZ/wAa7Hw1dTH4V/E4maQlYtMI+c8f6SelcTXY+Gf+SU/E/wD65aZ/6VGvNzD/AHd+q/NHBj/92l8vzOTN1Pz+/l/77NH2qf8A57Sf99moqK9I7uhL9qn/AOe0n/fZo+1T/wDPaT/vs1FRQMl+1T/89pP++zR9qn/57Sf99moqKAJftU//AD2k/wC+zR9qn/57Sf8AfZqKigCX7VP/AM9pP++zR9qn/wCe0n/fZqKigCX7VP8A89pP++zR9qn/AOe0n/fZqKigCX7VP/z2k/77NH2qf/ntJ/32aiooAdJdz+W2J5Rx/fP+NaWq3UytEBNIB5MZwHPoayJf9W30rR1g7WjJ6eTH/I11Uv4FT5Ht4H/dMX6R/Mrfa5/+e8v/AH2aPtc//PeX/vs1cGlxW9vFLdzsglXeixpu4+tVr61+x3TRbt4wCG9QeRRPDVacOeSMsRleJwtH29VJLTqrq+110uM+1z/895f++z/jR9sn/wCe8v8A32f8aj49KSuU8kl+2T/895f++z/jR9sn/wCe8v8A32f8aipfwoAk+2T/APPeX/vs/wCNH2yf/nvL/wB9n/GoqKBEv2yf/nvL/wB9n/Gj7ZP/AM95f++z/jUVFAyX7ZP/AM95f++z/jR9sn/57y/99n/GoqKAJftk/wDz3l/77P8AjR9sn/57y/8AfZ/xqKigCX7ZP/z3l/77P+NdN8NfFFv4Z8e6VqOq3U0WmIJ4biUbn8pZIXTftHJwWBwK5Sum+Geg2fifxtbabqEfnW0tpeSBNxX94lu7xnI9GAPviuLF8iw8/abW6HLiuT2E/abWOYtJ7iG1jiNxI3ljYG3t8wBwD+I5/GpvtU//AD3k/wC+z/jVSxdprG3kf77xqzfUipq6aatBLyRvBcsUvIl+13H/AD3k/wC+z/jUd1d3H2WbE8v3D/GfT60lR3X/AB6z/wC4f5VZZ3vxiupk8a2IWaRQdC00nDnr5Ari/tc//PeX/v4f8a6/4yf8jtYf9gHTf/RAri68rK/90h8/zPLy3/dY/P8AMl+1z/8APeX/AL7NH2uf/nvL/wB9moqK9Y9Ql+1z/wDPeX/vs0fbJ/8AnvL/AN9n/GoqKAJftk//AD3l/wC+z/jRUVFABRRRQAUUUUAFFFFAHd+Av+SYfGH/ALA1l/6WrXCt9413XgL/AJJh8Yf+wNZf+lq1wrfeNeNgv96xPqvyNam0PQZJ/q2+h/lXsv7Tv/IQ+E//AGTnR/8A2rXjUn+rb6H+Vey/tO/8hD4T/wDZOdH/APateyZHjlFFFABRRRQAUUUUAFep/Bn/AJJv+0F/2JUf/pfFXllep/Bn/km/7QX/AGJUf/pfFQB5X/jS0n+JpaACiiigAooooAKKKKACvZf2O/8Ak47w/wD9g7Vv/SCavGq9l/Y7/wCTjvD/AP2DtW/9IJqAPEtP/wCPG3/3F/lXs/7MGpaPZ+LfGdhrWvaf4bh1vwbqekW9/qkhS3W4m8sIGIBx0J/CvGNP/wCPG3/3F/lXqvwq+GPhXxZ4H8Z+LvGXiXVfDujeHbmytNukacl7LPJc7tuVZhgAqPzoA3/D/wADZ/C+oW2oaV8ePhvpupW6Okd3a6vOsih0KOAfK6FSQfYmorP4Arp+n3tja/HP4b29lexpFdW8erzrHOqNuQOojwwDcjPQ1R/4Rv4A/wDRR/iB/wCEnD/8XWx4Q+FPwd+IHiK20Lw34z+JGs6xcK7xWdr4RhaRlQbmOPM6Ad6AKl1+z+l6tstz8cvhvcC2hW3gE2rzv5USklY0zH8qgk4Uccmof+GcbP8A6LV8Mf8AwZzf/Gqim8K/AW2nlgm+InxAinhdopI5PCUIZHU4ZSPM4IIxTf8AhG/gD/0Ufx9/4ScP/wAcoAsf8M42f/Ra/hf/AODOf/43R/wzjZ/9Fr+F/wD4Mp//AI3Vf/hG/gD/ANFH8ff+EnD/APHKP+Eb+AP/AEUfx9/4ScP/AMcoAsf8M42f/Ra/hf8A+DKf/wCN0f8ADONl3+NXwwP01Kb/AON1X/4Rv4A/9FH8ff8AhJw//HKP+Eb+AP8A0Ufx9/4ScP8A8coA0fjhb6L4b+EPwm8G6d4u0PxdqWiy6tcX02gzNLDEJ5UaMEkDkgH8q8Vr1uHwt8Appool+JPj1GkdUBbwpCACTgZ/ee9cr8ZPh8nwn+K3ijwbHfPqkWi3YtkvZIxG8wMaOGZRwD8+OPSgDjq9i/aE/wCRL/Z+/wCxBT/0qkrx2vYv2hP+RL/Z+/7EFP8A0qkoA8dooooW4HdeM/8Akj/wm/656t/6WCuFruvGf/JH/hN/1z1b/wBLBXC15GV/7s/8U/zNq38T5IKKKK9cxCiiigAooooAKKKKACiiigAooooAKKKKACiiigArsfDP/JKfif8A9ctM/wDSo1x1dh4X5+FPxP8A+uWmf+lRrzcw/wB3fqvzR5+Yf7tL5fmcfRRRXpHf0CiiigYUUUUAFFFFABRRRQAUUUUAFFFFADJf9W30rS1j70X/AFxj/lWbL/q2+laOsNtaInp5Mf8AI110v4FT5HtYL/c8X/hj+ZZS1e+0uyeVtsEQfe7dl3dBTby1W+tTqIcRrvMYjbqQPuge9RX07x2dlAJMxiFWZe2T3q1cTRr4e0snDMk+4r9Aa9u9OfNTktops+458LWp1MNVV/Z0ouTb+Jq1reUbjIvDsk3SZQVwZhj/AFXGfxpmpaBLp8fmrIs0OA27ODg9yKt2+u2sUV9GqOPtCNlmOTuIxgegqla6k5uLmeZs7bcIqkZBI6DHeplTwLShHd+ewqmF4ddKnQpq9SppzKT923V3+9lLyRM8EcAZ5nADL/tdwKBazNcGBY2eYZBReSMda2JJNviBpYIWlG0K2zquRyRUdo76bql4i3C/aGUCOV+hOcnJ9a5vqcJPV9bHkf2Lh6lSPPK0facrcdrW0avu36mOylHZSMMpwR6GkqxfQiKTPnCWRiS23oD9e9V68mrT9nNxPkMXh3ha8qT6Py26Xt1CiiisjkCiiigAooooAK0vDPh278W+ItM0WwkSK9v5vIhkkcoqkgnLEcgYBrNrW8J+KpvBXiTT9bt4oJ7izdjHHcHCFmRk7dxuz+FZVeb2cuRXdtDOpfkfKtehjxsGDAY+RmT5enBI49uKdTIIhDEqA5xkk+pJyf50+nT5uRc+4U+bkXPv1Co7r/j1n/3D/KpKjuv+PWf/AHD/ACqzRHcfGT/kdrD/ALAOm/8AogVxddp8ZP8AkdrD/sA6b/6IFcXXlZX/ALpH5/meXlv+6x+f5hRRRXrHqBRRRQAUUUUAWf8AQfW6/JaP9B9br8lqtRQBZ/0H1uvyWj/QfW6/JarUUAWf9B9br8lo/wBB9br8lqtRQB6L4DWx/wCFY/FzDXOP7Is9+QvT7YvT3zXCf6D3a5z/ALq12PgH/kmPxf8A+wPZf+li1weBXjYL/esT6x/I1qbQ9CzJ9g8tvmuc4P8ACv8AjXsf7TX2Nb74UeY0+7/hXWj42hcY/e/rXiMg/dt9DXsv7T3/ACEvhP8A9k40f/2rXsmR5P8A6D63X5J/jR/oPrdfkn+NVaKALX+g+t1+Sf40f6D63X5J/jVWigC1/oPrdfkn+NH+g+t1+Sf41VooAtf6D63X5J/jXqnwXWxb4cfH7m6I/wCEMj38LnH26Lp75ryGvV/gqP8Ai2v7QP8A2Jcf/pdFQB5l/oP/AE9D8EoxY/3rr8kqrRQBaxY/3rr8koxY/wB66/JKq0UAWsWP966/JKMWP966/JKq0UAWsWP966/JKMWP966/JKq0UAWsWP8AeuvySvY/2P8A7H/w0RoAja483+ztWxvC4/48Js14lXsf7HX/ACch4e/7Bur/APpvnoA8f0/7B9hg5uj8g/u+leyeB/sR/ZY+MWDcBP7b0Hd93Od0mMV4hp4/0GD/AHB/KvoP4GeBtd+Jf7PPxh8O+GbJdU1yXVdEuI7ITxxO8aNIXYF2AwPrQB4c32Hj5rnkgchQOTj8q+zvg38GfE/7O/gHxj8QrW70C98QzfY7XTmt9etios1kFxehJM7fMdI1UIPmIPFeD/8ADHvxqH/MhTf+DKz/APjtbNx+zX8eLj4dWHghvh7GNBstXl1uNBe2QkNzJGI2JbzeV2jgY6k80AQ6R8MdI+OWseL/AIi3Ovp8N/BepeIzb2lxrcZuGlvbp962qLF94jfy3QA/WvLvGfhNvAXjHXfDOqi4TUtHvZbG48vaVLI2NynPIIwR7GvdP+FK/HtfAngfwl/wrOF9L8KazNrkYfVLU/b7iSRXHnL5o4UKVGDkgmsHxp+zX8evHvjLXfE+reA2bUtZvZL648vUrMIruc7VHm8KBgD2FAHiGLH1uvyT/GjbYet1+Sf416t/wx/8av8AoQJv/BnZ/wDx2j/hj/41f9CBN/4M7P8A+O0AeV7dP9br8k/xo26f63X5J/jXqn/DH/xq/wChAm/8Gdn/APHaP+GP/jV/0IE3/gzs/wD47QB5bCtl9ptthut3nxYztA++tet/tffYv+GoPiR5jXAf+0kztC4/494vWmWf7H3xo+2WxfwHNGizRszf2lZnADgk/wCt9qq/tdyx3H7UHxKeN0lT+01G6NgwyIIgeR7g0AeXj7Bnhro/gtev/tAC0Pgv4A72uM/8IGm3aF6fapOue9eKgc17D+0F/wAiX+z/AP8AYhJ/6Vy0AeUf6D63X5J/jQPsPrdfkn+NVaKFuB6L4yWx/wCFR/Cg5uDH5Wq7cBc/8fYznn1rhf8AQP8Ap6/JP8a7Hxh/yR74S/8AXPVv/SwVwdeRlX+7P/FP8zat8fyRb/0D1uvySj/QPW6/JKqUV65iW/8AQPW6/JKP9A9br8kqpRQBb/0D1uvySj/QPW6/JKqUUAW/9A9br8ko/wBA9br8kqpRQBb/ANA9br8ko/0D1uvySqlFAFv/AED1uvySj/QPW6/JKqUUAW/9A9br8ko/0D1uvySqlFAFv/QPW6/JKP8AQPW6/JKqUUAW/wDQPW6/JK7DwyLI/Cv4mbTcAeXpm/IXOPtJxj8a4Sus8G69oOn+G/Fuja/JqUNtrUdqsc+m26zujRSF+VJHB4rzswUpYaXKr7bb7nn49N4aXKrvT8zniLDJGbr8lpP9A9br8lre+y/Dv/oYPF//AIJof/i6T7L8O/8AoYPF/wD4Jof/AIusP7Tp/wDPuf8A4CyPr8f+fcv/AAFmF/oPrdf98rRix9br/vla3fsvw7/6GDxf/wCCaH/4uj7L8O/+hg8X/wDgmh/+Lpf2lT/59z/8BYfX4f8APuf/AICzCxY+t1/3ytGLH1uv++Vrd+y/Dv8A6GDxf/4Jof8A4uj7L8O/+hg8X/8Agmh/+Lo/tKn/AM+5/wDgLD6/D/n3P/wFmFix9br/AL5WjFj63X/fK1u/Zfh3/wBDB4v/APBND/8AF0fZfh3/ANDB4v8A/BND/wDF0f2lT/59z/8AAWH1+H/Puf8A4CzCxY+t1/3ytGLH1uv++Vrd+y/Dv/oYPF//AIJof/i6Psvw7/6GDxf/AOCaH/4uj+0qf/Puf/gLD6/D/n3P/wABZhYsfW6/75WjFj63X/fK1u/Zfh3/ANDB4v8A/BND/wDF0fZfh3/0MHi//wAE0P8A8XR/aVP/AJ9z/wDAWH1+H/Puf/gLMLFj63X/AHytGLH1uv8Avla3fsvw7/6GDxf/AOCaH/4uj7L8O/8AoYPF/wD4Jof/AIuj+0qf/Puf/gLD6/D/AJ9z/wDAWYEgsNjc3XQ9l9Kv6p9j3RiQ3GfKj+6FxjBxWg1r8OcHPiDxf0P/ADBofT/fq3PbeB2giOp6z4kgusYEdnpkciGME+WxJYYYrgkdjXoUcwpvD1XyS0t9lnuYHHQ+pYt8kto/Zfc5fbY4+9dY+i/40v8AoOMbrrH0X/Gt77L8Ov8AoYPF/wD4Jof/AIuj7L8O/wDoYfF//glh/wDi64/7Tj/z7n/4CzxP7RW/JP8A8BZgbbD1uvyX/GjbYet1+S/41v8A2X4df9DB4v8A/BLD/wDF0fZfh1/0MHi//wAEsP8A8XS/tKn/ACT/APAWL6/D+SX/AICzCjayhBCPdqD1xtH9aaVsD3uvyX/Gt/7L8O/+hg8X/wDglh/+Lo+y/Dv/AKGDxf8A+CWH/wCLp/2rBqzhP/wFlvM24qDjOy6crMHFj63R/Bf8aP8AQPW6/JK3vsvw6/6GDxf/AOCWH/4uj7L8Ov8AoYPF/wD4JYf/AIul/aVP+Sf/AICyPr8f5Jf+Aswf9A9br8ko/wBA9br8kre+y/Dv/oYPF/8A4JYf/i6Psvw7/wChg8X/APglh/8Ai6n+06f/AD7n/wCAsPr8P5Jf+Aswf9A9br8ko/0D1uvySt77L8Ov+hg8X/8Aglh/+Lo+y/Dr/oYPF/8A4JYf/i6f9pU/5J/+AsPr8f5Jf+Aswf8AQPW6/JKP9A9br8kre+y/Dv8A6GDxf/4JYf8A4uj7L8O/+hg8X/8Aglh/+Lpf2nT/AOfc/wDwFh9fh/JL/wABZg/6D/euvySun+HMugxa5qcepSiO3udGvoEkvAm1ZTHlCvo+Rgd8mq32X4df9DD4v/8ABND/APF1oaD4X8C+JtUTTrHW/Fk928UsyxtpEC5WNC7HJfqFUnFYYnH0qlGUXGaVt+V6HPiMdTlRlGUZxTW/K9DjLT7EbWEsbsMVBOVT0+tTbbD1uvyT/Gt2OH4cTRo6eIfFxRhkEaNDgj/vunfZvh1/0MHi7/wTQ/8AxdbxzGmopck//AWbRx0IxS5J/wDgLOf22Hrdfkn+NR3X2D7LNzdY2N2X0+tdH9l+HP8A0MHi7/wTw/8AxdNks/hzJGyHxB4uwwIP/Emh/wDi6f8AaUP+fc//AAFlf2hD/n3L/wABZq/F77E3jSxDm43f2Fp2NoXGPIGO/WuN22H965/Jf8a2fiJ4i07xV4qW/wBKF19gisLWyia9jEcr+VHsLFQTjNc3V5ZGUcJBSVnrv6jy6Mo4WKkrPX8y3tsP71z+S0bbD+9c/ktVKK9Q9It7bD+9c/ktG2w/vXP5LVSigC3tsP71z+S0VUooAKKKKACiiigAooooA7vwD/yTH4v/APYHsv8A0sWuEru/AP8AyTH4v/8AYHsv/Sxa4SvGwX+9Yn1X5GtTaHoNk/1bfQ/yr2T9pz/kIfCc/wDVOdH/APateNyf6tvof5V7J+05/wAhD4Uf9k60f/2rXsmR47RRRQAUUUUAFFFFABXq/wAF/wDkmn7QH/Ylx/8ApdFXlFer/Bf/AJJp+0B/2Jcf/pdFQB5RRRRQAUUUUAFFFFABRRRQAV7H+x1/ych4e/7Bur/+m+evHK9j/Y6/5OQ8Pf8AYN1f/wBN89AHiliwXT4CSABGMk/SiSS2k+9KmfaTH8jXo37L8Ol3nx0+Gdprdha6ppF3q0Frc2l5GJIZFkVkG5TwQGZTg+ldn4i/aO1vQ/E2t6Wfh78MR9g1C5s+fCcROIpWQZ+frhaAPBP9G/5+P/I5/wAaP9G/57/+Rz/jXu+j/tEeKfEWsWGk6T8MvhtqGqX86W1raW/hCJpJpGOFVRv6/wAhk07xH+0F4s8I+IdS0LWfhl8M7HVtNna2u7WTwpCWikGMqSHIPUdDjmgDwb/Rv+e//kc/40f6N/z3/wDI5/xr3vR/j94v8Q2+rz6Z8L/hrexaRZNqN+8XhOHFtbKwVpWy4+UEgcZPNUB+1BrX/RPvhgf+5Ui/+KoA8T/0b/nv/wCRz/jR/o3/AD3/API5/wAa+g/+F5eNP+ELPi3/AIVf8M/+Eb/tH+yf7Q/4RSHb9q2eZ5eN+c7ec4x2zmsf/hqHWv8Aon3wx/8ACTi/+KoA8U/0b/nv/wCRz/jR/o3/AD3/API5/wAa+gvDfx08Y+MG1ZdH+GXwwvG0rTptWvP+KWhTyrWIDzJOX5xkcDk5rHX9qLWWUMPAHwxIIyP+KSi/+LoA8V/0b/nv/wCRz/jUiTW8a4WWMD/fFez/APDUGs/9E/8Ahj/4SUX/AMXQ37UWtKpP/CvvhicD/oUov/i6APHY5Fk5Vgwz1U5r2L9oL/kS/wBn/wD7EJP/AErlpv7SktlqV58MNdtNE0nQJ9e8F2up31rotottbtcNPMpcIvAOFA+gFO/aC/5Ev9n/AP7EJP8A0rloA8eooooW4HeeMP8Akj3wl/656t/6WCuDrvPGH/JHvhL/ANc9W/8ASwVwdeRlX+7P/FP8zat8fyQUUUV65iFFFFABRRRQAUUUUAFFFFABRRRQAUUUUAFFFFABR1oooAbt9zS7fc0tFACbfc0bfc0tFACbfc0bfc0tFACbfc0bfc0tFACbfc0bfc0tFACbfc0bfc0tFACbfc0bfc0tFADJB+7bnPyn+VaOrEiSLn/lhF/I1QdS0MhAJABycdOK1NStZJlEqj5Egi3E/Qjiu+jCUqNRJdj6LLaNWrhcUoRbbUfwepmbvc/nRk+p/OjGKK4D50Mn1P50ZPqfzoooAMn1P50ZPqfzooqdQDJ9T+dGT6n86KKoAyfU/nRk+p/Oiip1AMn1P50ZPqfzooqgDJ9T+dGT6n86KKnUAyfWuw+DczW/xa8IsgyZL8QMv95XRlYfkTXH1a0uS/j1K3fSvtX9oxlpYWsgTKm1SWdccjC5JPYZrKvD2lKUH1RjWip0pRb3RV8lbSa6t423Rw3EsaH/AGVcgfoKKbHt8sFDuVvm3ZznPOc06qpRcKcYt3skFGLhTjFu9kgooorU2CiiigAooooAKKKKACiiigCT7PL/AM8pP++DR9nl/wCeUn/fBp3265/5+Jf++zR9uuf+fiX/AL7NADfs8v8Azyk/74NH2eX/AJ5Sf98Gnfbrn/n4l/77NH265/5+Jf8Avs0AN+zy/wDPKT/vg0fZ5f8AnlJ/3wad9uuf+fiX/vs0fbrn/n4l/wC+zQB3PgG3l/4Vl8Xv3UmW0eyA+U8/6YvSuE+zy/8APKT/AL4Nd94Bvbj/AIVl8Xj58mV0ezKneeD9sWuCN5cgnFxNj/rof8a8bBf71ifWP5GtTaHoRyW8vlt+6k6H+A+lex/tNRudQ+FGI3P/ABbrR+in/prXj0l7c+W2biXof+Wh/wAa9j/aau547/4UhJpFB+HWjk7XIyf3vNeyZHjnkS/88pP++TR5Ev8Azyk/75NP+23P/PxN/wB9mj7bcf8APxL/AN9mgBnkS/8APKT/AL5NHkS/88pP++TT/tlz/wA/Mv8A32aPtlz/AM/Mv/fZoAZ5Ev8Azyk/75NHkS/88pP++TT/ALZc/wDPzL/32aPtlz/z8y/99mgBnkS/88pP++TXq/wXt5f+Fa/H8eVJk+C48fIef9Oiryr7bdf8/Ev/AH2a9X+Ct9c/8K1/aAPnyZXwXGQd54P26IUAeT/Z5f8AnlJ/3waPs8v/ADyk/wC+DTlvbjaP9Il/77NH225/5+Jf++zQA37PL/zyk/74NH2eX/nlJ/3wad9suf8An5l/77NH2y5/5+Zf++zQA37PL/zyk/74NH2eX/nlJ/3wad9suf8An5l/77NH2y5/5+Zf++zQA37PL/zyk/74NH2eX/nlJ/3wad9suf8An5l/77NH2y5/5+Zf++zQA37PL/zyk/74NexfsdwSL+0boDtG6qNN1fLMpA/5B81ePfbbr/n4l/77Neyfsf3U8n7RWgK00jKdO1bIZyR/x4TUAed/Be3mX4ofDo+VICuv6aSdp4/0mOtT46Wzr8dPiUFicL/wkuoY2ocf69qzPg3eXH/Cy/h4DPLzr2mg/Of+fmOtP4/XNy3xy+J0cdxIh/4SPUFX5zgfvmxQB3vw7hk+CHwnj8fB47Hxz41lk0TwvdTggaTYAhLvU2wCVJJ8tGxkAEisv4zfs1+PPhjDfa7ruqaX4thS5hj1PUtJv2up7eeZd0RuVcBx5i4Ic5BrpPGfin4PfFRfCOpa5438XeGxo/h+y0WXwzp+g+fgwqd/lXG8IPMYsxYjuM1X8eftBaT4y8P/ABqvbYXlhq/jbUNHstO0uXcTbabZoMzPIPl8wlVUqOck4yOaAMT4LrJoPwb+PfiZkkT/AIkFr4dhypw0t5cAnt/CkZNJJ+y74gi+H7+JB4k8P/2hH4eXxTJ4WLSjUY9NbgTH5dme+3OTS2OoFv2O/Elvb6pD/aVx42tZL+1NwBcraraFYnVCdzL5jHkA471J42/ak1rxd4HbQLbw7p2g6je6bZ6RrGv2c0j3Oo2lqMRQhW+WFD1bbyxoA734e/CHUPG37E+oWaaiLHU7/wAS3fiLRdNuEY/2jHY2mJ0Q9EJAkbJ6lPevIdW/Z98baH8IbP4lX1jbW/h26MDLB5+b2OOckQSyQgZRHI4yc45xivTY/wBrTTdB+BXgjwtonhu6uPG+g6XfaaNe1CbbbWX2ssszwxKf3zmM7Qz4C5PBrH+Jv7XOofEz4Px+Bj4UtdCuGk097zWrO9dmuxaRCNFMZX5AQqcA4GD60AY/wsWXwv8As/8Axp8UbZIrnUorDwfZNtIbNxJ5tzj/ALZIBXj4t5RwIZAP9w16zqHiGFP2SdB0221VDqUnjq7uNQs/OHnhBZqsDlc7imN3PTPFeVfbrn/n4l/77NAEfkS/88pP++DSSQy+W37qTp/cNS/brn/n4l/77NI99c+W3+kS9P75oA9W+PtvN/YfwP8A3UnHw9swflPB+0z8VY/aAhdvBfwA2ozf8UFH0Un/AJepai+PN9c/2F8EB9olw3w+s2Pznkm5nyfrVj9oG6mj8F/AAJLIobwEhO1iMn7VJzQB459nl/55Sf8AfBo+zy/88pP++DTvt1x/z3l/77NH265/5+Jf++zQtwO68Y28o+D/AMJh5UmVi1YkbTxm7BrgzbTf88pP++DXfeNL24/4VD8Jz58mTDq2TvPP+liuEN9c/wDPxL/32a8fKv8Adn/il+ZtW+P5Ij+zy/8APKT/AL5NHkS/88pP++TT/ttx/wA/Ev8A32aPt1z/AM/Ev/fZr2DEZ5Ev/PKT/vk0eRL/AM8pP++TT/t1z/z8S/8AfZo+3XP/AD8S/wDfZoAZ5Ev/ADyk/wC+TR5Ev/PKT/vk0/7dc/8APxL/AN9mj7dc/wDPxL/32aAGeRL/AM8pP++TR5Ev/PKT/vk0/wC3XP8Az8S/99mj7dc/8/Ev/fZoAZ5Ev/PKT/vk0eRL/wA8pP8Avk0/7dc/8/Ev/fZo+3XP/PxL/wB9mgBnkS/88pP++TR5Ev8Azyk/75NP+3XP/PxL/wB9mj7dc/8APxL/AN9mgBnkS/8APKT/AL5NHkS/88pP++TT/t1z/wA/Ev8A32aPt1z/AM/Ev/fZoAZ5Ev8Azyk/75NHkS/88pP++TT/ALdc/wDPxL/32aPt1z/z8S/99mgBnkS/88pP++TR5Ev/ADyk/wC+TT/t1z/z8S/99mj7dc/8/Ev/AH2aAGeRL/zyk/75NHkS/wDPKT/vk0/7dc/8/Ev/AH2aPt1z/wA/Ev8A32aAGeRL/wA8pP8Avk0eRL/zyk/75NP+3XP/AD8S/wDfZo+3XP8Az8S/99mgBnkS/wDPKT/vk0eRL/zyk/75NTQz3tzJ5cMs0kmM7fMI4/E1ZNpqw4zN/wB/x/jW0KNSorwi2jso4LE4iPPRpuS7pFDyJf8AnlJ/3yaPIl/55Sf98mr32XVvWb/v+P8AGj7Lq3rN/wB/x/jV/Vq38jOj+y8d/wA+Zfcyj5Ev/PKT/vk0eRL/AM8pP++TV77Lq3rN/wB/x/jR9l1b1m/7/j/Gj6tW/kYf2Xjv+fMvuZR8iX/nlJ/3yaPIl/55Sf8AfJq99l1b1m/7/D/Gj7Lq3rN/3+H+NH1at/Iw/svHf8+Zfcyj5Ev/ADyk/wC+TR5Ev/PKT/vk1e+y6r/02/7/AA/xo+y6r/02/wC/w/xo+q1/5GH9l47/AJ8y+5knh9jb6iI5oXa3uB5TqUOOe/T/ADmtzxlIkFvbWVrGxT77FVJGMYAz/npWALXVh0M3/f4f40pt9XOBmbA/6bD/ABr1KNbEUcNLDqm9evY+0wGYZlgcnr5XHDNue0raxT3XzM/yJf8AnlJ/3yaPIl/55Sf98mr/ANl1X/pt/wB/h/jR9m1X/pt/3+H+NeX9Vr/yM+K/svHf8+Zfcyh5Ev8Azyk/75NHkS/88pP++TV/7Nqv/Tb/AL/D/Gj7Nqv/AE2/7/D/ABo+q1/5GP8AsvHf8+Zfcyh5Ev8Azyk/75NHkS/88pP++TV/7Nqv/Tb/AL/D/Gj7Nqv/AE2/7/D/ABo+q1/5GH9l47/nzL7mUPIl/wCeUn/fJo8iX/nlJ/3yav8A2bVf+m3/AH+H+NH2bVf+m3/f4f40fVa/8jD+y8d/z5l9zKHkS/8APKT/AL5NHkS/88pP++TV/wCzar/02/7/AA/xo+zar/02/wC/w/xo+q1/5GH9l47/AJ8y+5lDyJf+eUn/AHyaPIl/55Sf98mr/wBm1X/pt/3+H+NH2bVf+m3/AH+H+NH1Wv8AyMP7Lx3/AD5l9zKHkS/88pP++TR5Ev8Azyk/75NX/s2q/wDTb/v8P8ajnj1O2j8yV5kTOM+bn+RpPD1oq7iyJZbjIRc5UpJLyKnkS/8APKT/AL5Ndh8HVubf4q+F3iBiH2spM0g2p5LIwlDE9im6uSF9c/8APxL/AN9mprN576/s7WS8khjuLiKB5Mltgdwu7HfGc49q8+vFVKUovqmeRWgqlKUX1TKotwJbgWsMgtRPIIAUP+r3nb+mKd9nl/55Sf8AfBrT8SWV54Z8Tazokt5JNJpd3JaNIrEB9pwGxnjIwcVnfbLj/nvL/wB9mjD29jDld1bcnD29lHld1bcZ9nl/55Sf98mjyJf+eUn/AHyaf9tuP+fiX/vs0fbrn/n4l/77NdB0DPIl/wCeUn/fJo8iX/nlJ/3yaf8Abrn/AJ+Jf++zR9uuf+fiX/vs0AM8iX/nlJ/3yaPIl/55Sf8AfJp/265/5+Jf++zR9uuf+fiX/vs0AM8iX/nlJ/3yaPIl/wCeUn/fJp/265/5+Jf++zR9uuf+fiX/AL7NADPIl/55Sf8AfJop/wBuuf8An4l/77NFAENFFFABRRRQAUUUUAd54B/5Jj8YP+wNZf8ApatcI33jXd+Af+SY/GD/ALA1l/6WrXCN94142C/3rE+q/I1qbQ9Bkn+rb6H+VeyftOf8hH4Uf9k50f8A9q143J/q2+h/lX0B+0R4E8UeIG+E99pHhjWtWsv+FeaRF9o0/T5riPeBISu5FIzgjj3r2TI8Borpv+FW+Of+hG8Uf+CW5/8AiKT/AIVb45/6EbxR/wCCW5/+IoA5qiul/wCFW+Of+hG8Uf8Agluf/iKP+FW+Of8AoRvFH/gluf8A4igDmqK6X/hVvjn/AKEbxR/4Jbn/AOIo/wCFW+Of+hG8Uf8Agluf/iKAOar1X4Lf8k1/aC/7EuL/ANL4q4//AIVd45/6EbxP/wCCa5/+Ir0j4XeC/Enhv4U/H+61nw5rGjW0ng6OJJtRsJbdHf7dEdoLqMnHOBQB4iv3RS0g6CloAKKKKACiiigAooooAK9l/Y7/AOTjfD//AGDtW/8ASCavGq9Q/Zj8WaJ4H+Omga14j1KPR9Fjtr+3nv5kZ0hMtpLEhYKCcbmHQUAcL8MdUttB8beC9UvpBDY2OrWN1cSkE7Io50Z2wPQAn8K9q+Jfwy8BeNPiV4s8SWPx88EW1nrGq3OoRQ3FnemSNZZCwViExkZ7Vy0PwU8AwxLGv7Q/gvaowM6Xff4U/wD4Uz4C/wCjh/BP/grvv8KAJP8AhR3gz/o4LwF/4BX/AP8AEUf8KN8Gf9HBeAv/AACv/wD4io/+FM+Av+jh/BP/AIK77/Cj/hTPgL/o4fwT/wCCu+/woAcfgV4JMgc/tAeAS4GA32G+z/6BTv8AhR/gz/o4PwF/4BX/AP8AEVH/AMKZ8Bf9HD+Cf/BXff4Uf8KZ8Bf9HD+Cf/BXff4UASf8KO8Gf9HBeAv/AACv/wD4ij/hR3gz/o4LwF/4BX//AMRUf/CmfAX/AEcP4J/8Fd9/hR/wpnwF/wBHD+Cf/BXff4UAP/4UX4K3b/8AhoHwDuxjd9hvs4/74pf+FHeDP+jgvAX/AIBX/wD8RUf/AApnwF/0cP4J/wDBXff4Uf8ACmfAX/Rw/gn/AMFd9/hQBJ/wo7wZ/wBHBeAv/AK//wDiKRvgb4MKkf8ADQXgL/wCv/8A4imf8KZ8Bf8ARw/gn/wV33+FH/CmfAX/AEcP4J/8Fd9/hQA39oTUvD9xffDnSPDfiWy8W2vh3wlbaPc6np6SJC86TysQocBujqfxq1+0J/yJf7P3/Ygp/wClUlQL8GfAWR/xkR4K/wDBXff4Uv7RWueGtQh+F2ieGfEtn4tg8MeFV0m71KxikjhacTu+FEgDfdYUAeR0UUh6ULcDvPGn/JIPhN/1x1b/ANKxXCV3fjT/AJJB8Jv+uOrf+lYrhK8jKv8Adn/in+ZrW+P5IKKKK9cyCiijIoAKKKKACiiigAop8UMlw+yKNpG/urT57K4tcedEYweASQc/lWipzceZLQ6Y4avOm6sYNxXW2n3kNFFFZnMFFFSQ27zRzSL92EAt+J7VUYubtFGtKlOtLkpq7I6KKKgyCiiimAUUUUAFFFFAFvSx/pE+P+fd/wClVWHzHgflVrS8/aZ8f8+8n9Kqt1PrXdKTjh4WfVntSqShllPldvfkJgeg/KjA9B+VX4Y7OHT4pp4POkkZxneVwAab9o0//nyP/f1qr2LSXNUSv6m/1KcacJ1cTGPMr2blez+RSwPQflRgeg/Kr32jT84+xc/9dTQbnTh/y5f+RjS9n/09X4i+pr/oMj98v8ijgeg/KjA9B+VXvtGndfsR/wC/po+0af8A8+X/AJFNHs7f8vV+IfU0v+YyP3y/yKGB6UvHoPyq+txp+4D7F3x/rTTNWto7S8eOIYQdB+FKcJRhzxqX9LkVsJUpUHiIV1NJpOzfX1SKWPYflS8eg/Ktiz0W2l0l76adgqttKqAcc4qusGmd5pv++RV/V6yipOSV+7Ox5Pj6dOnVq1YxVRXV52ujP49B+VHHoPyrR8nTP+e8x/4AKPK0zP8Arpv++RU+xqfzr7zP+zcT/wBBEP8AwNGdx6D8qMD0H5Vf+z6c7YW6lX6xU1rS0zxfjHvC3+NP6vW6SX3kPLcZ9mrF+k1/mUcew/KlwPQflWjDptvOsgivN8iIX2+URnHuaz2XaSPSsqtOrRScnv5nJisJjMHCNSrLSWzUr7ejEwPQflRgeg/Kiiufnn3PN9tV/mf3hgeg/KjA9B+VFFHPPuHtqv8AM/vDA9B+VGB6D8qKKOefcPbVf5n94YHoPyrQtT/xJZx284fyrPrQtf8AkDT/APXcfyrqw8pObTfRntZTUnKtNSk/hl18jPFT2MyW+oWU0hIjiuYZXIGSFWRWbjvwDUFTWdrLqF9aWVuu+5upkt4V3Y3O7BVGe3JFefK3K77HzzaUXc1PHOtW/iTx74m1izLNZahqEtzAzqVYxsflJB6cdqxamvrObTdQvLG5QR3VpO9tMituCyIxVgD35B5qGs6EI06UYQd0kZ0YRp01GGwUUUVubBRRRQAUUUUAFFFFABRRRQAUVa22P/PS5/74X/GjbY/89Ln/AL4X/GgCrRVrbY/89Ln/AL4X/GjbY/8APS5/74X/ABoAq0Va22P/AD0uf++F/wAaNtj/AM9Ln/vhf8aAOy8A/wDJMfjB/wBgay/9LVrhG+8a9F8BpZf8K0+LoEtwF/sey3fIvA+2L059a4PbY/8APW5/74X/ABrxsF/vWJ9Y/ka1NoehUI3DB6V12l/GL4g6Jp9vYad498TafYW6COG1tdWnjiiUdFVQ2AB6Cub22P8Afuf++F/xpdtj/fuf++F/xr2TI63/AIXp8Tv+il+Lv/B1cf8AxVH/AAvT4n/9FM8X/wDg6uP/AIuuS22P9+5/74X/ABo22P8Afuf++F/xoA63/henxO/6KZ4v/wDB1cf/ABVH/C9Pif8A9FM8X/8Ag6uP/iq5LbY/37n/AL4X/GjbY/37n/vhf8aAOt/4Xp8T/wDopni//wAHVx/8XR/wvT4n/wDRTPF//g6uP/i65LbY/wB+5/74X/GjbY/37n/vhf8AGgDrf+F6fE//AKKZ4v8A/B1cf/F1R1r4sePPEmlz6brHjnxHq+m3ACzWV9qk00MoBBwyMxB5A61gbbH+/c/98L/jRtsf79z/AN8L/jQBVoq1tsf79z/3wv8AjRtsf79z/wB8L/jQBVoq1tsf79z/AN8L/jRtsf79z/3wv+NAFWirW2x/v3P/AHwv+NG2x/v3P/fC/wCNAFWirW2x/v3P/fC/40bbH+/c/wDfC/40AVaKtbbH+/c/98L/AI0bbH+/c/8AfC/40AVaM1a22P8Afuf++F/xo22P9+5/74X/ABoAq5ozVrbY/wB+5/74X/GjbY/37n/vhf8AGgCrmjNWcWP9+5/74X/GjFj/AH7n/vhf8aAKzNtUknAHJNNjmWZQyMGU9CDXvf7Jvwx8K+M/GWteLPGTv/wgPgSwOt6wtwg8udhkxQkDqCUZivfaB3r0T9pDwT4Y+N3xA8Ua14X0/UPC/jiy0e31s+GZUiaPXNJ8lWS7tNhwkyx/fiOSQvrQB8hZozVhG0+SNXWS5KsMghF/xp22x/v3X/fC/wCNAFbkkDuTgVb1DS7nS2j89SFkUFT2qzpq2Ecxumedhb4YKyD5ieB3rRvrmC6keGe5llWRPMR9ihVxkcc9a9Whhac6LlN6vb/gn2OXZTha+AnWxEmqkvgtsrdZeT2RzWaSrP8AoGeJLnH+4v8AjR/oP/PS4/79r/jXltWdmfHbOxWpG6Va/wBB/wCetx/37X/GjFif+Wtx/wB8L/jSW4HZeNP+SQfCb/rjq3/pWK4SvRfGi2X/AAqH4UHzJ9nk6rtwgz/x9DOefWuE22P/AD0uf++F/wAa8jKv92f+Kf5m1b4/kirRVrbY/wDPS4/74X/GjbY/89Lj/vlf8a9cxKtWtNhSSaZ5BuSGJpCD0z2/rRtsv79x/wB8L/jWnYyadpdi0kokmFyNwVlGQB0OM9M13YOmp1by2WrPeyTDwxGLUqzShBOUm9lbb8TOs9Ne4iluJD5NrGv+tbu3oPWqrRvGAzKQrDcvuPWuiuJ47mGCyaacPMRIvyqMZBwCO2K17G3iGiujo80Sx7FIA3Y6cc9a9VYCnXfJB2sr38z7jD8L4bMpeww8mnGLk5W3k9bW6JI4u1t1mhunfgRp8v8AvE8VB+tdRa2thBbSWsokYyqZ9xAygAxzg/lWCwsQxAe5wP8AYX/GvOxWH9hTh36nyOb5X/Z+Gw7dru9+979fkamjrB/wjt8WbE6sSApOf9mqkkctvp0kUuXkZxKyjnylA7n1NWtOu7XS9PeVXm/0gkBiikjHfGfX+dWtLht7XSbvUGaWWKTjEiAtkHGcZ5r1qPLUhCm9Hyu/kj7XBuni8NhcJZqcaUnJraMd+Z932Odt443kczkpCqFtwHUjtUn9m3TH5bdyu3eDj+H1rXtGsbi3h815AJZjKN6qucDHOD0NbeizQRPcxNds8si7grY+Ttx2rGjgKVSMYyl8zjyjhnB5hGnTq1bKWvMrJ+ju/uONs7Jrj7QzEokMZdjjn2GK0rPSJo9LvWmZIBIEClmHYk0ivaQx36tNcMWYKx2rknJ5HPNJbSW13ZywvLcMIybh2YKC+BjHXtxUYenRpySt72pz5dRy/CVo0ZQcqjU7a2vrZJ9tCnqGltYwQyo/nRuuTIo4z6VSroNQmsF0yCFVnhjY+aoCgseMZOTWRtsv+elz/wB8L/jXn42nCnVSp9j5jPcNhsLilDDaJxi2lqk+u+pWoqztsv8Anpc/98r/AI0bbL/npc/98r/jXAfOlairO2y/56XP/fK/40bbL/npc/8AfK/40AVqKs7bL/npc/8AfK/40bbL/npc/wDfK/40AO0vP2ifH/PvJ/Sqr9WrT01bQXEuySf/AFDZ3KvTjPfrVaRbHc37y4/74X/Guyp/u8PmetU/5FlP/FIJv+QTa/70n8xVaGF7iaOJBl5DtFaUi2f9mW+559u59uEGevOearQy2dvMk0ct0siHIOxT/Wqr29pDm2sjbG8nPhva/DyRvbt1HyTQxwyWdvGJmY4Mo5ct6j29qm0e2ljW6IVRcZWNPMxwTyevtT31iJlIE9whPUpCin880lteaatq8E8dxKrP5hbgEnGPWvRp1KEqqlzWS8rL/hz6TD4nAVMfCr7Sygny3jyxS6Lq2/Mj15Nl2qkfOsah2243N6gVm1pX11Z3k2/fcqAoUDy1wAOg61WxZf8APS5/79r/AI15eKmqlaUo7Hy+cV6eKx1StR+F7FdfvL9R/Or+uf8AIQk/z2qFFsvMX95c43D+BfX61e1z7GLxt7zh8chVGP50R/gT9UXR/wCRZXf96JWhcxaK/OPOnx+Cj/GorSGOOE3NwgkQsY44ycBiOpPsKuXa2X9m2i+ZcKvzOvyLzk896Le8s4rcQuks0aksu+JTgn8a7vdjOCnso9r6nuv2dPEUYYjaFNcrtdXeuqMid1YyNGNi8/LnO32rqIdN8m2jLQx/YxCrysRlycc4/Ssq8e1vGBb7Qq4IASFRj9aujUbPzGlEdyJTEIwwXI6Y6Vrg1CE5ylqvQ78h+qYatiK1fXRWvG1+9lZ/cYBXDE+9FXGhtQ2c3eD0zGP8aPJtP+nr/v2P8a8aUJuTfKfA1KNRzk+R6t9GGkNturhh2t3/AKVVkOZGPrWrYrZR2d1Lvn2uPIJ2jIzzxzVLFied9z/3yv8AjXRWTjQpxfmz1MWnRwGHoS3blL79CrRVrbZf37n/AL5X/GjbZf37n/vlf8a4jwirRVrbZf37n/vlf8aNtl/fuf8Avlf8aAKtFWttl/fuf++V/wAaNtl/fuf++V/xoAq1oWv/ACBZ/wDruP8A0Godtl/fuf8Avlf8av2q2f8AZcw8yfy/NyflXO7H16V1Yb436M9rKP48v8MvyMap9PleDVNOmjbZJFeQOrDqCJVIp+2x/wCelx/3wv8AjQy2J/5aXP8A3yv+NcUlzRce54bSlGzOg+Ldult8XPGsaDYg1WU7R2zgn9TXK1Y3WU0js1zdzSk5d5MO5P8AtEnJP1p22x/56XH/AHyv+NY4ek6NKNNu9jHD0/Y0o073sVaKtbbH/npcf98r/jRtsf8Anpcf98r/AI10nQVaKtbbH/npcf8AfK/40bbH/npcf98r/jQBVoq1tsf+elx/3yv+NG2x/wCelx/3yv8AjQBVoq1tsf8Anpcf98r/AI0bbH/npcf98r/jQBVoq1tsf+elx/3yv+NFAFWiiigAooooAKKKKAO88B/8kz+MH/YFsf8A0sWuCX7orvfAf/JM/jB/2BbH/wBLFrgl+6K8bBf71ifWP5GtTaHoLRRRXsmQUUUUAFFFFABRRRQAUUUUAFFFFABRRRQAUUUUAFFFFABRRRQAUUUUAFFFFABRRRQB0EPxI1rQ/hT4q8D2bwwaJr1zFf6gyofPmaFCEi3Zx5ecMRjqPrXrf7R3ijU/A3xw8H6v4d1GXStZ0nwboX2e8hwXjY2hB4IwQVbBBBBzzXz/AHWw20okOIypDY9K7/44X3ivUPidfyeNrKDTfEcdnY28tnagCKGFLaMQKuCR/qypPPVjQBwp+YknlmJYn1JOSfzNFFFABz1HBp8ixeVGU+8R+8U54b1pqr5jKg6scCrl9ausaNI8fyIFCo2WIFdVKEpQk0tj1MLh6tWhVnGN0l93+RSoqa1s5bzd5QU7eDuYD+dE9nLbsqOF3N02sDWXsp8vPbQw+pYl0vbqm+Tv0IaBVw6NeKu4ou3/AK6LUEFtNdMRDG0mOuCBj86r2FSLScdyp5fi6cownSacttNztvGn/JHfhN/1y1f/ANKxXCV3XjSRP+FX/DawBb7Vp8WpC4UqQFMlyHXDdG464zjvXExQtcTLGmNzf3jgV4+XUalOi4TVnzS/MeJwteniFRnBqTtoR0VYuLF7VfnkjY5xiN9xqO3t2upGVXRMDJaQ4Feu6M1Pka1IngsRTrKhKHvvoR4DEBs7c844OO9WJrpby8jaQYhUqCg7KO3+fWkurX7MRiZJc/8APPnFFrZm6DHzI4lU4LSNj8h3rWKqwl7JLU7KVLGUajwcY6tptaa22u+xbtbj7VrHmH753eX6A9AT7AVe1K5j0zSobezd/wB9+8kfOCw6fgD/AErKtpE027L7lu0ZCjbcrwe31p00o1S6eWSVbZOAF2lsAdAK9WGIcaUoX/eM+xw2Z1MPgq1BSX1qpJrR7J7u97bablVZ5F34b7www9QO1MYFs84z71YuIbZFHkzNK2edyFajhjSR8SS+UuPvbc/hivGnGfMoSd/mfDVqNf2qw85qT/xJrXz2FmuGmVFbAVF2qo6AU9dQuFsTZ7/9Hzu2Y75z1pbhLRVxBI8j56sABimWy27bvtBkHoqYGfxrb97Gpbn1a79DuvjKeJcFXSlJWbUtLdm/0Idu3I7fpR06cVLcNEzL5Csi997ZNTrJYwji3eZ/70kmB+QrJU7ya50rdTkp4W9SUXXilHrd/hpcpnNS2t01pMJFCtlSrKwyGB6g0xWRXy8fmJ/d3Ff1FPupY5mzFEIFxjaDn8aUfd/eKWqM6N6H+0U6qU4vRa3fntYW6unvJzK3XoAOgA6CoqtreW6qALCInHVnJNVty+Zv2ArnPlnp9KuslJ87ndvc2xkY1JqtKupylvo9Pw/IZR+NXJL6N4Si2kUZPGVGSKrQv5MocosmOzciolCEWkpXRhWoUKdSMYVlJPd2en37kYYN0INOVS7EKCx9AKmvLx7zG4KoB4CqBiliv5oIPKiPlr329W+tHLS5rc2noV7LCKs4yqtwS3UdW/S5WLADJOBS1La3BtWZ1VSxGBkZx9KddXk126NK28qeBgAU1Gny3ctTP2eG9jzOo+ftb82P0s7ppyOn2d/6VXYfMc1oWd9LdTzLIwKrbPhQoAHSs1nG4810V1FUYKDutT0sVGlHAU1Rk5Lmlraxbt9QMNusDQRTIpLL5gORnrS/2hH/AM+Nv+RqluHrRuHrWUcVWiku3kYwzXGU4Rppq0VZXinp80Xf7Qj/AOfG3/I0f2hH/wA+Nv8Akapbh60bh61X1ut/SRX9r4zuv/AY/wCRd/tCP/nxt/yNH9oR/wDPjb/kapbh60bh60fW639JB/a+N7r/AMBj/kXl1CNWB+w2/HI4NQX1y19M0rjDN121BuHrRvHrWdTEVKkeWW3oYYjMMViqfsqj93eySX5I0Brl2saRJJ5UaAKFVR2+tJ/bV5/z3P8A3wv+FUN49aNw9ar61X/mZr/a+Y6L20tNDQ/ty9/57n/vkUxtWvD/AMvDg+2Kpbh60bh60vrVf+ZkvNsxlvXl97Lq6terz9okP1xT/wC3L3H+vYH6D/Cs/ePWjcPWl9Zr/wAzBZtmMdq8vvZcuNVurmDyZZd8ZOcbQP5VUpNw9aNw9azqVKlV3m7nFiMTXxclOvJya01FopNw9aNw9ayOazFopNw9aNw9aAsxaKTcPWjcPWgLMWtC1/5A8/8A12/pWduHrWja/wDIHnP/AE2H8q68Mnzt+TPayhP28v8ABL8jPooorjPDR1HjaGG00X4cxLCkVzJ4ZjnndAAZC00m0t6nHeuXp9zez3Ulst1cvMYYVtoBK2dkS5IRf9kZPHvTK5cLSlRpck3d3f4nPh6cqVNQm7vUKKKK6zpCiiigAooooAKKKKACiiigAop3lSf883/75NHlSf8APN/++TQA2ineVJ/zzf8A75NHlSf883/75NADaKd5Un/PN/8Avk0eVJ/zzf8A75NAHdeA/wDkmfxg/wCwLY/+li1wS/dFegeBY3X4ZfF/Mb86NZY+U8/6YtcEI3wPkb8jXi4N/wC1Yn1j+RtUWkPQbRT/ACn/ALjflR5T/wB1vyr2TGzGUU7y3/uN+Ro8t/7jfkaVx2Y2in+U/wDcb8qPKf8Aut+VMVmMop3lv/cb8jR5b/3G/I0rjsxtFP8AKf8AuN+VHlP/AHW/KmKzGUU7y3/uN+Ro8t/7jfkaVx2Y2in+U/8Acb8qPKf+635UxWYyineW/wDcb8jR5b/3G/I0rjsxtFP8p/7jflR5T/3W/KmKzGUU7y3/ALjfkaPLf+435GlcdmNop/lP/cb8qPKf+635UxWYyineW/8Acb8jR5b/ANxvyNK47MbRT/Kf+435UeU/91vypisyKRBIoDDcu5SV9QCCR+IGK634rfESb4ufErxD4zntlsX1aZJFs45PMSBEjSNUDYG7AQc471ydxC7QnCtnI6D3Gf0zXe/HPVvDPiP4u+JtS8FWyW3haeWL7DFDbG3QKII1ciMgFfnD9uevegLM4Oil2P8A3G/75NGx/wC43/fJpXEJR/KneW39xv8Avk0eW39xv++TVXK12Gkdzz9aAvoMCl2P/cb/AL5NGx/7jf8AfJo5tLXDmlsJQKd5bf3G/wC+TR5b/wBxv++TT53dal89S97s7rxk7N8HfhKCT/qdW/8ASuuD/izXeeMo3/4U98JxsbIh1b+E/wDP3XCmN/7jf98mvIyuTlh22/tS/M0ryk6t29bIbR796d5T/wDPN/8Avk0eVJ/zzf8A75NetdmF3e43/PWj3707ypP+eb/98mjypP8Anm//AHyaBXY2kPQ0/wAqT/nm/wD3yaPJf/nm/wD3yaBDaKd5Un/PN/8Avk1paL4T17xLJMmi6DqmtPCAZU0+ylnMYOcFtinGcHrQMy6K6r/hUvj3/oQvE/8A4KLj/wCIo/4VL49/6ELxP/4KLj/4igDlaK6r/hUnj7/oRPE//gmuP/iKP+FSePv+hE8T/wDgmuP/AIigDlaK6r/hUnj7/oRPE/8A4Jrj/wCIo/4VJ4+/6ETxP/4Jrj/4igDlaK6r/hUnj7/oRPE//gmuP/iKP+FSePv+hE8T/wDgmuP/AIigDlaK6r/hUnj7/oRPE/8A4Jrj/wCIo/4VJ4+/6ETxP/4Jrj/4igDlaK6r/hUnj7/oRPE//gmuP/iKP+FSePv+hE8T/wDgmuP/AIigDlaK6r/hUnj7/oRPE/8A4Jrj/wCIo/4VJ4+/6ETxP/4Jrj/4igDmrW6ezn81AC2NpyMgg9qtnViST5EP/fAra/4VL4+/6ETxP/4Jrj/4ij/hUnj7/oRPE/8A4Jrj/wCIrohiKtNcsXoenh8yxWEh7OjO0d7WW5if2sf+eEP/AHwKP7WP/PCH/vgVt/8ACpPH3/QieJ//AATXH/xFH/CpPH3/AEInif8A8E1x/wDEVf1ut/MdH9tY/wD5+fgv8jF/tY/88If++BR/ax/54Q/98Ctr/hUnj7/oRPE//gmuP/iKP+FSePv+hE8T/wDgmuP/AIij61W/mH/beP8A+fn4L/IxP7WP/PCH/vgUf2sf+eEP/fArb/4VJ4+/6ETxP/4Jrj/4ij/hUnj7/oRPE/8A4Jrj/wCIo+t1v5hf21j/APn5+C/yMX+1j/zwh/74FH9rH/nhD/3wK2v+FSePv+hE8T/+Ca4/+Io/4VJ4+/6ETxP/AOCa4/8AiKPrVb+Yf9t4/wD5+fgv8jE/tY/88If++BR/ax/54Q/98Ctv/hUnj7/oRPE//gmuP/iKP+FSePv+hE8T/wDgmuP/AIij63W/mF/bWP8A+fn4L/Ixf7WP/PCH/vgUf2sf+eEP/fAra/4VJ4+/6ETxP/4Jrj/4ij/hUnj7/oRPE/8A4Jrj/wCIo+tVv5h/23j/APn5+C/yMT+1j/zwh/74FH9rH/nhD/3wK2/+FSePv+hE8T/+Ca4/+Io/4VJ4+/6ETxP/AOCa4/8AiKPrdb+YX9tY/wD5+fgv8jF/tY/88If++BR/ax/54Q/98Ctr/hUnj7/oRPE//gmuP/iKP+FSePv+hE8T/wDgmuP/AIij61W/mH/beP8A+fn4L/IxP7WP/PCH/vgUf2sf+eEP/fArb/4VJ4+/6ETxP/4Jrj/4ij/hUnj7/oRPE/8A4Jrj/wCIo+t1v5hf21j/APn5+C/yMX+1j/zwh/74FH9rH/nhD/3wK2v+FSePv+hE8T/+Ca4/+Io/4VJ4+/6ETxP/AOCa4/8AiKPrVb+Yf9t4/wD5+fgv8jE/tY/88If++BR/ax/54Q/98Ctv/hUnj7/oRPE//gmuP/iKP+FSePv+hE8T/wDgmuP/AIij63W/mF/bWP8A+fn4L/Ixf7WP/PCH/vgUy41SSe38kIiJndhVxzW7/wAKj8fH/mRPE/8A4Jrj/wCIrmprS5t5pIZraaGeJikkUkTKyMDgqQRkEHtSeKrSVnImecY6pFwdTR6PREVFP8mT/nm//fJo8mT/AJ5v/wB8muU8Y6nwVHFqXhz4hWMtvHLImgnUoJmUF4pLeVT8p7ZDEHHUVya/MB9KeFljVyoljDKUfbldynqDjqPY0ixuVBEb4/3TXLTpuFWc29JW+Vjnp03GrObd+a34DaKf5Un/ADzf/vk0nlSf883/AO+TXUdA2ineVJ/zzf8A75NHlSf883/75NADaKd5Un/PN/8Avk0eVJ/zzf8A75NADaKd5Un/ADzf/vk0eVJ/zzf/AL5NADaKd5Un/PN/++TRQBN/aF1/z8y/99mj+0Lr/n5l/wC+zVeigCx/aF1/z8y/99mj+0Lr/n5l/wC+zVeigCx/aF1/z8y/99mj+0Lr/n5l/wC+zVeigDsPAvxQ1HwG2rKljZa5a6pbpbXFpqgd4iqvvBGCOc1v/wDC9V/6J74S/wC/M3/xdeYUV5FfKcJiKrrVI+897Nr8mbxrziuVHp//AAvZf+ie+Ev+/M3/AMXR/wAL2X/onvhL/vzN/wDF15hRXP8A2Hguz/8AApf5lfWKn9I9P/4Xsv8A0T3wl/35m/8Ai6P+F7L/ANE98Jf9+Zv/AIuvMKKf9h4H+V/+BS/zD6xU/pHp/wDwvZf+ie+Ev+/M3/xdH/C9l/6J74S/78zf/F15hRS/sPBdn/4FL/MPrFT+ken/APC9l/6J74S/78zf/F0f8L2X/onvhL/vzN/8XXmFFP8AsPA/yv8A8Cl/mH1ip/SPT/8Ahey/9E98Jf8Afmb/AOLo/wCF7L/0T3wl/wB+Zv8A4uvMKKX9h4Ls/wDwKX+YfWKn9I9P/wCF7L/0T3wl/wB+Zv8A4uj/AIXsv/RPfCX/AH5m/wDi68wop/2Hgf5X/wCBS/zD6xU/pHp//C9l/wCie+Ev+/M3/wAXR/wvZf8AonvhL/vzN/8AF15hRS/sPBdn/wCBS/zD6xU/pHp//C9l/wCie+Ev+/M3/wAXR/wvZf8AonvhL/vzN/8AF15hRT/sPA/yv/wKX+YfWKn9I9P/AOF7L/0T3wl/35m/+Lo/4Xsv/RPfCX/fmb/4uvMKKX9h4Ls//Apf5h9Yqf0j0/8A4Xsv/RPfCX/fmb/4uj/hey/9E98Jf9+Zv/i68wop/wBh4H+V/wDgUv8AMPrFT+ken/8AC9l/6J74S/78zf8AxdH/AAvZf+ie+Ev+/M3/AMXXmFFL+w8F2f8A4FL/ADD6xU/pHp//AAvZf+ie+Ev+/M3/AMXR/wAL2X/onvhL/vzN/wDF15hRT/sPA/yv/wACl/mH1ip/SPT/APhey/8ARPfCX/fmb/4uj/hey/8ARPfCX/fmb/4uvMKKX9h4Ls//AAKX+YfWKn9I9QX48RRyRmT4d+E2j3rvCwzZ25G7Hz9cZrqfit8YvDOhfEnxFp3hDwb4R1fwvbXIXTr7y5n86MxqxO4OM4YsPwrwb59yLGjPIzqiKvUsxAA/EkV0PxF8C3vwx8ea54R1O5tLvU9HmW3uZLFmMXmGNXKgsAcjeAfcVX9i4K1uV/8AgUv8w+sVDsB8do8f8k68I/8Afib/AOLpf+F7R/8AROvCP/fib/4uvLaKn+w8F/K//Apf5j+sT/pHqP8AwvdP+id+Ef8AvxN/8XR/wvhP+id+Ef8AvxL/APF15dRR/YeC7P8A8Cl/mL6xUPUv+F7R/wDROvCP/fib/wCLo/4XtH/0Trwj/wB+Jv8A4uvLaKP7DwXZ/wDgUv8AMf1if9I9R/4Xun/RO/CP/fib/wCLo/4XtH/0Tvwj/wB+Jv8A4uvLqKX9h4Ls/wDwKX+YvrFQ7Lx18UtQ8dRaPbnT7HQrLS45Y7e10sOkf7xgzE5Y85Fct/aV3/z8y/8AfZqtRXq4XC0sHSVGirRRhKTnLmluWP7Quv8An5m/77NH9oXX/PzN/wB9mq9FdZJY/tC6/wCfmb/vs0f2hdf8/M3/AH2ar0UAWP7Quv8An5m/77NH9oXX/PzN/wB9mq9FAFj+0Lr/AJ+Zv++zXt/wm8Xa74Z/Zn+NepaNrV/pOpR32gxpeWVw8Uyq08gYB1ORkV4RXsPgH/k1P43f9hHw/wD+lElAHIr8bfiT3+I3i3/wdT//ABVL/wALu+JH/RRvFv8A4Op//iq4uigDs/8Ahd3xK/6KN4t/8HM//wAVR/wu74k/9FG8W/8Ag5n/APi64zn0P5UYPofyoA7P/hdvxJ/6KN4t/wDB1P8A/FUf8Lt+JP8A0Ubxb/4Op/8A4quM/A/lR+B/KgDs/wDhd3xJ/wCijeLf/BzP/wDFUf8AC7viT/0Ubxb/AODmf/4uuM/A/lR+B/KgDs/+F2/En/oo3i3/AMHU/wD8VR/wu34k/wDRRvFv/g6n/wDiq4z8D+VH4H8qAOz/AOF3fEn/AKKN4t/8HM//AMVR/wALu+JP/RRvFv8A4OZ//i64yigDs/8AhdvxJ/6KN4t/8HU//wAVR/wu34k/9FG8W/8Ag6n/APiq4yigDs/+F3fEn/oo3i3/AMHM/wD8VR/wu74k/wDRRvFv/g5n/wDi64yigDs/+F2/En/oo3i3/wAHU/8A8VR/wu34k/8ARRvFv/g6n/8Aiq4yigDs/wDhd3xJ/wCijeLf/BzP/wDFUf8AC7viT/0Ubxb/AODmf/4uuMooA7P/AIXb8Sf+ijeLf/B1P/8AFUf8Lt+JP/RRvFv/AIOp/wD4quMooA7P/hd3xJ/6KN4t/wDBzP8A/FUf8Lu+JP8A0Ubxb/4OZ/8A4uuMooA7P/hdvxJ/6KN4t/8AB1P/APFUf8Lt+JP/AEUbxb/4Op//AIquMooA7P8A4Xd8Sf8Aoo3i3/wcz/8AxVH/AAu74k/9FG8W/wDg5n/+LrjKKAOz/wCF2/En/oo3i3/wdT//ABVH/C7fiT/0Ubxb/wCDqf8A+KrjKKAOz/4Xd8Sf+ijeLf8Awcz/APxVH/C7viT/ANFG8W/+Dmf/AOLrjKKAOz/4Xb8Sf+ijeLf/AAdT/wDxVH/C7fiT/wBFG8W/+Dqf/wCKrjKKAOz/AOF3fEn/AKKN4t/8HM//AMVR/wALu+JP/RRvFv8A4OZ//i64yigDs/8AhdvxJ/6KN4t/8HU//wAVR/wu34lf9FG8W/8Ag6n/APiq4yigD1r4V/Gn4iz/ABV8EQzfEDxRcQTa7YxSwzavM6SI1wgZWUtgggkYrF+PGo3X/C9viQBcygDxHfgAOcAee1Y/wn/5K54C/wCxh0//ANKY60Pjx/yXb4k/9jJqH/o9qAOQ/tK7/wCfqb/v4aP7Su/+fqb/AL+Gq1FAHT/D1n1T4heFbO7uZGtZtVt1lRnOHG8HafYkAVm67q17ceJddkkmkjdtSucxqxUJ+9bgDsBjGKzI5Hhljlidopo2EkckZwyMDkMD2IIzmmtMZppZJJGlmkcvI7nLMxOSzH1J5rkdJ/WFVvpa1vmcvs5e3VW+lrfiWP7Quv8An5l/77NH9oXX/PzL/wB9mq9FdZ1Fj+0Lr/n5l/77NH9oXX/PzL/32ar0UAWP7Quv+fmX/vs0f2hdf8/Mv/fZqvRQBY/tC6/5+Zf++zR/aF1/z8y/99mq9FAFj+0Lr/n5l/77NFV6KACiiigAooooAKKKKACiiigAooooAKKKKACiiigAooooAKKKKACiiigAooooAKKKKACiiigAooooAKKKKACiiigAooooARpPJHmbinl/OGBwVI5B+oxXSfELRPE2j+JvP8XGWTXNYtYNae4uJhLJcRXCbo5XYfxMo6dRgVzM0YmhkjPRlKn8RXoPxp1TxP4k17w5r3ijSodJfUvDmn/2ZFbyb0msYozDFN1yC2xiVPSgDgaKKKACiiigAooooAKKKKACiiigAooooAKKKKACiiigAr2HwD/yan8bv+wj4f8A/SiSvHq9h8A/8mp/G7/sI+H/AP0okoA8epkzFYXYdQpP6U+o7j/j3l/3D/KgD6E8Zab8HfhVYeCdP1X4a6z4o1XVvC+n65d6hF4nltFMtwhLKIwpAAIPT1rnP+E6+B3/AERPXv8AwtZv/iKl/aa/5DXwz/7J5of/AKLevHWbb2LcgBVGSSTgADufagD1z/hOPgb/ANET17/wtZv/AIij/hOPgb/0RPXv/C1m/wDiKn1D4F6B4H8M3TfELx2vhXx1Npj6lpvhG3sjcSJ8u6KO8k6QyS/wxjkDkntWR8Bv2f8AxN+0PrWpab4eutN046bFFLdXWqSssamViqIoUEsxIPtxQBe/4Tr4Hf8ARE9e/wDC1m/+IpP+E6+B3/RE9e/8LWb/AOIqHxh+zj4p8M+H77xBpWoaH488P2DMl9qPhO8+1fYipw3nwkCSMAg5bBA7mvLMg4IOR2NAHrf/AAnHwN/6Inr3/hazf/EUv/CcfA3/AKInr3/hazf/ABFeSZNGTQB7rp+k/Cb4jfDf4n3/AIe+HuseEdc8K6Imr2t5ceJJb5HY3CRFDGVA6MeteE9OK9e+B/8AyTH9oT/sTIv/AEtjryJvvGkI7n4JfDGL4wfEFPDlzrP/AAj9mun3epXGoLbG4aOO3jMjAR5GSQPWtxPB/wADJEV1+NWvFWGR/wAUTN0/7+Vp/sg/8lh1H/sUtd/9JGrw3T2xp1sSePKUk/gKYz2L/hB/ggenxn1//wAIif8A+OU0+C/gcP8AmtOvD/uSZv8A45TdC+BMb/DC48a+LfF2neCo7qymvPDuj3kZkvNcEY6omRsjY4VWOSx5AxXlCsdgLLg4yR6UAet/8IR8EP8Aos+v/wDhETf/AByg+CfgevX40a8P+5Jm/wDjlasPw3+H/wANfhl4H8WfECw8VeJ73xhbS3thYeH7mKxtLaFHK7ZJ2BLy9CVGAARXN/FrwB4b0Xw34P8AG3gi51CXwd4pS5jhs9XZXvLC7t3CzwM6gCReQVcDnmgC/wD8IP8ABA9PjPr/AP4RE/8A8co/4Qf4If8ARZvEH/hET/8AxdeTUUAex33wZ8Cap8MvGvi3wX8StQ8ST+FLe3urvTr/AMOvYb45ZliUq7Oe5J6HpXjlex/CD/kgf7RH/YC0z/04CvHKACiiigAooooAKKKKACiiigAooooAKKKKACiiigAooooA6j4T/wDJXPAX/Yw6f/6Ux1ofHj/ku3xJ/wCxk1D/ANHtWf8ACf8A5K54C/7GHT//AEpjrQ+PH/JdviT/ANjJqH/o9qAOHoqew0+61W9hs7G3kvLyYlYreEZdyASQB9AT+FV1YOMjkVPMr2vqTdXsLW/4on006P4Ks9ONtLLb6QzahLCoDm6eZmKyHuVUAewNYFX9S0O60mz0W6uPL8rWLRr22CMS3lBymWGOCSCR7Vz1YxdSm5Strou5hUinUg3KzWy7lCiiiuo6QooooAKKKKACiiigAooooAt+XY/895/+/Y/xo8ux/wCe8/8A37H+NVKKALfl2P8Az3n/AO/Y/wAaPLsf+e8//fsf41UooAt+XY/895/+/Y/xo8ux/wCe8/8A37H+NVKKALfl2P8Az3n/AO/Y/wAaPLsf+e8//fsf41UooAt+XY/895/+/Y/xo8ux/wCe8/8A37H+NVKKALfl2P8Az3n/AO/Y/wAaPLsf+e8//fsf41UooAt+XY/895/+/Y/xo8ux/wCe8/8A37H+NVKKALfl2P8Az3n/AO/Y/wAaPLsf+e8//fsf41UooAt+XY/895/+/Y/xo8ux/wCe8/8A37H+NVKKALfl2P8Az3n/AO/Y/wAaPLsf+e8//fsf41UooAt+XY/895/+/Y/xo8ux/wCe8/8A37H+NVKKALfl2P8Az3n/AO/Y/wAaPLsf+e8//fsf41UooAt+XY/895/+/Y/xo8ux/wCe8/8A37H+NVKKALfl2P8Az3n/AO/Y/wAaPLsf+e8//fsf41UooAt+XY/895/+/Y/xo8ux/wCe8/8A37H+NVKKALfl2P8Az3n/AO/Y/wAaPLsf+e8//fsf41UooAt+XY/895/+/Y/xo8ux/wCe8/8A37H+NVKOtAFpo7LHE0//AH7H+Ne9eLvFXwQ8deGPh3/b/iDxqus6D4YtdEuLPQdMh8uNo2ZmJkmOGOXI+XjpzXz4ivJHLIkcjxRMEklVCUjY9FZgMKT2BPNJQB1Pja38C2+rRDwbqXiG+0owgyNrlpDFOsuTlQI2wVxjmtTwJ4X+HGuafcXHiz4jXnhK5SXy4rKDQZL1pEwD5hdG2gZyMdeK4KigDe8UaZ4b0rXrq10LxBdeItKj2+TqTWBtTNkAn927ZXBOPfGa7TR/CHwaXR7KfXvij4iXVLiJZJrHRPDBmS0Y9YnkkcBmHQlePSvLd3zYzzRQB6R/YXweh8XW0P8Awmvi668K/Y5Zrq7OhxQXhuB/q4IkLFcMMne3AxjvWjt/Zz/57fFj/v3p3+NeTUds9qAO6s7f4Vy+N5xcaj4ytvBKw74dtpbPqckgUfuzhvLUE5+bsAPWo/HU3wzuE08eB7Lxbp7IX+2SeI7mCczDA2bFjwExzn61xDMFUsxAVRkk9AKSKdLiMPG6uh5DKRigD07w7H8ELPQ7GTxHP8QtW1x4911baPHaWtrA2T8ivISz8d/esS5Pw4m8eQvBH4rtvA5ZfNt5Gt5NT2hfmCuCI+Wxg9hnvXG8ZpaAPXNS8SfASTT7mHT/AIdeNYbxo2W3vLjxOrBJMEK7IEwQDgle/SvNNLh0dtQs01O9vYbAyoLqa1t1eVY8jeyKWwWxkgGs6kxQB7Cbr9nN/wBwulfFIKTtGpfbbLd/v+Rjbj2zXCeG7DwdeeKFh17XNY0rw3ukZry109bi62DJRRHuxvbgZ6AmuaoxQB2/jqz+GMMVn/whGp+L7uYs32r/AISG0to0C4+XZ5ZznPXPapPDNh8LU8K3F54m1zxXL4ikaSO10fRbGFIosD5JZp5CQyk/wKMgCuE60UAWFjtdq75py2OcRDGfzr2LwDHaf8Ms/GwCWYxf2j4f3MUGR+/k6DNeLZNew+AP+TU/jh/2EvD3/o+SgDyjbY95bj8Ix/jUdwtj9nl/e3H3T/yyX0+tQVHcf8e8v+4f5UAe3ftMraf2x8My80yn/hXmiYAjByPLfnrVv9k3RLG/8ea9qdhaprnjDQtFl1Dwzol55aLe6juCIyh2AdolJcIepA9Kyv2nv+Q18MP+yd6J/wCi3rx1o1baTkFW3KwJBUjoQex+lAHqviv4D/FONdc8VeKPBfjBSWk1DVtY1KyUZbrJK7F+fw6ADHArv/2EfHEvg344TwWLLPZalpNzNqRuovuQ2sbXCyIQeG3ADJ7Ma+ebnWtUvYfJudX1K6h6eVcX00iH2KsxGK7r4H/FTSPhDrmu6pqnhi48UvqOkzaRHaxah9jjSObibzGCsxDKABtwRz60AfQPwj1D4T6L4V1nxl8FYrnWfirDo13falp/iu6mhnitHQm4lht1AhnVdxO1mxwO9fHtrDYLbRBLi5ZNo2ny15H516b4g/aBvpvDN94Z8G+FPD/w18O38XkXsOgxNJeXkXeOa7kJkKnuq4Bry0AKMAYA4AFAFrZY/wDPa4/79D/GgrY9prj/AL9D/GqtFAHs/wAD1s/+FaftADzZth8GRb22DI/02PoM15Ftsf8AntN/3wP8a9U+CH/JMP2hP+xLi/8AS2OvIMCkI9z/AGRI7X/hb2pGOSZj/wAIlrnDIAMfZG561zH7Nfw90Dx/41t01z7Vd+HtB0ifxFqlnFH893b20asYFwc/OxRTjsTXQfsgED4van/2KWuf+kZryPwH4s1vwHqOl674c1W40TWbWIeVeWrAOoKgFSCCGUjqpBBpjNn4hfEt/i942vvEmsXcj6he7VgsLSJWSzt14itoUB+VEXAAA65PesIR2O7DTXSnOCrQgEexGeK9Yf8AbC+MBUeV4osbKbGPtVloVlDcfXzBFnPvXkOqXt3rV5d3l7dSXN9dyPNPdSH55JGJLMfckkn60AfZWk/ET4R+HvgL8BtF+L+g6j4hT7DqN/o0VtGzxQxm4MaPPAjhpc84AyMZ4rzj9rLw/q0a+DPEWoeJINS8Japbzx+G9L0/RW0ldLt0K7kFm+CoOR+853Y61m6v+2V46On6LYeF9M8OeCLTR9Pi0yzfT9NS5u4oUHAW4nDMozk4A6nqa8d8TeKtb8ba1LrHiLWb7XdVlGHvNQnaWTH90Z4UewAFAFQCwwP31x/36X/Gl22H/Pa4/wC/S/8AxVVvxo/GgD2v4Ppaf8KG/aFAkmMZ0PTNzFBkf6eOgzXjmyz/AOes/wD37X/GvW/g/wD8kD/aH/7Aemf+l4rxugCztsv+etx/37H+NG2y/wCetx/37H+NVqKALO2y/wCetx/37H+NG2y/563H/fsf41WooAs7bL/nrcf9+x/jRtsv+etx/wB+x/jVaigCztsv+etx/wB+x/jRtsv+etx/37H+NVqKALO2y/563H/fsf40bbL/AJ63H/fsf41WooAs7bL/AJ63H/fsf40bbL/nrcf9+x/jVaigCztsv+etx/37H+NG2y/563H/AH7H+NVqKALO2y/563H/AH7H+NG2y/563H/fsf41WooA7L4ULZf8La8CYln3f8JBp+MxjGftMfvW/wDFrTNK1j9pDxxYXOo3Ngl14ov4mnjtTOVYztgBFO5iTxgetct8J/8AkrngL/sYdP8A/SmOtX42Xlxpv7QvxAvLO4ktLy28UX8sFxEcPG4uGIYH1rOopODUXZ9DOopODUHZm9a+GR8P9Yv9C8PTN4k+Id1DJCk1oqLHpNuRh2BdgvnsvXn5Afz524+CviHS7AzJYNdQwxs8q2t5bSvEqjJ3KJMk4GeM1XuvF+geNZGPjTRJIL+T7/iHw3iG4c/3p7c/JLnuRgmsLxJ4P0bw7/ZdxpGu2HiG3vFlKS2sLQzW4QgBZUblWOenTg18phvrVKoo1JWqS3bjdP0adkj5vD/WqdRRqStOW7aun6NaJHRQ/B7xXeWkdxB4fv3gmjEkcpmtlVlIyDzLxwRU3xYjsbfxJoen/aWdtL8P2dlKsOyQRSqG3oSGxuB6gGvPjaxMpBX5T/Dk4/KnRwxwLtjUIvoor21h8ROtCpWkmo7WX/BPXVGvOrGdWStHay/4Je2WWf8AXT4/65r/APFUbLLP+uuMf9c1/wDiqqUV6h6Ja8uy/wCe0/8A37X/ABo8uy/57T/9+1/xqrRQBa8uy/57T/8Aftf8aPLsv+e0/wD37X/GqtFAFry7L/ntP/37X/Gjy7L/AJ7T/wDftf8AGqtFAFry7L/ntP8A9+1/xoqrRQAUUUUAFFFFABRRRQAUUUUAFFFFABRRRQAUUUUAFFFFABRRRQAUUUUAFFFFABRRRQAUUUUAFFFFABRRRQAUUUUAFer/ALNfwr0f4n+O9Ql8WSXNv4E8OaXcazr91bSeWyQoh8tA+Rhmbpjk7TXlBOOTX1f4D+Juj/sz/st2unXvhS08TeLfiaJ9WNpqQBtrexjYR2rzxnmRCVZgmRnJNAGbD8aoviB+zn8crDRNKsPDPw70qz0mx0XQbVULQyzXefPuJvvSTsqZYk8Z49T4db/D2ab4Q6h8QZtTt7axg1qLQ7SxZC0t7M0fmyMGBwiomCc9eRX1R8O/jZ4v179lX4ja9D4A8L+KLz/hILHSrbQ9J8MJ9nhTyxI1xNBECZQpYY3Hj1rs/Dui6N8Sf2U7XxDo/wAF7W/8Z6Zr9xM/gUKbeybVCiRSXb27sp8sRFZPK4GW/GgD4xi+H1nD8CX8fXt9NHeX3iAaNo9jEFKTpHF5l1K5POFyqrjv1zXERxyTSRxRRyTTSMEjjjUszsTgKAOpJ7V9X/tceHdRtPgd8ILvWtN8O+BdctVvRf8AgnTSsMqzzyjM8cClgF2oC3PBbjPSvljSdWvNA1ew1TTrhrTUbG4jura4TG6OVGDIwz6ECgD3ux/Zy8Xx/sxalqJ+GWuXPjC98VwRwbtMk+2W2nxWxaR1Ujd5bu2D6kDuBXjPjH4f+J/h3Lp8Xirw7qXhyTUY/Os11KHyjcKOpX3GRleozyBX05qPx7h8ayfAS98a+MJNKs9U1rU9f8UNpF5LGtqpmEcMLhGLRxkxgkHoGYgYpf2pf2kpvF3wluPCGoeLPCfjfxHqevNemfwxYlrbS9NC/LF58i5M7MEyy4O0EHrQB8gyP5akkE9gAMknsAO5Ne56p4R+HvwO0OHQPiB4evvFvxF1ayN1eW9hfG2XwwkkZa2QfwyXBJVnDcKpx9eG+BOpeHtF+NvgTUvFskcPhuz1eG4vpJlLRoq5KM4HVRJsJ9ga6H4w/C/WtPuPEPjTXfHfgvX7rUtQkuvK0nXVu7y9Mshw6xqvAVSMhiMBfagDqP2K/hRaePvFHivxHrfh+fxVpvgzSBqMWl2yM323Ud2YIdg++DsYlDwcjNWP2wPh/wCK49K8DfEvU/Bcnhi88QaHBBrlvHarBFb6ssjoFMY+6zoFIAHO2saD4zzfCn9nnQPBvgTXVh1zxQ9zq/i28sSPNhQjyYLHcRlGCDcSMEdjzW3H4m0fx542/Ze8HXXiMazZaXDarrl1Lcu8SXE14ZjDIWPLoqqhJ6bsZoA5/wAffAqzH7Utr8KfCTTrDcSWFu7Tyec9sz20ct07Mf7gLtg8DGK8o8VWWmaZ4q1yy0W/k1TRrW+mt7K+lUK9zCjlVkIHA3AZ4r6Umvbf4X/HT4vXnxN1tfCfibxpYXq6Pq2mKNXfS457llfzUhb93I0CoqgnIU15vHqPwS+GtrIuiaZrHxZ1vy2jhuPEEP8AZuj25wQGFupMkpHUBiBQB4/RSLnaMnJ78UtABRRRQAUUUUAFexeAP+TU/jh/2EvD3/o+SvHa9i8Af8mp/HD/ALCXh7/0fJQB47TJlLQyKOrKQPyp9FAH0J46i+FnxasfAup3PxftvCuo6X4U07RLzTLrw9d3LJNAhDnemFIy3bPSuX/4VT8Kf+jgtN/8JS+/xryPr6/nSY9z+dAHrv8Awqn4U/8ARwWm/wDhKX3+NH/CqfhT/wBHBab/AOEpff415Fj3P50Y9z+dAHrv/CqfhT/0cFpv/hKX3+NH/CqfhT/0cFpv/hKX3+NeRY9z+dGPc/nQB63/AMKr+FX/AEcFp3/hKX3+NH/Cq/hV/wBHA6d/4Sl9/jXkvPqfzoyfU/nQB73pX/Ctfhl8L/iraaZ8VIPGeteJtBTSrPT7XQrq0IcXCSbi8gK4wp64rwSj8aKAO0+D/wAULj4PeOI/EtvpFprv+hXOny6feyvFFNDPH5bgso3A49K6Nfi58OEUKv7PPhcKowP+J/qHT868oooA9Y/4W98Of+jevC//AIP9Q/xo/wCFvfDn/o3rwv8A+D/UP8a8nooA9Y/4W98Of+jevC//AIP9Q/xo/wCFvfDn/o3rwv8A+D/UP8a8nooA9Y/4W98Of+jevC//AIP9Q/xo/wCFvfDn/o3rwv8A+D/UP8a8nooA9c1T49aN/wAK98WeE/DHwp0HwZF4mhht76/stUurmXy4pRKoCy5H3h+pryOiigAooooAKKKKACiiigAooooAKKKKACiiigAooooAKKKKAOo+E/8AyVzwF/2MOn/+lMdX/jx/yXj4k/8AYyah/wCj2qh8J/8AkrngL/sYdP8A/SmOtD48f8l4+JP/AGMmof8Ao9qAOJX7y004+Y45PU0ue9JQAUUUUAFFFFABRRRQAUUUUAFFFFABRRRQAu1v7rfkaNrf3W/I1P8A2hd/8/U3/fZo/tC7/wCfqb/vs0AQbW/ut+Ro2t/db8jU/wDaF3/z9Tf99mj+0Lv/AJ+pv++zQBBtb+635Gja391vyNT/ANoXf/P1N/32aP7Qu/8An6m/77NAEG1v7rfkaNrf3W/I1P8A2hd/8/U3/fZo/tC7/wCfqb/vs0AQbW/ut+Ro2t/db8jU/wDaF3/z9Tf99mj+0Lv/AJ+pv++zQBBtb+635Gja391vyNT/ANoXf/P1N/32aP7Qu/8An6m/77NAEG1v7rfkaNrf3W/I1P8A2hd/8/U3/fZo/tC7/wCfqb/vs0AQbW/ut+Ro2t/db8jU/wDaF3/z9Tf99mj+0Lv/AJ+pv++zQBBtb+635Gja391vyNT/ANoXf/P1N/32aP7Qu/8An6m/77NAEG1v7rfkaNrf3W/I1P8A2hd/8/U3/fZo/tC7/wCfqb/vs0AQbW/ut+Ro2t/db8jU/wDaF3/z9Tf99mj+0Lv/AJ+pv++zQBBtb+635Gja391vyNT/ANoXf/P1N/32aP7Qu/8An6m/77NAEG1v7rfkaNrf3W/I1P8A2hd/8/U3/fZo/tC7/wCfqb/vs0AQbW/ut+Ro2t/db8jU/wDaF3/z9Tf99mj+0Lv/AJ+pv++zQBBtb+635Gja391vyNT/ANoXf/P1N/32aP7Qu/8An6m/77NAEG1v7rfkaNrf3W/I1P8A2hd/8/U3/fZo/tC7/wCfqb/vs0AV2jLKQUYgjB4NaWueItX8UXdtc6xfXGpz2tpFYW8lxz5VvECI4lwBhVBIFVf7Qu/+fqb/AL7NH9oXf/P1N/32aANbw3488WeCVkXw34l1rw8ksnmyJpd7Lbq7gbdzBSMnHHPaqGta7rHiXVrjVNX1TUtT1S4bfNe3NzI00jbQu4tnOcADPoBUH9oXf/P1N/32a6r4Z+Cda+KXig6RZarHpVrb273+p6vfyFbbTbKMZluJTkZCjgLnJJAoA4sx/vmd97TMMl5WLO34nk0/ax/hP/fNe3+Kvjh4C0/wL4k8CeCvBEV7pt3DHDZ+NtVm3apNMsgL3RGMRoyjCRrjAOT6VleAdJ0iH4C/FHxv4jsrnUpLeWy0Pw/Is7xrBez73afjhgiheDkdR3zQB5GsYVmKpgtySF5P1pdp6BSB9K0YV1y40mbU44NSuNLt28ufUY4JGt43/utIBtU+xNdP4F+FfxG+KGn3t/4R8Oav4gsbJtlxcWrKEV8Z2KWYb3xztXJxQBxG1uflY/8AATTI7VYSTHAIyepVME169+zn8O7b4o+LtfTxBJrs+heH9Il1G8s9Ffbe3Mu9YobeLOcO0jen8Pbmq/x0+CvjP4EatpsfiHdYWut+dcaZbSXqTXiQIwAFwqfKsmHXO0lc5weKAPLNjc/IfypGh3KVKEj6GrH9pXn/AD9Tf99mj+0rz/n6m/77NAFaO3EKlUj2gnJwvU+tO2N/db8qn/tK8/5+pv8Avs0f2lef8/U3/fZoAg2t/db8qNrf3W/Kp/7Ru/8An6m/77NH9o3f/P1N/wB9mgCDa391vyNG1v7rfkan/tC7/wCfqb/vs0f2hd/8/U3/AH2aAINrf3W/I0bW/ut+Rqf+0Lv/AJ+pv++zR/aF3/z9Tf8AfZoAg2t/db8jXsXgFG/4ZT+N/wArZOpeHscf9N5K8k/tC7/5+pv++zXofww+OU/w50DxLoV94V0vxto3iBrZ7mz1m4miVGgZmjZWjOerfpQB5t5b/wB1vyo8t/7rflXs3/DQnhb/AKIP4M/8Gd//APFUf8NCeFv+iD+DP/Bnf/8AxVAHjPlv/db8qPLf+635V7N/w0J4W/6IP4M/8Gd//wDFUf8ADQnhb/og/gz/AMGd/wD/ABVAHjPlv/db8qPLf+635V7N/wANCeFv+iD+DP8AwZ3/AP8AFUf8NCeFv+iD+DP/AAZ3/wD8VQB4z5b/AN1vyo8t/wC635V7N/w0J4W/6IP4M/8ABnf/APxVH/DQnhb/AKIP4M/8Gd//APFUAeM+W/8Adb8qPLf+635V7N/w0J4W/wCiD+DP/Bnf/wDxVH/DQnhb/og/gz/wZ3//AMVQB4z5b/3W/Kjy3/ut+Vezf8NCeFv+iD+DP/Bnf/8AxVaen/FzTtW0DWtcsv2dPCd1o2iCJtTvY9SvvLtBK+yPeS/8TccUAeC7G/ut+VGxv7rflXs3/DQnhX/ogvg3/wAGl/8A/FUf8NCeFf8Aogvg3/waX/8A8VQB415b/wB1vyo8t/7rflXs3/DQvhX/AKIL4N/8Gl9/8VR/w0L4V/6IL4N/8Gl9/wDFUAeMbG/ut+VGxv7rflXs3/DQnhX/AKIL4N/8Gl//APFUf8NCeFf+iC+Df/Bpf/8AxVAHjPlt/db8qXy2/ut+VfTfwd8d+Ffil42TSp/gp4L0fRbS3k1LWdXfUr5l0+xiGZZiC3J6Kq55ZhXQ/Eb4gfCOP4XaV4/8A/BrR7/RJdbn0G9g129uop4JVj82CQeW5G2RMnB5B4oA+Q/Lf+635UeW/wDdb8q9m/4aE8Lf9EE8Hf8Ag1vv/iqP+GhPC3/RBPB3/g1vv/iqAPGNjf3W/KjY391vyr2b/hoPwr/0QTwd/wCDW+/+Ko/4aD8K/wDRBPB3/g1vv/iqAPGvLf8Aut+VHlv/AHW/KvZf+GhPC3/RBPBv/g0vv/iqP+GhPC3/AEQXwb/4NL7/AOKoA8Z2N/db8qNjf3W/KvZv+Gg/C3/RBPBv/g0vv/iqP+Gg/C3/AEQTwb/4NL7/AOKoA8a8t/7rflR5b/3W/KvZf+GhPC3/AEQTwb/4NL7/AOKo/wCGhPC3/RBfBv8A4NL7/wCKoA8Z2N/db8qNjf3W/KvZv+Gg/C3/AEQTwb/4NL7/AOKo/wCGg/C3/RBPBv8A4NL7/wCKoA8a8t/7rflR5b/3W/KvZf8AhoTwt/0QTwb/AODS+/8AiqP+GhPC3/RBfBv/AINL7/4qgDxnY391vyo2N/db8q9m/wCGg/C3/RBPBv8A4NL7/wCKo/4aD8Lf9EE8G/8Ag0vv/iqAPGvLf+635UeW/wDdb8q9l/4aE8Lf9EE8G/8Ag0vv/iqP+GhPC3/RBfBv/g0vv/iqAOC+FEb/APC2/Afyt/yMOn9v+nmOr/x4Rv8Ahe3xIO1sf8JJqHY/892ruNK/aY0DRNUs9RsvgT4NgvbOZLiCX+0747JEYMrYLdiAfwryvxV4y1Pxl4q1rxBeS/Z7vVb2a+ligY+WjSOWKrnsM4H0oAw9rf3W/I0bW/ut+Rqf+0rz/n7m/wC+zR/aV5/z9Tf99mgCDY391vyNGxv7rfkan/tC7/5+pv8Avs0f2hd/8/U3/fZoAg2t/db8jRtb+635Gp/7Su/+fqb/AL7NH9pXn/P1N/32aAINjf3W/I0bG/ut+Rqf+0Lv/n6m/wC+zR/aF3/z9Tf99mgCDa391vyNG1v7rfkan/tK7/5+pv8Avs0f2lef8/U3/fZoAg2N/db8jRsb+635Gp/7Qu/+fqb/AL7NH9oXf/P1N/32aAINjf3W/I0VP/aF3/z9Tf8AfZooAr0UUUAFFFFABRRRQAUUUUAFFFFABRRRQAUUUUAFFFFABRRRQAUUUUAFFFFABRRRQAUUUUAFFFFABRRRQAUUUUAFFFFABXtPwB8F/GjTrlvEvgDwhNdaTq1pJYXV5rlnEdIu7bcC6zGcqpQEA59jjNeKSRrIhVhlT1rrPHHxW8afEuOCHxT4o1LWbS3jWKGykm8u1iRRhQsKYToPTNAHr3x6j+Gcfw2u7K+tfBtt8XmmTy/+FaNOdPgjz+9+1sx8lmxnAj5Bxziu3+NX7U3jzR/gR8KrLRrm08K6n4hsLjUbm0s7WKSJLFALa3ULIhx5gR5M4zk8HFfHohRYzGqhUIxtXgYrb8UeMNY8aXOn3GtXn22XT9Pg0q1PlqgitYQRHGAoHTJ56knJoA+wfBH7Yfwu8Dx6Za6FZ+L9K0vT/D02m2uhzrENIiujCT5s0UZZrmSWXGZH+6DnjmvHfiJ4m8CeJvgn4CstN+Id5o+peHdGaR/B9npU4afWZXL3M8s6kIoYnCsM4UfhXhFHtQB9V/sf/HLwr+zb8OvGnivVN+peINb1ez0i30yylT7ZHbJGZJLkK3G1WkYgngsoHevFfjtqia/8RLjWU+IMnxLXUohcx6vPE0M8CEnFtLCQBE6d1T5e46157tG4Nj5ume9LQAUUUUAFFFFABRRUtvbS3kwigieaU9EjUsfyFJtLVhuRUVJdW8tjOYbiJ4JRzskUqf1qOiLUldMAooopgFFFFABRRRQAUUUYJOAMnrxzSbtqxBRSKwboc0tAwooopgFFFNkYohYAnHoMn6470AOr2zUrqb4Y/sn2vh+Rymr/ABQ1Ndant+hi0m0ISBiO3myjcP8AZWvS/C3wQ+C9n8TvCHg86Vr3xHttc00a1N4qfXUs9NgsVQtcS+TCN6+XtKlXIOSBVY/FLw1+038VGtNI+BPh/V7eytltoNX1bXLu3gsNItyVimn2YSJAgzgcknAyaAPlLkn3pK+6f2g/gT8M4vDvgrwv8N/h1bW/jzxmsk9tqsl5cW8OnWdvtaa9dJWJEJBwN+DtOcZ4rwHx4nwJ8L/B/WtF8NXV94s+IUV/boniqVZIrWSMfNcSWyD5RAADGN2WcnPTmgDhvh78Lr/4iWPirUItS0/Q9I8Naf8Ab7/U9UZlgBZtsUCkdZJGyFHtXFxsZI1YqVJAJU9R7V9i698HvDvwf/ZS8FWfxI17UPD8XijUW8Q6lo2j2wl1TVJVjH2W0Qt8sSRRkMzt0Zuma8I+K3ir4U6x4e0Gw+HHgLVPDN/CfN1PVNY1JrmabgjyVG4qRnDb8L6AUAeZ0jssalmIVQMkk4xS16x8BfC+k27a58S/FtoL3wh4LWOVdPfpquqOf9Es/ddw3v8A7KjPWgD3T4TaXoH7Lf7Ph1z4seD312P4l6pDZyaPwZINNiiMqmZcjlj8/l8feTPSvGdHaGb9j/4hSRQiCH/hYGmywQ7t3lK0Eu1M9yEwPwrf8B+KtQ/ap0/xD8NPEeoyTeOtX1eTxP4d1VkLwLeeXsms5QozHC8YAR/uoVFY/wAZtJk+Dvwy0j4LJJHd+NJtWGv+JvsxLxW128Iis7JG6SFFYOzDjLDFAHiPynOAD+FG0eg/KvoT4sfA+31f4meK9B8HwafoOifDPwzar4j1e7k2wz3qRbpGJHWaR32AdyufSpvhb+yv4Z8XfCvS/FvjT4s6R8ObvW4ZLvStN1KNCXtlcoJXLSKTllPC9BjrmgD512j0H5UYHoPyr0H4T/DbTfHXjTXbTVtaaz8KeHdNvtY1XWtPjDMbS2yFaJX4zK2zbu7NXperfsuaTffFj4YeAdC1ua0u9Y8Mp4i8S6lqRG2wiIMhYJwFIiwNpOMkGgD50or0f4+eBPBPw58dx6N4E8Znxvpq2qyXV4RGRb3G4gw+ZHhH4wcr0zg15xQAUUUUAFFFFABRRRQAUUUUAFFFFABRRRQAUCiigAooooAKKKKACiiigAooooAKKKKACiiigAooooAKKtbLL/nvN/36H+NGyy/57zf9+h/jQBVoq1ssv+e83/fof40bLL/nvN/36H+NAFWirWyy/wCe83/fof40bLL/AJ7zf9+h/jQBVoq1ssv+e83/AH6H+NGyy/57zf8Afof40AVaKtbLL/nvN/36H+NGyy/57zf9+h/jQBVoq1ssv+e83/fof40bLL/nvN/36H+NAFWirWyy/wCe83/fof40bLL/AJ7zf9+h/jQBVoq1ssv+e83/AH6H+NGyy/57zf8Afof40AVaKtbLL/nvN/36H+NGyy/57zf9+h/jQBVoq1ssv+e83/fof40bLL/nvN/36H+NAFWirWyy/wCe83/fof40bLL/AJ7zf9+h/jQBVoq1ssv+e83/AH6H+NGyy/57zf8Afof40AVaKtbLL/nvN/36H+NGyy/57zf9+h/jQBVoq1ssv+e83/fof40bLL/nvN/36H+NAFWirWyy/wCe83/fof40bLL/AJ7zf9+h/jQBVoq1ssv+e83/AH6H+NGyy/57zf8Afof40AVaKtbLL/nvN/36H+NGyy/57zf9+h/jQBVoq1ssv+e83/fof40bLL/nvN/36H+NAFWirWyy/wCe83/fof40bLL/AJ7zf9+h/jQBVoq1ssv+e83/AH6H+NGyy/57zf8Afof40AVaKtbLL/nvN/36H+NGyy/57zf9+h/jQBVoq1ssv+e83/fof40bLL/nvN/36H+NAFWirWyy/wCe83/fof40jR2W3/j4mH/bL/69AHW+D/hvJ4gs0vrudrW1YnYiLl5B6+wr3X4X/AvVNU064n0DTVh0+NsXGrahcLDAG9DK+Bkf3Vp/7P3gaHxXp8H9uSy6ZoWjWhvNTuSgVhbqcKo54d+FA685r1LXtD1D4mWVnrOtavYeCfh3bpjS7N5FYRQA4CxwKxZ5TjksMk1+XZpmGIq1p0r+6ux2Qikjyj4n/B270WztBrsNjeWl+sgtdS0+4S4jLL94K69GGRwa+Z9Q8O6npUrpdWU6hScSbCVIB65HFfXfxA8YaPrVno+geH4bix8MaKri1W5QGeeVzmSeTB4ZuOOwFcZtt8Eec5B4IMef61nl+a1cDdfEn0CUFI+ZqK6/xd4Ra18RXpt7a8NvIxkj8m23Lg9cYPHOeKzPD/hkeJNSFnbzTRkH97I8GBEvqef0r9Ip4ulUpKtzaWucvK72MLcB1IFW20u9SzF21ncLannzjGQv5+lfVPwt+Ffhafwr4vvbxGNhoumeYJCi7pbp3CxKx5yCcnbWGYrRoPLdz5bLtK+WNpGOmM9K+ZrcRwjK1KF0aqkz540nw/qWubzY2clyqHDMoAUH0yeKnm8H69FfW9mNIvJrq5YJDDbwmV5GPRVCZyfavd9E0Ww0PS4rK3lkESZP+rHOSTk8+9evfAmeHwjdeIPHUjMbbw9YOkPmRD57ucFIUXnr1PHQCueXEcvae7Bco/Y+Z8h+Efhzea44nvQ9lZIxVldcSOQSCoB6YIxzXrOnaLZaTbrBZ20UEQGDhclvcnvWk3lySPJLPI8sjF3bYPmYnJPXuSaQrAvWVx/wAf414OOzSvjZb2j2RrGmoowNW8G6PrFvLHJZQxySZ/fRIFdT65FeGahZvpl9cWkvEkEhjb3x3r6R22+3d5z49dg/xrm/F3wV+06kmr6idS0qDUI1eDzLMosuBgspbr26V6GT5p9XnKOIl7pM4XWh4VRXs2p/Crw/JpbpatcW90iErP8AeyQP4gTjFeQ+Xaf8/En/AH6/+vX2+DzCjjub2XQ5pRcdyvRVny7T/n5l/wC/I/xo8u0/5+Zv+/I/xr0iT0bwn4q0HwD8BPFUWm3qv4+8ZXf9j3VvGuH07R48SSNn1uHIX/dX2q38H/2ktZ+CvgfXfDOjeG9B1A6tex3ralqULSyQsigIPLztkC43Kr8BjnBry7y7T/n5m/78j/GjyrPn/SZv+/I/xoA+vfFPinxv8cPi1pvxn8Bapa+FPCWk6aNBl8R+Nry2WACMH7UstrksUk3/AOr25cjIIGMedat4q+DGo/tF2XiK0s7ew8EaJpn267t7Wze2tvEWrQgsiW9ucmCOVynyscEIema8Caz095A7SSMw55i7+vXrUvl2n/Peb/v1/wDXoA9kvv2rvEHxFXVLL4taXb/ELQb6Q3NvZq4srnSJsEI1nOi/KACAVYENjJ5rxEA45OTmrXl2n/PeX/v1/wDXo8u0/wCe8v8A36/+vQBWr1zwV8WPBNp8I7XwJ408GavrttYa1NrlvNo2sCxFzLIgTbP8pJ2qCAVPQ15Z5dp/z3l/79f/AF6PLtP+e8v/AH6/+vQB9B+GPjV4a1Tw1qmlDW7X4E+FN4im0LwRpct7rmtRbckNqDn5QfunJHPOK81+LXxel+I3xYg8Y6fYHSotNSxt9Mtrt/tEoitAohad/wDlo525bsc4rhtlp/z3l/79f/Xo8u0/57y/9+v/AK9AHv3iP9sq88d+HPFHh7xV8OfDd7omvTrfzW+kTTWEgvQSftMkilmlJbDbW4G0AcV5vd/FKw8RfCXTPBvifwvHq+p+H7eS38OeJLe7aCeyjd97Qzx4KzRgk4HBGa4ny7T/AJ7y/wDfr/69Hl2n/PeX/v1/9egDqvhX8Wda+Dusajf6LaaXqCalZHTr2x1m1FzbXEBcOFZMjoyqeD2rqNe/ae8Y698SNB8fvb6Vb+L9P09tMvL2K2/c6vAcjZcQfd27GKYXtjuK8t8u0/57y/8Afr/69Hl2n/PeX/v1/wDXoA9H8RfGbw/rWg32n2fwY8B6Dd3cZj/tKwS4MkBI5eFC+1GB6dQK8vHAxnNWfLtP+e8v/fr/AOvR5dp/z3l/79f/AF6AK1FWfLtP+e8v/fr/AOvR5dp/z3l/79f/AF6AK1FWfLtP+e8v/fr/AOvR5dp/z3l/79f/AF6AK1FWfLtP+e8v/fr/AOvR5dp/z3l/79f/AF6AK1FWfLtP+e8v/fr/AOvR5dp/z3l/79f/AF6AK1FWfLtP+e8v/fr/AOvR5dp/z3l/79f/AF6AK1FWfLtP+e8v/fr/AOvR5dp/z3l/79f/AF6AK1FWfLtP+e8v/fr/AOvR5dp/z3l/79f/AF6AK1FWfLtP+e8v/fr/AOvR5dp/z3l/79f/AF6AK1FWfLtP+e8v/fr/AOvR5dp/z3l/79f/AF6AK1FWfLtP+e8v/fr/AOvR5dp/z3l/79f/AF6AK1FWfLtP+e8v/fr/AOvR5dp/z3l/79f/AF6AK1FWfLtP+e8v/fr/AOvR5dp/z3l/79f/AF6AK1FWfLtP+e8v/fr/AOvR5dp/z3l/79f/AF6AK1FWfLtP+e8v/fr/AOvRQBWooooAKKKKACiiigAooooAKKKKACiiigAooooAKKKKACiiigAooooAKKKKACiiigAooooAKKKKACiiigAooooAKKKKACiiigAooooAKKKKACiiigAooooAK9K+HvgMfutV1OP/AGoLdh+TsP5CuS8Cx2k3i3T0vtphLHCt90vg7Qfxr6Q8H+Fbzxx4p07QrHalzeSiMSSfciXGWdvZVBP4V8lnuYVMNFUaejl1NacVJ6npXwh8P/8ACyPh/wCIPBGlanBpniC81GC+kN1G5jntYkPyl1B24c5+bArgPH3gq38C6tHp0XiDT/EFwiEzvpoYxwPn7m4jDHHPHFdF40+Itnpenz+EPBLtp/hmJtl3fqdtzq8g4Mkj9RGT91BxiuAmsZ7OG3ea3lginTfC0kZVZFBxlcjkfSvzpvm16nWaeqeDdU0n+wBNArvrlvHdWCQsHMqO+xeB0bcMYrsZv2fvEMF7eQy3+iQ29kyxXF/cX6xWyXBHNtvbrIvcDIHrXf8AhaS0sfhL4R+JN48UjeELO+sLa3kIzJetL/oox6LvLfhWH8SfHl58PvFel6NDZabqg0jSoNp1S3E6peTKJproA8eYzN1OeKa8wPPbj4W+KoPGF14Wh0ie91u2jEz2tmRJ+7IBDgg4KkMDn3rN8S+BNU+HWuRw65o/2C5uNtwVfaRcKDj7ykgjjB54r2P4P+ILxPBvxc+I+r6i9xqb2A06OdmwzyyjjGOmDsAA6CuK+Iamw+FXww0y7Zn1H7PeX5DHLJBLKPKBzzztY0c0orRhY9k8Q+NtC8UfB/TL1/h4XtbxZNRuNN027W1hjgtGEaySMFBZC78L1r5f1i/h1LVLu8trGDSreaQullbljHAv91S3OB716Bq3xmik+C2n+CrWwa1uY4/IvtSkkG2SBZWlCKOwLEEk+lfL/izxxP4kvI9F0ZmW3lkELTqcGUk4wPRf513YXC1MZPlp7dX2FzKO56jHMtxEHhYTK33WjOQfpXqPxO/4onwv4d+HkIzeQhdV1naMl72Zf3cWO/lxkDHq1ea+C/s3gu80J0tVu4NNnima3JwJgjBip9MkGvVvEHx6hj1jUdW8K+FrPQ9WvpmuJ9Zv3+23isxydhYbY8dBgcYrjnFRqOMXdDuN8G+BtJ0fw7p2reIdDvNf1rWtTfSdM8O5a3AdCu+WRh83AbhQPrXq0nw18P8AgzQfEF34P8Jt401ybU57WyMkK3tvYrGVHlyhmGOd/wA3JOK+YtS/aw8SeBbO50yDV21C6uZJbhrgxRyXEEkgw7LMwJQsOuPTtXl3h342S2q3QvTdWpkYkNZSMAw9G5GT716dLLsVVpupCF0TzpM+2dF+Ftn4i+OHh8p4e01raw06K68T6bYujW0F0ySHYqbjnkJkLkA4zWJ8TLzxF/wr3xY/j0/Y73VNWgutA0eeVXntApZXwqk+XH5e1cdyOleafA34naVo/wAP/HOsQzSQa9qlkNN02PBLgPIfOcsPukAA9fSuA1vWotJs59Qv5XYKPvSOWZz2AJ6muCVKcZ+ycfe7DujnfiR4qGhaT9jhb/TrxSqkfwJ0Zv6CvGFUelXta1i41/VJ765P7yU8KDwijoo+gqlX6hlOBWBoWfxPc45y5mFFFFe2QFFFFABRRRQAUUUUAFFFFABRRRQAUUUUAFFFFABRRRQAUUUUAFFFFABRRRQAUUUUAFFFFABRRRQAUUUUAFFFFABRRRQAUUUUAFFFFABRRRQAUUUUAFFFFABRRRQAUUUUAFFFFABRRRQAUUUUAFFFFABRRRQAUUUUAFFFFABRRRQAUUUUAFFFFABRRRQAUUUUAFFFFABRRRQAUUUUAFFFFABRRRQAUUUUAFFFFABRRRQAqs0bK6na6kFWHUEdDXqHg/8AaE8QeB9UstVsIYDq1ocx3Lcq2QQQyEYIIJBHvXl1FcWJwdHFpKtG9ioycT3g/tieJFzNB4F8AQXu7ctyNGZip9dhk2/pXH+Jv2hvHPjbXY9U8Q6nHqska7EgMCxRInZEVfuKPQV5vRWP9m4O1vZoOaXc9XsPjVFcWMlnqNvcwWu/zUhhkLxl8YyVOMHtmurv/wBsnVrx7eafwJ4V1vUbOFLe11rWIZWuVVBhDIiMEkIGMbvTmvn2g8giuank2Dpz9oof5D9pI+l9P8b+LPFuj3Vx4m1FZZdWlW7uLS0hW3t8qu2P92nAIWtDxj40ufEUtrf6zPDH9hsobJJFTYoiiG1cgfxY/OvNtL+KWkNpcRu2kt7qNArwiMtuIHVT0wfeuB8XeMrrxVdfMPJsEOYrfP8A483qf5V8dHKcRisVJOPLG/yt5HR7RJGh438dTeIJZbOzYxaWp+jTe59vb865WzupLG9t7mEhZYXDqccZBzUJ5OaK/QMNg6WFp+zprQ55S5j0y4+MEbaeTDp0i3zDGJHBjU+vqa8+udWvbySZ57qZ2mbdJ+8IDH6VUorHD5bhsM3KEdWLmbEAxS0UV6VktESaui+J9T8Pq62N15KOcmNlDLn1we9Q6x4g1HxBIjX1w03l/cXgKv0AqhRXP9Wo+09ryLm7lczCiiiukkKKKKACiiigAooooAKKKKACiiigAooooAKKKKACiiigAooooAKKKKACiiigAooooAKKKKACiiigAooooAKKKKACiiigAooooAKKKKACiiigAooooAKKKKACiiigAooooAKKKKACiiigAooooAKKKKACiiigAooooAKKKKACiiigAooooAKKKKACiiigAooooAKKKKACiiigAooooAKKKKACiiigAooooAKKKKACiiigAooooAKKKKACiiigAooooAKKKKQBRRRTAKKKKACiiigAooooAKKKKACiiigAooooAKKKKACiiigAooooAKKKKACiiigAooooAKKKKACiiigAooooAKKKKACiiigAooooAKKKKACiiigAooooAKKKKACiiigAooooAKKKKACiiigAooooA//Z;imageBorder=default;" vertex="1" parent="1">
                    <mxGeometry x="69.7" y="990" width="630.3" height="400" as="geometry"/>
                </mxCell>
                <mxCell id="57" value="V8" style="text;html=1;align=center;verticalAlign=middle;resizable=0;points=[];autosize=1;strokeColor=#B20000;fillColor=#e51400;fontSize=15;fontFamily=Architects Daughter;sketch=1;hachureGap=4;jiggle=2;curveFitting=1;fontSource=https%3A%2F%2Ffonts.googleapis.com%2Fcss%3Ffamily%3DArchitects%2BDaughter;fontColor=#ffffff;" vertex="1" parent="1">
                    <mxGeometry x="360" y="950" width="40" height="30" as="geometry"/>
                </mxCell>
            </root>
        </mxGraphModel>
    </diagram>
</mxfile>